<?xml version="1.0" encoding="UTF-8"?>
<svg width="23px" height="23px" viewBox="0 0 23 23" version="1.1" xmlns="http://www.w3.org/2000/svg" xmlns:xlink="http://www.w3.org/1999/xlink">
    <!-- Generator: Sketch 54.1 (76490) - https://sketchapp.com -->
    <title>Group</title>
    <desc>Created with Sketch.</desc>
    <g id="Symbols" stroke="none" stroke-width="1" fill="none" fill-rule="evenodd">
        <g id="closeSVG" transform="translate(-14.000000, -14.000000)" fill="#007A33">
            <g id="Group" transform="translate(14.000000, 14.000000)">
                <path d="M13.6306505,11.8443311 L20.7728894,19.1997164 C21.5275358,19.9768837 21.5260578,21.239268 20.7672164,22.016888 L21.0549439,21.7220402 C20.3017726,22.4938498 19.0683174,22.4991406 18.3126092,21.7208797 L11.1761192,14.3714149 L4.31376208,21.4366137 C3.55185267,22.2210441 2.15463032,22.4379845 1.19537329,21.9186983 L1.45848557,22.0611321 C0.49880944,21.541619 0.337270582,20.486702 1.09674234,19.7044023 L8.72485929,11.8470018 L0.911321134,3.80028362 C0.156674776,3.02311629 0.158152752,1.760732 0.916994138,0.983112033 L0.629266624,1.27795976 C1.38243791,0.506150207 2.6158931,0.5008594 3.37160137,1.27912033 L11.1787959,9.31930558 L19.4288913,0.821231378 C20.1844968,0.0429141723 21.4191269,0.0352101441 22.1778793,0.812919151 L21.8901855,0.518037661 C22.6432684,1.28993559 22.6455094,2.56300568 21.8825279,3.34853989 L13.6306505,11.8443311 Z" id="Combined-Shape"></path>
            </g>
        </g>
    </g>
</svg>