<?xml version="1.0" encoding="UTF-8"?>
<svg width="23px" height="23px" viewBox="0 0 23 23" version="1.1" xmlns="http://www.w3.org/2000/svg" xmlns:xlink="http://www.w3.org/1999/xlink">
    <!-- Generator: Sketch 54.1 (76490) - https://sketchapp.com -->
    <title>Group</title>
    <desc>Created with Sketch.</desc>
    <g id="Symbols" stroke="none" stroke-width="1" fill="none" fill-rule="evenodd">
        <g id="Icon/Close-W" transform="translate(-14.000000, -14.000000)" fill="#FFFFFF">
            <g id="Group" transform="translate(13.000000, 13.000000)">
                <path d="M25.6055086,14.0776031 C26.7004746,14.061656 27.5990864,13.1598749 27.6123907,12.0815506 L27.6073082,12.4934935 C27.6207125,11.4070512 26.7422496,10.5394835 25.6576025,10.5555431 L-0.65760253,10.9451745 C-1.7477996,10.9613163 -2.37951334,11.8214804 -2.06827107,12.8674252 L-2.15360367,12.5806608 C-1.84249732,13.6261488 -0.701111837,14.4607341 0.392315517,14.4448094 L25.6055086,14.0776031 Z" id="Path" transform="translate(12.500000, 12.500000) rotate(-45.000000) translate(-12.500000, -12.500000) "></path>
                <path d="M-2.61257092,12.0815506 C-2.59929245,13.1679928 -1.70769705,14.0616784 -0.624541206,14.0776031 L24.3518025,14.4448094 C25.4364826,14.4607565 26.3049259,13.5848308 26.2917467,12.5065065 L26.2967814,12.9184494 C26.283503,11.8320072 25.3919076,10.9383216 24.3087517,10.9223969 L-0.667592021,10.5551906 C-1.75227205,10.5392435 -2.62071541,11.4151692 -2.60753616,12.4934935 L-2.61257092,12.0815506 Z" id="Path" transform="translate(11.842105, 12.500000) rotate(45.000000) translate(-11.842105, -12.500000) "></path>
            </g>
        </g>
    </g>
</svg>