<?xml version="1.0" encoding="UTF-8"?>
<svg width="12px" height="18px" viewBox="0 0 12 18" version="1.1" xmlns="http://www.w3.org/2000/svg" xmlns:xlink="http://www.w3.org/1999/xlink">
    <!-- Generator: Sketch 54.1 (76490) - https://sketchapp.com -->
    <title>Shape</title>
    <desc>Created with Sketch.</desc>
    <g id="Symbols" stroke="none" stroke-width="1" fill="none" fill-rule="evenodd">
        <g id="Button" transform="translate(-19.000000, -11.000000)" fill="#FFFFFF">
            <path d="M30.166506,14.0824091 C29.107395,12.1971922 27.2261974,11.0454394 25.1342547,11.0014238 C25.044953,10.9995254 24.9550719,10.9995254 24.8657361,11.0014238 C22.7738275,11.0454394 20.8926299,12.1971922 19.8334848,14.0824091 C18.7508895,16.0093916 18.72127,18.3240768 19.7542381,20.2742273 L24.081722,28.4440748 C24.0836648,28.4476959 24.0856077,28.4513169 24.0876187,28.4549029 C24.2780153,28.7962346 24.6190999,29 25.0000636,29 C25.3809931,29 25.7220778,28.7961994 25.9124403,28.4549029 C25.9144513,28.4513169 25.9163941,28.4476959 25.918337,28.4440748 L30.2458209,20.2742273 C31.2787208,18.3240768 31.2491013,16.0093916 30.166506,14.0824091 Z M24.9999954,19.1562596 C23.6468024,19.1562596 22.5459037,18.020749 22.5459037,16.6250121 C22.5459037,15.2292752 23.6468024,14.0937646 24.9999954,14.0937646 C26.3531884,14.0937646 27.4540871,15.2292752 27.4540871,16.6250121 C27.4540871,18.020749 26.3532225,19.1562596 24.9999954,19.1562596 Z" id="Shape" transform="translate(25.000000, 20.000000) scale(-1, 1) translate(-25.000000, -20.000000) "></path>
        </g>
    </g>
</svg>