<svg width="86" height="80" viewBox="0 0 86 80" fill="none" xmlns="http://www.w3.org/2000/svg">
<path fill-rule="evenodd" clip-rule="evenodd" d="M52.4084 32.0058C52.0263 31.775 51.4821 31.4228 51.1964 31.2334C49.7908 31.8439 48.3999 33.0627 47.2141 34.2939C44.4886 37.1133 44.7344 38.7368 41.8585 39.834C41.1363 40.1054 40.2497 40.401 39.1174 40.659C38.4507 38.6141 36.775 36.584 35.0029 36.584C33.7752 36.584 32.356 37.2196 30.7213 37.9383C28.8006 38.7773 27.0433 39.7395 26.4824 40.1054L27.2336 41.1069C27.8054 40.796 29.4548 39.9825 31.1053 39.2787C32.5369 38.6693 33.8308 38.1669 34.7015 38.1669C36.1062 38.1669 37.0197 39.7527 37.5243 41.025C35.6834 41.4586 32.6584 41.5657 31.7456 41.5657C31.3221 41.5657 31.1712 41.6343 31.0227 41.7579C30.8854 41.8799 30.7766 42.095 30.7077 42.3946L30.5997 42.8543H31.5814C36.6775 42.8543 41.4909 42.0555 44.5837 40.1865C45.0204 40.3062 45.4014 40.3886 45.8931 40.3886C47.6641 40.3886 49.4926 39.4286 50.6355 38.5474C51.0447 38.2355 51.1409 37.9516 51.1409 37.6407C51.1409 37.491 51.1273 37.3548 51.112 37.2196L51.0583 36.6912C49.4234 37.9778 48.0606 38.9397 46.3705 38.9397C46.0709 38.9397 45.8514 38.9137 45.6746 38.8586C47.325 36.2315 48.7967 33.902 52.4084 32.0058Z" fill="white"/>
<path fill-rule="evenodd" clip-rule="evenodd" d="M41.5861 35.0802C40.4275 35.0802 40.5352 33.1155 40.4537 31.5597C36.3653 31.9511 33.8043 33.1572 30.9932 34.6601L31.3218 35.9059C33.8704 34.3887 36.3226 33.5235 38.9267 33.2663C38.9558 34.7546 39.5962 36.7471 41.3003 36.7471C43.1256 36.7471 45.3458 33.902 47.9498 30.5697L48.6323 29.6899C48.2782 29.4184 47.8837 29.1748 47.6368 28.9463C44.9655 32.3585 42.6493 35.0802 41.5861 35.0802Z" fill="white"/>
<path fill-rule="evenodd" clip-rule="evenodd" d="M32.6981 14.1826C32.316 14.1826 31.8798 14.1276 31.3619 14.0067C30.967 13.912 30.5442 13.8299 29.9455 13.8299C28.8695 13.8299 27.7099 14.2356 26.9186 14.9949C25.4733 16.3625 25.3918 17.8392 25.2962 19.1517C25.1759 20.8998 24.8474 21.3347 23.8948 22.6064C23.1163 23.6485 22.0529 25.018 21.2354 26.4669C21.495 26.5876 22.3533 27.0483 22.6537 27.2098C23.5925 25.8035 24.9027 24.0687 25.76 22.7544C26.5378 21.5634 26.8506 21.0475 26.905 19.4511C26.9186 19.1807 26.9186 18.9227 26.9458 18.6651C27.015 17.8392 27.2334 16.9989 28.0247 16.2282C28.6099 15.6438 29.4546 15.3463 30.3012 15.3463C31.1176 15.3463 31.5947 15.5762 32.3036 15.5762C32.809 15.5762 33.1765 15.4546 33.502 15.3339L33.7617 15.2391L33.1345 16.7283L34.6063 17.3245C33.6664 17.9058 31.6076 20.4111 31.6076 23.3791C31.6076 24.4472 31.7718 25.4363 32.0041 26.3162C32.0305 26.411 32.0848 26.5055 32.2345 26.5055C32.3726 26.5055 32.4677 26.4246 32.4803 26.2767L32.494 25.9637C32.5368 25.0568 32.603 23.6217 32.9702 22.3362C33.5837 20.1698 35.2331 18.1374 36.8836 17.161L34.5391 16.147L35.5471 13.6938L34.4437 13.9247C33.7751 14.0588 33.285 14.1826 32.6981 14.1826Z" fill="white"/>
<path fill-rule="evenodd" clip-rule="evenodd" d="M41.5308 4.05176C40.6443 4.05176 40.4004 4.90362 40.4004 5.37885C40.4004 5.75849 40.5354 6.20576 41.0148 6.20576C41.4084 6.20576 41.8983 5.92158 42.2801 5.6078C42.6495 5.31121 42.8934 5.06699 42.8934 4.82249C42.8934 4.59353 42.6759 4.37549 42.3484 4.22767C42.118 4.11844 41.8322 4.05176 41.5308 4.05176Z" fill="white"/>
<path fill-rule="evenodd" clip-rule="evenodd" d="M41.8984 21.2524H36.1063L35.4521 22.4992H42.4164L41.8984 21.2524Z" fill="white"/>
<path fill-rule="evenodd" clip-rule="evenodd" d="M28.0507 9.7665C28.4189 9.54886 28.731 9.23904 28.731 8.91354C28.731 8.76381 28.6651 8.61531 28.5143 8.47895C28.2548 8.23759 27.901 8.11377 27.6006 8.11377C26.9182 8.11377 26.5645 8.75031 26.5645 9.33368C26.5645 9.78068 26.7832 10.0379 27.2051 10.0379C27.4635 10.0379 27.7648 9.92781 28.0507 9.7665Z" fill="white"/>
<path fill-rule="evenodd" clip-rule="evenodd" d="M68.5594 34.6202L69.226 35.0799C69.3216 35.1476 69.3906 35.1872 69.4721 35.1872C69.6091 35.1872 69.7046 35.053 69.7046 34.9456C69.7046 34.8771 69.6753 34.8095 69.5966 34.7409C67.6038 32.9396 65.4656 30.7462 63.4604 28.6321C61.8935 26.9658 60.2859 25.2071 58.8687 23.4329C58.7714 23.3103 58.6917 23.2554 58.5808 23.2554C58.4194 23.2554 58.3379 23.3645 58.3379 23.4869C58.3379 23.6762 58.4729 23.9054 58.8144 24.4753C59.8483 26.2213 61.1313 27.9839 62.7121 29.6346C64.4146 31.4346 66.4192 33.1151 68.5594 34.6202Z" fill="white"/>
<path fill-rule="evenodd" clip-rule="evenodd" d="M58.3647 79.2334H59.9869C60.4097 79.2334 60.6953 79.0836 60.8995 78.8391C61.0639 78.6374 61.1715 78.3794 61.1715 78.0269V60.2999C61.1715 59.9474 61.0639 59.6895 60.8995 59.4877C60.6953 59.2422 60.4097 59.0938 59.9869 59.0938H58.3647C57.9419 59.0938 57.6559 59.2422 57.451 59.4877C57.2877 59.6895 57.1787 59.9474 57.1787 60.2999V78.0269C57.1787 78.3794 57.2877 78.6374 57.451 78.8391C57.6559 79.0836 57.9419 79.2334 58.3647 79.2334Z" fill="white"/>
<path fill-rule="evenodd" clip-rule="evenodd" d="M31.5261 16.7689C31.2957 16.6067 31.0101 16.5381 30.7505 16.5381C30.176 16.5381 29.9456 16.8771 29.8348 17.2296C29.7824 17.3928 29.7686 17.5533 29.7686 17.6904C29.7686 18.1772 29.9855 18.5152 30.3401 18.5152C30.8321 18.5152 31.8118 17.8391 31.8118 17.2558C31.8118 17.0808 31.7321 16.9042 31.5261 16.7689Z" fill="white"/>
<path fill-rule="evenodd" clip-rule="evenodd" d="M12.9609 33.8884L13.0591 34.4698C13.0991 34.715 13.1942 34.917 13.3974 35.0117C13.6442 35.1351 13.9981 35.1478 14.6123 35.1478C16.1656 35.1478 17.298 34.9585 17.9512 34.7961C19.6269 37.2728 21.9306 38.222 24.1534 38.222C26.049 38.222 27.9685 37.5315 29.8085 36.5289L29.4663 35.2954C27.6703 36.3001 25.802 36.9628 24.1534 36.9628C22.3127 36.9628 20.6769 36.1763 19.3138 34.1307C18.7424 33.2663 18.2932 32.1819 17.745 31.2197C17.0919 30.0811 16.3824 29.4717 15.1441 29.4717C14.0115 29.4717 12.9075 29.9342 11.7363 30.4345L11.7888 30.6925C11.8839 31.1117 12.0484 31.409 12.4449 31.409C12.6219 31.409 12.7996 31.3279 12.8947 31.302C13.5489 31.0989 14.0253 30.9225 14.693 30.9225C15.7157 30.9225 16.2054 31.5171 16.9004 32.9814L17.16 33.5235C16.4505 33.7645 14.7884 33.8884 13.5489 33.8884H12.9609Z" fill="white"/>
<path fill-rule="evenodd" clip-rule="evenodd" d="M66.5274 70.1315C66.7054 68.4662 67.9874 67.2204 69.9355 67.2204C71.8443 67.2204 73.1675 68.4662 73.3441 70.1315H66.5274ZM76.9421 72.7179C77.1743 72.5026 77.2833 72.1895 77.2833 71.609C77.2833 69.8338 76.7253 67.9911 75.5523 66.5848C74.3517 65.1622 72.4992 64.2002 69.9225 64.2002C65.1925 64.2002 62.5342 67.8704 62.5342 71.7433C62.5342 75.8743 65.3841 79.5047 69.9485 79.5047C72.2269 79.5047 74.4606 78.6501 75.7428 77.1482C76.3016 76.496 76.7515 75.5891 76.7515 75.0347C76.7515 74.8446 76.7096 74.6825 76.6009 74.5618C76.4921 74.4253 76.3277 74.3435 76.043 74.3435H73.8491C73.4118 74.3435 73.1123 74.5053 72.8937 74.8323C72.2532 75.7657 71.3279 76.2546 69.964 76.2546C67.9192 76.2546 66.5962 74.7093 66.5011 73.015H76.0158C76.4368 73.015 76.7389 72.9208 76.9421 72.7179Z" fill="white"/>
<path fill-rule="evenodd" clip-rule="evenodd" d="M66.1326 1.76172C65.2754 3.4154 61.8937 8.70986 60.0684 10.9035L61.1161 12.0288C62.0981 10.9459 63.1749 9.10313 64.3481 7.2884H64.5666C64.5666 7.38304 64.5512 7.49117 64.5512 7.58595C64.5512 9.1169 65.3424 10.2544 67.2921 10.2544C68.4907 10.2544 70.3724 9.65758 72.1445 9.06263C73.616 8.56136 74.9651 8.04658 75.6329 7.85731V6.23172C74.87 6.46258 73.3169 7.05672 71.7091 7.61186C70.0178 8.19522 68.3556 8.72458 67.3876 8.72458C66.3242 8.72458 66.0247 8.14122 66.0247 7.31431C66.0247 5.60786 67.1017 3.15754 67.7821 1.76172H66.1326Z" fill="white"/>
<path fill-rule="evenodd" clip-rule="evenodd" d="M52.802 7.26219C51.4266 5.94778 50.3768 4.4565 49.7098 3.73882C48.2218 2.12687 46.3011 0.13623 43.1392 0.13623C40.0852 0.13623 38.0691 2.11446 37.4149 3.82091C37.2218 4.30964 37.074 4.9035 36.9369 5.12087C36.6373 5.60782 35.2883 7.89778 34.7295 8.80459H37.2508L36.0243 11.109C37.4548 10.7951 38.4765 10.5644 39.8401 10.5644C41.0534 10.5644 41.927 10.851 42.3082 11.6086C43.0177 13.0177 43.0177 17.2816 44.2162 20.493C45.3321 23.5133 48.0603 26.4667 51.127 28.7268L51.2633 28.7693C51.413 28.7693 51.508 28.6591 51.508 28.5511C51.508 28.47 51.4818 28.4168 51.413 28.3482C48.8496 25.8033 46.7638 22.9861 45.648 19.8981C44.5436 16.8915 44.7207 12.666 43.7526 10.7827C43.1128 9.53687 41.7502 9.21123 40.4952 9.21123C39.4874 9.21123 38.5456 9.41496 38.109 9.50946L39.2142 7.65328H37.3461C37.7407 6.96178 38.152 6.32646 38.3551 5.94778C38.5318 5.62119 38.6009 5.21564 38.8177 4.66214C39.5272 2.88709 41.0941 1.76169 43.1392 1.76169C45.7023 1.76169 47.201 3.39996 48.6874 5.04069C49.3677 5.79709 50.4877 7.38287 51.7812 8.56119C52.6668 9.3735 54.3551 10.2802 56.9589 12.949C58.4599 14.4925 60.2038 16.4984 62.0454 19.1805C68.6289 28.7568 72.9494 37.1943 75.3601 43.7746L75.3203 43.8015C68.4082 39.1425 62.4266 34.7411 57.6016 29.3114C54.181 25.4508 51.2087 20.9819 48.6184 15.2778C48.4422 14.8999 48.2907 14.5477 48.1266 14.1825C48.0603 14.0328 47.9914 13.9931 47.8835 13.9931C47.7453 13.9931 47.6502 14.0869 47.6502 14.222C47.6502 14.3715 47.7194 14.6974 47.867 15.3462C49.2462 21.2523 53.0614 26.5478 57.1369 30.9492C61.1989 35.3245 65.7927 39.0893 69.5677 41.8235L72.513 50.1956C72.5819 50.3982 72.6606 50.6136 72.6606 50.8184C72.6606 50.9662 72.6217 51.0897 72.5265 51.1709C72.444 51.2501 72.335 51.2926 72.0893 51.2926H71.2029C70.8218 51.2926 70.672 51.2366 70.5367 51.1294C70.399 51.0211 70.3034 50.8581 70.2376 50.6686C69.9781 49.8835 68.4218 45.481 68.1235 44.5878C68.0698 44.4246 67.9728 44.3714 67.864 44.3714C67.7289 44.3714 67.6336 44.4798 67.6336 44.6005C67.6336 44.7083 67.6733 44.8313 67.7424 45.2099C68.1369 47.2137 68.5997 49.4641 68.7902 50.3161C68.8737 50.7112 68.9692 51.0764 68.9692 51.3468C68.9692 51.5898 68.9145 51.7252 68.7106 51.9282L67.7948 52.8494C67.5782 53.0669 67.4568 53.1198 67.2788 53.1198C67.06 53.1198 66.8823 52.9722 66.8004 52.5935C65.7654 47.7845 64.1984 41.8236 63.7894 40.1727C63.694 39.8069 63.6249 39.6022 63.4084 39.6022C63.2169 39.6022 63.1479 39.7394 63.1479 39.9016C63.1479 40.0233 63.1751 40.1727 63.1905 40.2803C63.4345 41.9866 64.4289 48.2059 65.5068 53.8792C65.6973 54.8546 66.0647 55.3964 66.9113 55.3964C67.2922 55.3964 67.6607 55.2469 68.0011 54.9201C68.5597 54.3659 68.724 54.2183 69.391 53.5662C69.8691 53.1065 70.1949 52.9163 71.0123 52.9163H73.031C73.5072 52.9163 73.7668 52.7954 73.9971 52.5781C74.216 52.3752 74.3518 52.0913 74.3518 51.6847C74.3518 51.2666 74.2443 50.9266 74.0926 50.5056C73.5763 49.1254 71.9122 44.4533 71.4233 43.1392L71.4624 43.1118C73.1672 44.3985 75.6477 46.0366 76.7392 46.0366C77.0776 46.0366 77.2836 45.8888 77.2836 45.3607C77.2836 42.8675 73.1126 32.6161 63.5851 18.5025C58.5153 10.9855 54.0567 8.45305 52.802 7.26219Z" fill="white"/>
<path fill-rule="evenodd" clip-rule="evenodd" d="M71.0259 13.6407C72.6607 12.9492 75.5932 11.7845 77.2837 11.1749V9.52344C73.8893 10.7693 67.9331 13.2196 63.8711 15.415C63.9798 15.5492 64.6885 16.5383 64.7701 16.6618C66.4886 15.9568 68.0282 15.4971 69.4171 15.4971C71.3671 15.4971 72.963 15.4971 75.633 14.8742V13.6284C74.1341 13.8987 72.5392 14.2223 71.505 14.2223C70.8908 14.2223 70.713 14.1408 70.713 13.9385C70.713 13.8177 70.7955 13.7354 71.0259 13.6407Z" fill="white"/>
<path fill-rule="evenodd" clip-rule="evenodd" d="M31.9615 6.4074C31.0361 6.4074 30.4228 6.39363 29.6179 6.02872C28.5275 5.52663 27.9684 5.31104 27.0006 5.31104C25.8156 5.31104 24.7387 5.73117 23.8522 6.54144C22.8305 7.47758 22.5155 8.72435 22.1483 10.091C21.8624 11.1488 21.5214 12.3125 20.7593 13.3825C20.1178 14.2894 19.656 14.7369 18.1951 16.4434C16.2744 18.7044 15.2654 20.5347 13.5879 24.5976C13.861 24.5698 14.2576 24.5436 14.6929 24.5436C14.9117 24.5436 15.0884 24.5436 15.3744 24.5571L15.5775 24.1227C16.5195 22.1174 17.787 19.4094 19.5599 17.3243L20.1721 16.6064C21.9997 14.4786 23.1299 13.2192 23.8397 10.3219C24.0855 9.29231 24.2886 8.37185 24.9845 7.70844C25.6115 7.11226 26.4036 6.8544 27.2056 6.8544C27.8869 6.8544 28.3924 7.01776 29.1283 7.32785C29.795 7.61163 30.0417 7.66685 30.7505 7.66685C30.9934 7.66685 31.1711 7.65322 31.3355 7.63958L30.382 8.91363L31.6767 9.82031C30.0543 10.2938 29.1951 11.8527 28.9084 12.5712C28.855 12.7198 28.8269 12.8147 28.8269 12.9092C28.8269 13.0176 28.8822 13.1247 29.0454 13.1247C29.2234 13.1247 29.3596 12.9902 29.5909 12.7198C30.382 11.7704 31.01 11.1216 33.9258 10.2137L31.8661 8.66844L33.4205 6.4074H31.9615Z" fill="white"/>
<path fill-rule="evenodd" clip-rule="evenodd" d="M6.39264 11.364C3.05373 11.364 1.63583 12.9615 1.63583 14.0326C0.640334 14.4391 0 15.5365 0 16.5514C0 18.57 1.48405 20.0063 3.44759 20.0063C4.10179 20.0063 4.77039 19.7485 5.23411 19.3969C5.57431 19.5175 6.00962 19.5852 6.45878 19.5852C7.40062 19.5852 8.44936 19.2596 9.187 18.1915C9.29623 18.2051 9.39134 18.2051 9.5003 18.2051C10.6986 18.2051 11.7358 17.4188 12.2801 16.3882C12.4161 16.1335 12.4707 15.9285 12.4707 15.7807C12.4707 15.631 12.4025 15.5093 12.2538 15.5093C12.0633 15.5093 12.0341 15.6862 11.6929 15.9961C10.931 16.6876 9.75858 16.9456 8.55929 16.9456C7.97316 17.7974 7.2509 18.2456 6.41898 18.2456C5.80569 18.2456 5.32921 18.0822 4.8375 17.7578C4.44199 18.1915 3.95111 18.3683 3.47463 18.3683C2.39666 18.3683 1.63583 17.6216 1.63583 16.5379C1.63583 15.7807 2.12548 15.1028 2.80795 14.8448C2.9294 13.5044 4.37392 12.5975 6.17389 12.5975C6.40622 12.5975 6.6365 12.6098 6.88256 12.638C7.15579 12.2052 7.80889 11.7446 8.73714 11.622C8.92776 11.5958 9.07625 11.5814 9.187 11.5274C9.29623 11.4731 9.34866 11.364 9.34866 11.2433C9.34866 11.135 9.30886 11.0403 9.20086 10.972C9.10575 10.917 8.94121 10.8905 8.75073 10.851C7.89055 10.688 6.8698 10.1595 6.35092 8.87305C4.29199 8.87305 2.78091 7.23314 2.78091 5.39223V5.26869C2.09845 4.99814 1.63583 4.34823 1.63583 3.5775C1.63583 2.56132 2.43961 1.74805 3.46118 1.74805C4.07544 1.74805 4.60612 2.04573 4.94839 2.49287C5.23411 2.41064 5.55963 2.38473 5.87375 2.38473C7.40062 2.38473 9.03631 3.34664 9.34866 5.21564C11.3121 5.39223 11.7747 7.04373 11.9 7.73428C11.9663 8.08705 12.0216 8.38432 12.2538 8.38432C12.4976 8.38432 12.5522 8.11391 12.6349 7.749C12.7836 7.05655 13.042 6.50196 13.5612 6.06846C13.5612 4.29614 14.8976 2.76437 16.7921 2.76437C17.0778 2.14037 17.7047 1.7085 18.4543 1.7085C19.4776 1.7085 20.295 2.49287 20.295 3.537C20.295 4.14641 20.0094 4.67482 19.5594 4.99814C19.6556 5.34996 19.7218 5.66359 19.7218 5.96019C19.7218 7.09896 19.0404 7.89778 17.7865 8.31587C17.6221 9.00846 17.3239 9.63137 16.832 10.091C16.0144 10.8773 15.1834 10.8773 15.1834 11.2027C15.1834 11.3786 15.3049 11.4878 15.6461 11.4878C17.1595 11.4878 18.6448 10.6455 18.8215 9.25173C20.267 8.76396 21.1397 7.31414 21.1397 6.16282C21.1397 5.86569 21.1137 5.60769 20.989 5.36319C21.3857 4.98573 21.8485 4.33582 21.8485 3.3735C21.8485 2.53446 21.4799 1.68069 20.8271 1.05669C20.2535 0.502367 19.4487 0.13623 18.5094 0.13623C17.1468 0.13623 16.2605 0.867276 15.755 1.58591C14.2696 1.58591 12.3491 3.22596 12.3491 5.56896H12.143C12.007 4.75678 11.1614 4.215 10.4546 4.17232C9.88099 2.46669 8.58742 1.0035 6.45878 1.0035C6.2156 1.0035 5.91451 1.017 5.655 1.05669C5.02812 0.488731 4.33413 0.13623 3.36498 0.13623C1.51122 0.13623 0 1.61209 0 3.48082C0 4.64564 0.531507 5.44446 1.54045 6.15041L1.52687 6.36873C1.52687 7.85714 3.1627 10.1858 5.58776 10.1858C5.58776 10.5642 6.06396 11.08 6.5967 11.1746V11.364H6.39264Z" fill="white"/>
<path fill-rule="evenodd" clip-rule="evenodd" d="M40.4659 76.4013C39.8262 76.4013 39.1594 76.2803 38.6132 76.0089C38.2323 75.8197 37.9046 75.5502 37.6713 75.1842C37.4683 74.8714 37.3991 74.6426 37.0872 74.4665C36.8966 74.3565 36.6644 74.343 36.3515 74.343H34.6601C34.2928 74.343 34.1158 74.4513 33.9943 74.6007C33.87 74.7496 33.8301 74.966 33.8301 75.1842C33.8301 75.7249 34.0204 76.4013 34.4696 77.0118C35.5047 78.3919 37.6713 79.5043 40.4395 79.5043C43.1649 79.5043 46.9414 78.3792 46.9414 74.7496C46.9414 73.8136 46.668 73.0147 46.1656 72.3649C45.5231 71.54 44.6105 70.9722 43.0571 70.5781L39.9633 69.792C38.6821 69.4673 38.0825 69.2364 38.0825 68.4533C38.0825 67.6932 38.7649 67.0827 40.3442 67.0827C41.2708 67.0827 42.1174 67.2864 42.6625 67.8563C43.1126 68.3298 43.03 68.5741 43.3836 68.7633C43.6025 68.8715 43.8473 68.8715 44.2284 68.8715H45.769C46.0151 68.8715 46.1928 68.832 46.327 68.6823C46.4379 68.5606 46.5039 68.3712 46.5039 68.0591C46.5039 67.3543 46.0421 66.4471 45.2237 65.7559C44.1332 64.8217 42.4156 64.1997 40.3442 64.1997C36.6098 64.1997 34.1586 65.9606 34.1586 68.7768C34.1586 69.7792 34.525 70.5908 35.1236 71.2272C35.8197 71.9738 36.8149 72.4886 38.2593 72.8546L41.3814 73.6378C42.2385 73.8562 43.0036 74.1142 43.0036 74.8578C43.0036 76.0089 41.7759 76.4013 40.4659 76.4013Z" fill="white"/>
<path fill-rule="evenodd" clip-rule="evenodd" d="M11.9258 11.5533C12.6468 12.5976 13.8601 14.6159 15.0061 17.298C15.2092 16.9581 15.8235 16.1333 16.0693 15.8755C15.0186 13.7623 13.301 11.7445 12.5517 10.9458L11.9258 11.5533Z" fill="white"/>
<path fill-rule="evenodd" clip-rule="evenodd" d="M31.3765 29.9064C32.5489 29.3511 34.443 29.0807 35.383 29.0807C36.2432 29.0807 37.1267 29.1751 37.9442 29.2825C38.8725 29.4062 39.9495 29.5402 41.0791 29.5402C43.643 29.5402 46.1518 28.1863 46.5465 27.9419C46.2324 27.6706 45.8378 27.292 45.6046 27.0088C44.7871 27.3606 42.9083 28.0366 41.0402 28.0366C40.1117 28.0366 39.3361 27.9573 38.4759 27.8472C37.4144 27.7131 36.4046 27.5893 35.5464 27.5893C34.1155 27.5893 32.3426 27.7265 30.625 28.9297L31.3765 29.9064Z" fill="white"/>
<path fill-rule="evenodd" clip-rule="evenodd" d="M28.9768 28.8643L28.1865 27.8472C25.1325 29.012 21.7393 30.8945 21.7393 32.8193C21.7393 33.9153 22.5576 34.783 24.3958 34.783C27.095 34.783 29.9722 33.4288 32.2766 32.1693L31.9482 31.7222C31.7587 31.4488 31.5942 31.3705 31.3349 31.3705C31.1704 31.3705 30.9927 31.435 30.8449 31.5039C28.8688 32.4657 26.7277 33.4288 24.738 33.4288C23.5919 33.4288 23.3062 33.0773 23.3062 32.5876C23.3062 31.2073 27.095 29.6079 28.9768 28.8643Z" fill="white"/>
<path fill-rule="evenodd" clip-rule="evenodd" d="M55.2149 67.4907C55.5006 67.4907 55.7205 67.4096 55.8819 67.2723C56.0596 67.1121 56.1412 66.8937 56.1412 66.568V65.6346C56.1412 65.3088 56.0596 65.0933 55.8819 64.9302C55.7205 64.7961 55.5006 64.7151 55.2149 64.7151H52.7489V60.3C52.7489 59.9475 52.6382 59.6895 52.4758 59.4858C52.2708 59.2424 51.984 59.0938 51.5621 59.0938H50.0214C49.6005 59.0938 49.3149 59.2424 49.108 59.4858C48.9463 59.6895 48.8359 59.9475 48.8359 60.3V64.7151H48.0738C47.7878 64.7151 47.5682 64.7961 47.405 64.9302C47.2271 65.0933 47.1475 65.3088 47.1475 65.6346V66.568C47.1475 66.8937 47.2271 67.1121 47.405 67.2723C47.5682 67.4096 47.7878 67.4907 48.0738 67.4907H48.8359V74.2485C48.8359 75.9814 49.3149 77.0667 50.1994 77.9324C51.0158 78.732 52.0803 79.2334 53.934 79.2334H55.0935C55.379 79.2334 55.596 79.1522 55.7603 79.0148C55.9383 78.8546 56.0461 78.6374 56.0461 78.313V77.1337C56.0461 76.809 55.9383 76.5906 55.7603 76.4305C55.596 76.2944 55.379 76.2123 55.0935 76.2123H54.9303C54.1936 76.2123 53.6889 76.0229 53.3466 75.6974C52.9396 75.3187 52.7336 74.7374 52.7336 73.9772V67.4907H55.2149Z" fill="white"/>
<path fill-rule="evenodd" clip-rule="evenodd" d="M75.935 62.1275C76.2206 62.1275 76.4374 62.0454 76.6015 61.91C76.7794 61.7489 76.8609 61.5305 76.8609 61.207V59.9476C76.8609 59.4588 76.7659 59.2146 76.6015 59.0387C76.4539 58.8783 76.2067 58.7837 75.935 58.7837C75.7149 58.7837 75.4983 58.8097 75.1301 58.8483L64.2522 59.9185C63.9403 59.9476 63.7898 60.0421 63.6807 60.164C63.5563 60.3001 63.5039 60.4739 63.5039 60.7172V61.4234C63.5039 61.6938 63.5563 61.8145 63.6546 61.9247C63.7759 62.0598 63.9539 62.1275 64.1987 62.1275H75.935Z" fill="white"/>
<path fill-rule="evenodd" clip-rule="evenodd" d="M55.9383 33.7646C53.8933 38.0462 50.7846 41.1622 47.5957 42.9624C46.0831 43.8172 44.7206 44.3716 41.7761 44.3716H35.4098C33.1342 44.3716 31.7024 44.6692 30.5868 44.9529C29.3871 45.266 28.622 45.5761 27.4111 45.5761C25.6111 45.5761 23.9467 44.6953 23.142 43.8558L24.6428 42.6785L23.8945 41.6897C23.4571 42.0006 18.1284 45.9151 17.0089 46.796L16.9427 46.7541C16.9688 46.4837 16.9688 46.2407 16.9688 45.9971C16.9688 43.0175 15.577 42.3001 13.4659 41.4587L12.034 42.3001C14.9373 43.2601 15.6596 44.0324 15.6596 46.1864C15.6596 47.8919 15.0481 48.5701 14.1617 49.0828C13.2481 49.6121 12.1166 49.8566 11.1214 49.8566C10.6986 49.8566 10.5071 49.9387 10.3593 50.0875C10.1951 50.2487 10.1133 50.4929 10.1133 50.8321V51.3052H10.4544C12.2801 51.3052 13.9711 51.0213 15.824 49.5726L21.8619 44.8844C22.7211 45.8602 24.8889 47.2138 27.4499 47.2138C28.8954 47.2138 29.8208 46.8643 31.1572 46.5256C32.1942 46.2676 33.2022 46.0368 35.4098 46.0368H41.8024C45.0752 46.0368 46.6555 45.3609 48.3994 44.3852C52.1902 42.271 55.4192 38.6953 57.2475 34.5937C56.7683 34.294 56.3193 34.0229 55.9383 33.7646Z" fill="white"/>
<path fill-rule="evenodd" clip-rule="evenodd" d="M0.053384 47.012H0.545094C1.56666 47.012 1.68812 46.4015 1.68812 45.8204C1.68812 45.4291 1.67563 44.981 1.67563 44.4929C1.68812 43.3701 1.73093 42.3665 3.55642 41.5532C4.29199 41.2298 7.90413 39.7653 10.5898 38.6288C11.3808 38.2898 12.1167 38.0065 12.9343 38.0065C13.8479 38.0065 14.8976 38.3988 16.2049 39.1715C17.311 39.8215 18.4696 40.7015 19.3825 41.7164L20.5391 40.8355C19.5438 39.6708 18.1673 38.6288 16.7921 37.8173C15.4158 37.0051 14.1881 36.529 13.1537 36.529C12.7039 36.529 12.3335 36.61 12.0214 36.6912C11.653 36.7868 11.3121 36.8939 10.8754 36.8939C10.373 36.8939 9.94919 36.7733 9.33603 36.0683C9.10562 35.8113 7.6309 34.1461 7.31993 33.6586C7.16828 33.4287 6.89615 32.966 6.89615 32.4249C6.89615 32.1951 6.93691 31.9239 7.07304 31.6803C8.34067 32.6558 9.90926 33.253 11.8175 33.4818L11.5579 32.1951C8.8188 31.4777 5.90093 29.0806 5.90093 27.536C5.90093 27.2097 5.98244 26.9818 6.10499 26.695C7.16828 27.6704 9.66347 28.6883 11.0126 28.6883C11.7485 28.6883 12.3491 28.4431 12.9206 28.2122C13.466 27.9968 14.011 27.7816 14.747 27.7816C16.4928 27.7816 18.6448 28.6197 20.5391 29.4183C20.6499 29.459 20.7715 29.488 20.8929 29.488C21.1952 29.488 21.4257 29.351 21.5754 29.0669L21.8221 28.6197C19.7373 27.4154 16.4111 26.1268 14.678 26.1268C13.8888 26.1268 13.3154 26.3298 12.7707 26.5479C12.1565 26.7914 11.6269 27.0482 11.066 27.0482C9.68955 27.0482 6.15934 25.6941 6.15934 24.3808C6.15934 22.8355 11.7747 22.2414 12.3891 22.2414L12.9468 20.9819C8.87218 20.9819 4.01917 22.4037 4.01917 24.2859C4.01917 24.8278 4.33399 25.0982 4.33399 25.5985C4.33399 26.2765 4.01917 26.7373 4.01917 27.4945C4.01917 27.9968 4.3215 28.6323 4.67337 29.1876C5.05611 29.7711 5.5072 30.1495 5.5072 30.6393C5.5072 31.0044 5.26032 31.4349 5.26032 32.2899C5.26032 34.1173 6.31098 35.2299 8.35412 37.4088L8.76349 37.8434C7.07304 38.4935 3.9238 39.8474 3.18795 40.1596C0.640334 41.2141 0 42.5024 0 44.5348C0 45.3189 0 46.2123 0.053384 47.012Z" fill="white"/>
<path fill-rule="evenodd" clip-rule="evenodd" d="M17.7187 4.82258C17.7187 4.71458 17.6223 4.60645 17.4883 4.60645C17.3639 4.60645 17.2978 4.6884 17.1734 4.7829C16.6543 5.22922 16.1915 5.67649 15.7016 6.23176C15.0069 7.0044 14.4215 8.03217 13.9434 9.15745L14.6782 9.60444C15.1835 8.85894 16.805 6.31195 17.637 5.02658C17.6914 4.9464 17.7187 4.87781 17.7187 4.82258Z" fill="white"/>
<path fill-rule="evenodd" clip-rule="evenodd" d="M0 77.8501C0 78.2973 0.108689 78.5551 0.29917 78.7858C0.531507 79.0574 0.857027 79.2335 1.37618 79.2335H2.64368C3.1627 79.2335 3.48835 79.0574 3.72069 78.7858C3.91117 78.5551 4.01917 78.2973 4.01917 77.8501V65.2566H4.08806C4.08806 65.2566 11.1216 77.6346 11.4072 78.0954C11.8038 78.7443 12.4707 79.2335 13.4249 79.2335H15.5936C16.1098 79.2335 16.4372 79.0574 16.6684 78.7858C16.8613 78.5551 16.9689 78.2973 16.9689 77.8501V62.1273H45.4435C45.7295 62.1273 45.9473 62.0454 46.1105 61.9098C46.2875 61.7488 46.3701 61.5303 46.3701 61.2069V60.0132C46.3701 59.6894 46.2875 59.4713 46.1105 59.3109C45.9473 59.1738 45.7295 59.0937 45.4435 59.0937H14.3661C13.8479 59.0937 13.5213 59.2683 13.2891 59.5398C13.0986 59.7715 12.9896 60.0267 12.9896 60.4738V72.7737H12.9206C12.9206 72.7737 6.14685 60.7734 5.81913 60.2188C5.58776 59.8239 5.32921 59.5535 4.98818 59.3504C4.64702 59.1612 4.29199 59.0386 3.61186 59.0386H1.37618C0.857027 59.0386 0.531507 59.2145 0.29917 59.4857C0.108689 59.7166 0 59.9746 0 60.4206V77.8501Z" fill="white"/>
<path fill-rule="evenodd" clip-rule="evenodd" d="M22.3252 70.1315C22.5032 68.4662 23.7833 67.2204 25.7332 67.2204C27.6421 67.2204 28.9649 68.4662 29.141 70.1315H22.3252ZM32.7106 72.7179C32.944 72.5026 33.0527 72.1895 33.0527 71.609C33.0527 69.8338 32.494 67.9911 31.3219 66.5848C30.1235 65.1622 28.2949 64.2002 25.72 64.2002C20.9893 64.2002 18.332 67.8704 18.332 71.7433C18.332 75.8743 21.1817 79.5047 25.7464 79.5047C28.0247 79.5047 30.2584 78.6501 31.5385 77.1482C32.0993 76.496 32.5495 75.5891 32.5495 75.0347C32.5495 74.8446 32.5075 74.6825 32.3985 74.5618C32.29 74.4253 32.1256 74.3435 31.8397 74.3435H29.644C29.2096 74.3435 28.9082 74.5053 28.6914 74.8323C28.0511 75.7657 27.1226 76.2546 25.76 76.2546C23.7168 76.2546 22.3939 74.7093 22.2985 73.015H31.7852C32.208 73.015 32.5075 72.9208 32.7106 72.7179Z" fill="white"/>
<path fill-rule="evenodd" clip-rule="evenodd" d="M4.86523 15.7806C4.86523 15.8754 4.93234 15.996 5.08302 15.996C5.1784 15.996 5.26006 15.9565 5.43805 15.8887L10.4253 14.2091L10.1811 13.396C8.14952 13.735 6.67796 14.2496 5.00041 15.5488C4.90503 15.6309 4.86523 15.6861 4.86523 15.7806Z" fill="white"/>
<path fill-rule="evenodd" clip-rule="evenodd" d="M7.89015 6.11108C7.12809 5.5269 6.26886 5.0544 5.25992 4.64599L5.08289 4.60645C4.9322 4.60645 4.86523 4.71458 4.86523 4.80922C4.86523 4.89117 4.89145 4.95895 5.01509 5.06708C6.19984 6.06867 8.49164 7.97981 9.20046 8.5614L9.77108 7.91149C9.15764 7.19367 8.5298 6.59695 7.89015 6.11108Z" fill="white"/>
<path fill-rule="evenodd" clip-rule="evenodd" d="M83.1118 79.2338C81.7566 79.2339 80.6486 78.134 80.6484 76.7873C80.6484 75.4415 81.7562 74.3414 83.1114 74.3413C84.4652 74.3413 85.5589 75.4412 85.5591 76.787C85.5591 78.1336 84.4655 79.2336 83.1118 79.2338ZM83.1116 74.8062C82.0162 74.8063 81.1173 75.6996 81.1173 76.7873C81.1174 77.8742 82.0164 78.781 83.1118 78.781C84.2059 78.7809 85.1038 77.8739 85.1037 76.787C85.1037 75.6994 84.2056 74.8062 83.1116 74.8062ZM83.5804 78.0939C83.45 77.7188 83.631 77.0068 83.0984 77.0068L82.6797 77.0069V78.094H82.0808L82.0807 75.4543H83.2671C83.7483 75.4543 84.1659 75.5444 84.1661 76.1268C84.1661 76.5151 83.931 76.6968 83.5672 76.7611C84.2842 76.8643 84.0227 77.5768 84.2299 78.0939H83.5804ZM83.0331 75.8679H82.6799V76.6058H83.0587C83.3316 76.6058 83.5542 76.5673 83.5542 76.2309C83.5542 75.907 83.306 75.8679 83.0331 75.8679Z" fill="white"/>
</svg>
