<?xml version="1.0" encoding="UTF-8"?>
<svg width="52px" height="47px" viewBox="0 0 52 47" version="1.1" xmlns="http://www.w3.org/2000/svg" xmlns:xlink="http://www.w3.org/1999/xlink">
    <!-- Generator: Sketch 54.1 (76490) - https://sketchapp.com -->
    <title>Artboard</title>
    <desc>Created with Sketch.</desc>
    <defs>
        <polygon id="path-1" points="0 0.035 37.5366854 0.035 37.5366854 38.58031 0 38.58031"></polygon>
        <polygon id="path-3" points="0.00349889942 0.06033 23.4458372 0.06033 23.4458372 24.5 0.00349889942 24.5"></polygon>
    </defs>
    <g id="Artboard" stroke="none" stroke-width="1" fill="none" fill-rule="evenodd">
        <g id="Group-19" transform="translate(4.000000, 4.000000)">
            <g id="Group-3">
                <mask id="mask-2" fill="white">
                    <use xlink:href="#path-1"></use>
                </mask>
                <g id="Clip-2"></g>
                <path d="M17.55186,32.73491 L17.54936,32.73491 L13.08276,32.74251 L13.08226,32.74251 C13.00586,32.74251 12.93406,32.71291 12.87996,32.65901 C12.82576,32.60491 12.79576,32.53301 12.79566,32.45651 L12.77926,22.89081 C12.80226,22.54591 12.82036,22.16061 12.83956,21.75301 C12.95756,19.24391 13.13586,15.45221 14.91506,13.94681 C15.57226,13.39081 16.38886,13.18021 17.41246,13.30291 C20.77206,13.70581 23.44726,13.64441 25.83166,13.10941 C29.00366,12.39781 31.73886,10.81551 33.96146,8.40641 C35.79406,6.42001 36.88686,4.28731 37.48086,2.84801 C37.59266,2.57681 37.53356,2.26601 37.33026,2.05591 C37.12916,1.84821 36.83616,1.78241 36.56566,1.88381 C35.78476,2.17681 34.21396,2.35221 31.16296,1.52361 C26.51626,0.26151 24.39516,-0.31459 21.77946,0.25501 C18.81676,0.89991 17.09056,2.49781 16.18226,5.43611 C16.10206,5.69551 16.18986,5.97001 16.40596,6.13521 C16.62386,6.30171 16.91416,6.31471 17.14546,6.16791 C20.43036,4.08471 25.25456,4.55831 28.31756,5.17491 C22.69746,5.09671 18.93706,6.47341 16.71506,7.70841 C15.65716,8.25651 14.68066,8.95991 13.73006,9.85901 C13.39316,10.13951 13.06816,10.43641 12.75846,10.74601 L12.75266,7.37401 C12.75056,6.15391 12.27356,5.00781 11.40936,4.14661 C10.54706,3.28721 9.40246,2.81431 8.18546,2.81431 C8.18276,2.81431 8.17996,2.81431 8.17736,2.81431 L1.51316,2.82571 C0.67746,2.82721 -0.00134,3.50831 -4e-05,4.34401 L0.00506,7.29581 C0.00656,8.13071 0.68626,8.80891 1.52076,8.80891 L1.52336,8.80891 L5.08266,8.80281 L5.08306,8.80281 C5.15946,8.80281 5.23116,8.83251 5.28526,8.88631 C5.33946,8.94041 5.36946,9.01231 5.36956,9.08891 L5.40966,32.46921 C5.40976,32.54571 5.38016,32.61781 5.32606,32.67201 C5.27206,32.72621 5.20016,32.75611 5.12366,32.75621 L1.56456,32.76231 C0.72886,32.76381 0.04996,33.44491 0.05136,34.28071 L0.05626,37.06721 C0.05696,37.47211 0.21526,37.85241 0.50196,38.13821 C0.78806,38.42341 1.16796,38.58031 1.57196,38.58031 L1.57456,38.58031 L17.55926,38.55291 C18.39506,38.55151 19.07386,37.87041 19.07246,37.03461 L19.06756,34.24801 C19.06616,33.41311 18.38656,32.73491 17.55186,32.73491" id="Fill-1" fill="#007A33" mask="url(#mask-2)"></path>
            </g>
            <g id="Group-8" transform="translate(20.300000, 14.100000)">
                <mask id="mask-4" fill="white">
                    <use xlink:href="#path-3"></use>
                </mask>
                <g id="Clip-7"></g>
                <path d="M6.59492,9.94233 C7.19942,7.02083 9.16052,5.28643 11.89722,5.28183 C11.90182,5.28183 11.90592,5.28173 11.91052,5.28173 C14.91012,5.28173 16.87442,7.05093 17.10212,9.92433 L6.59492,9.94233 Z M11.96902,0.06033 L11.94072,0.06033 C8.51062,0.06623 5.42062,1.36433 3.23972,3.71553 C1.14712,5.97163 -0.00218,9.03953 0.00352,12.35413 C0.00962,15.92903 1.27172,18.98093 3.65302,21.18013 C6.00532,23.35233 9.23722,24.50003 13.00122,24.50003 L13.03312,24.50003 C16.30682,24.49433 19.15482,23.84493 21.49792,22.56983 C21.83092,22.38863 22.05062,22.04953 22.08542,21.66273 L22.36972,18.50783 C22.40702,18.09333 22.22612,17.70463 21.88542,17.46793 C21.54072,17.22853 21.10752,17.19443 20.72652,17.37673 C18.42362,18.47893 16.05062,19.06353 13.86392,19.06733 L13.84022,19.06733 C11.99252,19.06733 10.44272,18.69863 9.23372,17.97133 C7.95552,17.20243 7.09552,16.04583 6.67722,14.53333 L21.79622,14.50733 C22.59802,14.50583 23.26542,13.90923 23.34872,13.11943 C23.41222,12.51703 23.44672,11.89523 23.44582,11.36863 C23.44032,8.20683 22.39942,5.36613 20.51472,3.36973 C18.47052,1.20433 15.51612,0.06033 11.96902,0.06033 L11.96902,0.06033 Z" id="Fill-6" fill="#007A33" mask="url(#mask-4)"></path>
            </g>
        </g>
    </g>
</svg>