<?xml version="1.0" encoding="UTF-8"?>
<svg width="32px" height="23px" viewBox="0 0 32 23" version="1.1" xmlns="http://www.w3.org/2000/svg" xmlns:xlink="http://www.w3.org/1999/xlink">
    <!-- Generator: Sketch 54.1 (76490) - https://sketchapp.com -->
    <title>RE</title>
    <desc>Created with Sketch.</desc>
    <g id="UI" stroke="none" stroke-width="1" fill="none" fill-rule="evenodd">
        <g id="01-1-2-Menu-M" transform="translate(-163.000000, -470.000000)" fill="#FECF8D">
            <g id="Group-4" transform="translate(163.000000, 470.000000)">
                <g id="RE">
                    <path d="M10.1534428,19.5120502 L10.1519966,19.5120502 L7.56815306,19.5165852 L7.56786382,19.5165852 C7.52366787,19.5165852 7.48213293,19.4989228 7.4508371,19.4667607 C7.41948343,19.4344793 7.402129,19.3915765 7.40207115,19.345929 L7.39258406,13.6380765 C7.40588912,13.4322747 7.41635963,13.2023662 7.42746647,12.9591513 C7.49572723,11.4619715 7.5988704,9.19946441 8.6281039,8.30119234 C9.00828165,7.96942718 9.48066929,7.84376218 10.0728025,7.91697726 C12.0162675,8.15738766 13.56382,8.12075029 14.9431502,7.80151582 C16.7780921,7.37690416 18.3603535,6.43274586 19.6460855,4.99523607 C20.7062099,3.80995133 21.338374,2.5373694 21.6819918,1.67853919 C21.7466659,1.51671417 21.7124777,1.33125983 21.5948725,1.20589318 C21.47854,1.0819586 21.309045,1.04269575 21.1525659,1.10320112 C20.70083,1.2780342 19.792152,1.38269537 18.0272063,0.888269808 C15.3391784,0.13517483 14.1121622,-0.208583998 12.5990293,0.13129628 C10.8851634,0.516108063 9.88658944,1.46957488 9.3611551,3.22285827 C9.31476092,3.37764223 9.36555156,3.54143636 9.49056131,3.64001119 C9.61661233,3.73936173 9.78454539,3.74711883 9.91834805,3.65952328 C11.8186005,2.41647799 14.6093088,2.69907508 16.3811963,3.06700025 C13.1300749,3.02033832 10.9547547,3.84181511 9.66936981,4.57873952 C9.0573947,4.90579075 8.49250794,5.32550948 7.94260385,5.86200238 C7.74771358,6.02937671 7.55970724,6.20653692 7.38055165,6.39127522 L7.37719646,4.37920306 C7.37598165,3.65116948 7.10004619,2.96729169 6.60012286,2.45341372 C6.10129864,1.9406098 5.43916922,1.6584304 4.73515778,1.6584304 C4.73359588,1.6584304 4.73197613,1.6584304 4.73047208,1.6584304 L0.875358615,1.66523278 C0.391921995,1.66612783 -0.000750946998,2.07254015 1.07837751e-06,2.57120228 L0.00295133177,4.33254113 C0.00381905336,4.8307259 0.397012628,5.23540779 0.879755071,5.23540779 L0.881259122,5.23540779 L2.94024675,5.23176792 L2.94047814,5.23176792 C2.9846741,5.23176792 3.02615119,5.24948991 3.05744701,5.28159236 C3.08880069,5.31387383 3.10615512,5.35677655 3.10621297,5.40248377 L3.12941006,19.3535071 C3.1294679,19.3991546 3.11234487,19.4421767 3.08104904,19.4745178 C3.04981106,19.506859 3.00821827,19.5247003 2.96396447,19.52476 L0.905092541,19.5283998 C0.421655921,19.5292949 0.0289251313,19.9357072 0.0297350047,20.434429 L0.0325695619,22.0971333 C0.0329744987,22.3387371 0.12454805,22.5656621 0.290398569,22.736199 C0.455902,22.9063778 0.675666954,23 0.909373301,23 L0.910877352,23 L10.1577235,22.9836504 C10.641218,22.982815 11.0338909,22.5764027 11.0330811,22.0776809 L11.0302465,20.4149169 C11.0294366,19.9167321 10.6363009,19.5120502 10.1534428,19.5120502" id="Fill-1"></path>
                    <path d="M31.3691093,14.8177693 C30.9597636,14.3894718 30.3786049,14.1538462 29.7322092,14.1538462 L29.7277434,14.1538462 C28.3931304,14.1560913 27.426162,15.1498195 27.4285759,16.5166609 C27.4297226,17.1697127 27.6535562,17.7654533 28.0587982,18.1941052 C28.4719459,18.6312653 29.0534063,18.8718539 29.6965431,18.8717949 L29.7008279,18.8717949 C31.0569855,18.8695497 32.0024093,17.8978597 31.9999954,16.5089801 C31.9988488,15.8427527 31.7748341,15.2421082 31.3691093,14.8177693" id="Fill-4"></path>
                    <path d="M15.1240323,13.9794064 C15.4629423,12.2874682 16.5624238,11.2830192 18.0967417,11.2803552 C18.0993206,11.2803552 18.1016193,11.2802973 18.1041983,11.2802973 C19.7859098,11.2802973 20.8871853,12.3049001 21.0148443,13.968982 L15.1240323,13.9794064 Z M18.136996,8.25641026 L18.1211297,8.25641026 C16.1980604,8.25982714 14.4656665,9.01160019 13.2429552,10.3732586 C12.0697489,11.6798414 11.4253993,13.4565647 11.428595,15.3761602 C11.4320149,17.4465042 12.1396053,19.2139614 13.4746699,20.4875915 C14.7934758,21.745585 16.6054253,22.4102564 18.7156941,22.4102564 L18.7335786,22.4102564 C20.5689631,22.4069553 22.1656808,22.0308661 23.4793287,21.2924132 C23.6660236,21.1874742 23.7891974,20.9910901 23.8087078,20.7670813 L23.9680993,18.9399733 C23.9890114,18.6999226 23.8875906,18.4748134 23.6965788,18.3377325 C23.5033244,18.199088 23.2604528,18.1793396 23.046847,18.2849156 C21.755737,18.9232364 20.4253258,19.2617978 19.1993627,19.2639985 L19.1860754,19.2639985 C18.1501712,19.2639985 17.2812831,19.050472 16.603463,18.6292683 C15.8868462,18.1839726 15.4046913,17.514147 15.1701734,16.6382077 L23.6465692,16.6231502 C24.0960946,16.6222815 24.4702693,16.2767706 24.516971,15.819371 C24.552572,15.4705011 24.5719143,15.1103959 24.5714097,14.8054243 C24.5683261,12.9743204 23.9847505,11.3291762 22.9281023,10.1729943 C21.7820312,8.91893885 20.1256609,8.25641026 18.136996,8.25641026 L18.136996,8.25641026 Z" id="Fill-6"></path>
                </g>
            </g>
        </g>
    </g>
</svg>