<?xml version="1.0" encoding="UTF-8"?>
<svg width="32px" height="24px" viewBox="0 0 32 24" version="1.1" xmlns="http://www.w3.org/2000/svg" xmlns:xlink="http://www.w3.org/1999/xlink">
    <!-- Generator: Sketch 54.1 (76490) - https://sketchapp.com -->
    <title>RE</title>
    <desc>Created with Sketch.</desc>
    <g id="UI" stroke="none" stroke-width="1" fill="none" fill-rule="evenodd" opacity="0.799999952">
        <g id="reSVG" transform="translate(-1192.000000, -16.000000)" fill="#FFFFFF">
            <g id="Comp/MENU">
                <g id="Group" transform="translate(1192.000000, 16.266667)">
                    <g id="RE">
                        <path d="M10.1534428,19.8372511 L10.1519966,19.8372511 L7.56815306,19.8418616 L7.56786382,19.8418616 C7.52366787,19.8418616 7.48213293,19.8239049 7.4508371,19.7912067 C7.41948343,19.7583872 7.402129,19.7147695 7.40207115,19.6683611 L7.39258406,13.8653778 C7.40588912,13.6561459 7.41635963,13.4224056 7.42746647,13.1751372 C7.49572723,11.6530044 7.5988704,9.35278882 8.6281039,8.43954555 C9.00828165,8.10225097 9.48066929,7.97449155 10.0728025,8.04892688 C12.0162675,8.29334412 13.56382,8.25609612 14.9431502,7.93154109 C16.7780921,7.49985256 18.3603535,6.53995829 19.6460855,5.07849 C20.7062099,3.87345052 21.338374,2.57965889 21.6819918,1.70651484 C21.7466659,1.54199274 21.7124777,1.3534475 21.5948725,1.2259914 C21.47854,1.09999125 21.309045,1.06007401 21.1525659,1.12158781 C20.70083,1.29933477 19.792152,1.40574029 18.0272063,0.903074305 C15.3391784,0.137427743 14.1121622,-0.212060398 12.5990293,0.133484551 C10.8851634,0.524709864 9.88658944,1.49406779 9.3611551,3.27657258 C9.31476092,3.43393627 9.36555156,3.6004603 9.49056131,3.70067805 C9.61661233,3.80168443 9.78454539,3.80957081 9.91834805,3.72051533 C11.8186005,2.45675262 14.6093088,2.74405966 16.3811963,3.11811692 C13.1300749,3.07067729 10.9547547,3.90584536 9.66936981,4.65505184 C9.0573947,4.98755393 8.49250794,5.41426797 7.94260385,5.95970242 C7.74771358,6.12986632 7.55970724,6.3099792 7.38055165,6.49779647 L7.37719646,4.45218978 C7.37598165,3.71202231 7.10004619,3.01674656 6.60012286,2.49430395 C6.10129864,1.9729533 5.43916922,1.68607091 4.73515778,1.68607091 C4.73359588,1.68607091 4.73197613,1.68607091 4.73047208,1.68607091 L0.875358615,1.69298666 C0.391921995,1.69389663 -0.000750946998,2.10708249 1.07837751e-06,2.61405565 L0.00295133177,4.40475015 C0.00381905336,4.911238 0.397012628,5.32266458 0.879755071,5.32266458 L0.881259122,5.32266458 L2.94024675,5.31896405 L2.94047814,5.31896405 C2.9846741,5.31896405 3.02615119,5.3369814 3.05744701,5.3696189 C3.08880069,5.40243839 3.10615512,5.44605616 3.10621297,5.49252516 L3.12941006,19.6760655 C3.1294679,19.7224739 3.11234487,19.766213 3.08104904,19.7990931 C3.04981106,19.8319733 3.00821827,19.850112 2.96396447,19.8501726 L0.905092541,19.8538732 C0.421655921,19.8547831 0.0289251313,20.267969 0.0297350047,20.7750028 L0.0325695619,22.4654189 C0.0329744987,22.7110494 0.12454805,22.9417565 0.290398569,23.1151356 C0.455902,23.2881507 0.675666954,23.3833333 0.909373301,23.3833333 L0.910877352,23.3833333 L10.1577235,23.3667113 C10.641218,23.365862 11.0338909,22.9526761 11.0330811,22.4456423 L11.0302465,20.7551655 C11.0294366,20.2486777 10.6363009,19.8372511 10.1534428,19.8372511" id="Fill-1"></path>
                        <path d="M31.3691093,15.0647321 C30.9597636,14.6292963 30.3786049,14.3897436 29.7322092,14.3897436 L29.7277434,14.3897436 C28.3931304,14.3920262 27.426162,15.4023165 27.4285759,16.7919386 C27.4297226,17.4558746 27.6535562,18.0615441 28.0587982,18.4973403 C28.4719459,18.9417864 29.0534063,19.1863848 29.6965431,19.1863248 L29.7008279,19.1863248 C31.0569855,19.1840422 32.0024093,18.1961574 31.9999954,16.7841297 C31.9988488,16.1067986 31.7748341,15.4961433 31.3691093,15.0647321" id="Fill-4"></path>
                        <path d="M15.1240323,14.2123965 C15.4629423,12.4922593 16.5624238,11.4710696 18.0967417,11.4683611 C18.0993206,11.4683611 18.1016193,11.4683023 18.1041983,11.4683023 C19.7859098,11.4683023 20.8871853,12.5099818 21.0148443,14.2017983 L15.1240323,14.2123965 Z M18.136996,8.39401709 L18.1211297,8.39401709 C16.1980604,8.39749093 14.4656665,9.16179353 13.2429552,10.5461462 C12.0697489,11.8745055 11.4253993,13.6808408 11.428595,15.6324296 C11.4320149,17.7372792 12.1396053,19.534194 13.4746699,20.8290513 C14.7934758,22.1080114 16.6054253,22.7837607 18.7156941,22.7837607 L18.7335786,22.7837607 C20.5689631,22.7804046 22.1656808,22.3980472 23.4793287,21.6472867 C23.6660236,21.5405988 23.7891974,21.3409416 23.8087078,21.1131993 L23.9680993,19.2556396 C23.9890114,19.0115879 23.8875906,18.782727 23.6965788,18.6433614 C23.5033244,18.5024061 23.2604528,18.4823286 23.046847,18.5896642 C21.755737,19.2386237 20.4253258,19.5828277 19.1993627,19.5850651 L19.1860754,19.5850651 C18.1501712,19.5850651 17.2812831,19.3679799 16.603463,18.9397561 C15.8868462,18.4870388 15.4046913,17.8060494 15.1701734,16.9155112 L23.6465692,16.9002028 C24.0960946,16.8993196 24.4702693,16.5480501 24.516971,16.0830272 C24.552572,15.7283428 24.5719143,15.3622359 24.5714097,15.0521814 C24.5683261,13.190559 23.9847505,11.5179958 22.9281023,10.3425442 C21.7820312,9.06758783 20.1256609,8.39401709 18.136996,8.39401709 L18.136996,8.39401709 Z" id="Fill-6"></path>
                    </g>
                </g>
            </g>
        </g>
    </g>
</svg>