<svg width="580" height="142" viewBox="0 0 580 142" fill="none" xmlns="http://www.w3.org/2000/svg">
<path d="M122.992 44.7015C120.274 44.7015 117.921 44.2046 115.933 43.2108C113.946 42.1879 112.411 40.7411 111.33 38.8705C110.278 36.9999 109.752 34.7932 109.752 32.2504V12.2148H116.503V31.8997C116.503 34.2964 117.073 36.1523 118.213 37.4676C119.353 38.7536 120.946 39.3966 122.992 39.3966C125.038 39.3966 126.616 38.7536 127.727 37.4676C128.867 36.1816 129.436 34.3256 129.436 31.8997V12.2148H136.057V32.2504C136.057 34.8225 135.53 37.0438 134.478 38.9144C133.426 40.7849 131.921 42.2171 129.963 43.2108C128.004 44.2046 125.681 44.7015 122.992 44.7015ZM124.395 4.14792H131.76L125.008 9.89118H119.835L124.395 4.14792ZM155.576 20.9831C158.031 20.9831 159.946 21.743 161.32 23.2629C162.693 24.7827 163.38 26.8579 163.38 29.4884V44H157.067V30.0583C157.067 28.5677 156.76 27.4278 156.146 26.6387C155.533 25.8495 154.67 25.455 153.56 25.455C152.069 25.455 150.856 26.1272 149.921 27.4717C148.985 28.8162 148.518 30.5406 148.518 32.645V44H142.205V21.6846H147.597L148.079 24.9727C148.927 23.6867 149.979 22.7076 151.236 22.0353C152.522 21.3339 153.969 20.9831 155.576 20.9831ZM179.649 39.7912C180.788 39.7912 181.87 39.5281 182.893 39.002C183.916 38.4467 184.749 37.6868 185.392 36.7223L189.338 39.9666C188.344 41.428 186.941 42.5825 185.129 43.4301C183.317 44.2777 181.329 44.7015 179.166 44.7015C176.886 44.7015 174.899 44.2192 173.204 43.2547C171.509 42.2609 170.208 40.8872 169.302 39.1336C168.396 37.3507 167.943 35.2755 167.943 32.9081C167.943 30.5406 168.396 28.4654 169.302 26.6825C170.237 24.8704 171.538 23.4675 173.204 22.4737C174.87 21.48 176.799 20.9831 178.991 20.9831C181.066 20.9831 182.878 21.4362 184.427 22.3422C186.006 23.219 187.219 24.4758 188.066 26.1126C188.914 27.7494 189.338 29.6784 189.338 31.8997C189.338 32.9227 189.279 33.7849 189.162 34.4864H174.168C174.431 36.1816 175.031 37.4968 175.966 38.4321C176.93 39.3382 178.158 39.7912 179.649 39.7912ZM178.903 25.5427C177.646 25.5427 176.594 25.9811 175.747 26.8579C174.928 27.7055 174.388 28.9039 174.124 30.4529H183.024C183.024 28.9331 182.644 27.7347 181.884 26.8579C181.154 25.9811 180.16 25.5427 178.903 25.5427ZM202.035 44.7015C199.609 44.7015 197.797 44.0585 196.598 42.7724C195.4 41.4572 194.801 39.5574 194.801 37.073V26.1564H191.601V21.6846H194.801V16.5551L201.114 14.7576V21.6846H205.893V26.1564H201.114V36.3715C201.114 37.3945 201.29 38.2275 201.64 38.8705C202.02 39.4843 202.736 39.7912 203.788 39.7912C204.344 39.7912 205.089 39.6743 206.024 39.4405V43.9562C204.621 44.453 203.292 44.7015 202.035 44.7015ZM220.279 39.7912C221.419 39.7912 222.5 39.5281 223.523 39.002C224.546 38.4467 225.379 37.6868 226.022 36.7223L229.968 39.9666C228.974 41.428 227.571 42.5825 225.759 43.4301C223.947 44.2777 221.96 44.7015 219.797 44.7015C217.517 44.7015 215.53 44.2192 213.834 43.2547C212.139 42.2609 210.839 40.8872 209.932 39.1336C209.026 37.3507 208.573 35.2755 208.573 32.9081C208.573 30.5406 209.026 28.4654 209.932 26.6825C210.868 24.8704 212.168 23.4675 213.834 22.4737C215.5 21.48 217.429 20.9831 219.622 20.9831C221.697 20.9831 223.509 21.4362 225.058 22.3422C226.636 23.219 227.849 24.4758 228.697 26.1126C229.544 27.7494 229.968 29.6784 229.968 31.8997C229.968 32.9227 229.91 33.7849 229.793 34.4864H214.799C215.062 36.1816 215.661 37.4968 216.596 38.4321C217.561 39.3382 218.789 39.7912 220.279 39.7912ZM219.534 25.5427C218.277 25.5427 217.225 25.9811 216.377 26.8579C215.559 27.7055 215.018 28.9039 214.755 30.4529H223.655C223.655 28.9331 223.275 27.7347 222.515 26.8579C221.784 25.9811 220.791 25.5427 219.534 25.5427ZM252.542 44.7015C250.379 44.7015 248.625 44.0731 247.281 42.8163C245.936 41.5595 245.264 39.9227 245.264 37.906C245.264 35.5678 246.185 33.7264 248.026 32.382C249.897 31.0083 252.469 30.3214 255.742 30.3214C257.087 30.3214 258.256 30.3652 259.25 30.4529V29.9268C259.25 28.6116 258.87 27.6178 258.11 26.9456C257.379 26.2733 256.341 25.9372 254.997 25.9372C253.857 25.9372 252.717 26.1857 251.577 26.6825C250.467 27.1502 249.487 27.8224 248.64 28.6993L245.527 24.6658C246.901 23.4675 248.45 22.5614 250.174 21.9476C251.899 21.3046 253.682 20.9831 255.523 20.9831C257.481 20.9831 259.206 21.3339 260.696 22.0353C262.216 22.7368 263.385 23.7305 264.204 25.0166C265.022 26.2734 265.431 27.7347 265.431 29.4007V44H260.083L259.732 41.6325C258.007 43.6785 255.611 44.7015 252.542 44.7015ZM254.559 40.1858C255.903 40.1858 257.014 39.7474 257.89 38.8705C258.797 37.9645 259.25 36.7954 259.25 35.3632V34.4864C258.373 34.3987 257.437 34.3548 256.444 34.3548C254.778 34.3548 253.492 34.6325 252.586 35.1878C251.709 35.7139 251.27 36.4738 251.27 37.4676C251.27 38.3444 251.577 39.0167 252.191 39.4843C252.834 39.952 253.623 40.1858 254.559 40.1858ZM283.834 12.2148H290.147V44H283.834V12.2148ZM301.992 44.7015C299.829 44.7015 298.076 44.0731 296.731 42.8163C295.387 41.5595 294.714 39.9227 294.714 37.906C294.714 35.5678 295.635 33.7264 297.476 32.382C299.347 31.0083 301.919 30.3214 305.193 30.3214C306.537 30.3214 307.706 30.3652 308.7 30.4529V29.9268C308.7 28.6116 308.32 27.6178 307.56 26.9456C306.829 26.2733 305.792 25.9372 304.447 25.9372C303.307 25.9372 302.167 26.1857 301.028 26.6825C299.917 27.1502 298.938 27.8224 298.09 28.6993L294.977 24.6658C296.351 23.4675 297.9 22.5614 299.625 21.9476C301.349 21.3046 303.132 20.9831 304.973 20.9831C306.932 20.9831 308.656 21.3339 310.147 22.0353C311.667 22.7368 312.836 23.7305 313.654 25.0166C314.472 26.2734 314.882 27.7347 314.882 29.4007V44H309.533L309.182 41.6325C307.458 43.6785 305.061 44.7015 301.992 44.7015ZM304.009 40.1858C305.353 40.1858 306.464 39.7474 307.341 38.8705C308.247 37.9645 308.7 36.7954 308.7 35.3632V34.4864C307.823 34.3987 306.888 34.3548 305.894 34.3548C304.228 34.3548 302.942 34.6325 302.036 35.1878C301.159 35.7139 300.721 36.4738 300.721 37.4676C300.721 38.3444 301.028 39.0167 301.641 39.4843C302.284 39.952 303.074 40.1858 304.009 40.1858Z" fill="#4C2623"/>
<g clip-path="url(#clip0_817_44326)">
<path d="M31.3394 135.3L2.31224 135.348C1.0936 135.35 0.103903 134.382 0.100381 133.187L0.0915761 128.222C0.0898151 127.026 1.07599 126.053 2.29463 126.051L8.75762 126.041C9.34581 126.041 9.82129 125.571 9.82129 124.994L9.74908 83.3333C9.74908 82.7561 9.27008 82.2895 8.6819 82.2895L2.2189 82.2999C1.00027 82.3016 0.00880752 81.3339 0.00704649 80.1381L2.35486e-06 74.8778C-0.00175868 73.682 0.98442 72.7108 2.20306 72.7073L14.3049 72.6866C18.5842 72.6797 22.0605 76.0788 22.0675 80.278V81.6L22.0798 87.6241C22.8758 86.7549 23.7634 85.9099 24.7478 85.1063C26.2482 83.7117 27.9846 82.4036 30.0573 81.3495C34.5022 78.925 42.3035 76.243 54.2134 77.0293C54.4846 77.0465 54.5462 76.6612 54.2821 76.592C40.4016 72.9544 33.118 75.9216 30.2968 77.6773C29.8073 77.9832 29.1891 77.5269 29.36 76.9826C30.8815 72.1509 33.7361 69.265 39.1196 68.1158C43.656 67.1464 47.3278 68.0847 55.9005 70.3692C61.3861 71.8312 64.3992 71.6014 66.0458 70.9965C66.678 70.7632 67.2697 71.3974 67.0126 72.0109C64.9557 76.9014 59.2253 87.1195 46.243 89.9778C41.3297 91.0595 36.1399 90.9023 31.1386 90.313C22.0834 89.2468 22.5219 101.959 22.1151 107.912L22.145 124.975C22.145 125.552 22.624 126.019 23.2122 126.019L31.3235 126.005C32.5421 126.003 33.5318 126.971 33.5354 128.167L33.5442 133.131C33.5459 134.327 32.5597 135.3 31.3411 135.302L31.3394 135.3Z" fill="#4C2623"/>
<path d="M94.2434 123.9C90.517 123.907 87.9582 121.09 87.9512 117.332C87.9441 113.468 90.6015 110.748 94.3261 110.741C98.0525 110.734 100.611 113.445 100.618 117.309C100.625 121.07 98.181 123.893 94.2434 123.9Z" fill="#4C2623"/>
<path d="M58.0035 92.9039C45.1304 92.9263 36.85 102.671 36.8711 114.275C36.894 127.001 46.349 135.406 59.9847 135.384C65.7609 135.373 70.852 134.276 75.0961 132.009C75.5452 131.768 75.834 131.314 75.8815 130.814L76.3975 125.193C76.505 124.021 75.2722 123.201 74.191 123.707C70.049 125.653 65.7063 126.764 61.4957 126.772C54.7791 126.785 49.5664 124.179 47.9146 118.282C47.823 117.954 48.0872 117.624 48.4341 117.624L75.8974 117.577C77.0632 117.576 78.0529 116.72 78.1762 115.583C78.2871 114.553 78.3505 113.456 78.3488 112.521C78.3294 101.667 71.3539 92.8814 58.0035 92.9039ZM47.6399 110.513C48.7722 103.773 53.3456 101.145 57.9225 101.138C64.0245 101.128 67.7509 104.864 67.9516 110.478L47.6399 110.513Z" fill="#4C2623"/>
<path d="M74.2119 74.3842C74.2119 75.9947 72.9245 77.258 71.248 77.258C69.5715 77.258 68.2666 75.9947 68.2666 74.3842C68.2666 72.7736 69.5891 71.5449 71.248 71.5449C72.9069 71.5449 74.2119 72.8081 74.2119 74.3842ZM69.008 74.3842C69.008 75.6474 69.9607 76.6514 71.2656 76.6514C72.5706 76.6514 73.4705 75.6474 73.4705 74.4014C73.4705 73.1555 72.5353 72.1169 71.248 72.1169C69.9607 72.1169 69.008 73.1382 69.008 74.3842ZM70.7902 75.872H70.1192V73.0328C70.3834 72.981 70.7549 72.9464 71.2304 72.9464C71.7781 72.9464 72.0246 73.0328 72.236 73.1538C72.3945 73.2747 72.5177 73.4994 72.5177 73.7776C72.5177 74.0887 72.2712 74.3323 71.9172 74.436V74.4706C72.199 74.5742 72.3575 74.7816 72.4473 75.1635C72.5354 75.5955 72.5882 75.7701 72.6586 75.8738H71.9348C71.8468 75.7701 71.794 75.5109 71.7059 75.1808C71.6531 74.8697 71.477 74.7315 71.1054 74.7315H70.7884V75.8738L70.7902 75.872ZM70.8078 74.2615H71.1248C71.4946 74.2615 71.7957 74.1405 71.7957 73.8467C71.7957 73.5875 71.602 73.4147 71.1776 73.4147C71.0015 73.4147 70.8782 73.432 70.8078 73.4493V74.2632V74.2615Z" fill="#4C2623"/>
</g>
<path d="M117.526 133.25C118.071 133.991 118.675 134.497 119.338 134.77C120 135.043 120.955 135.179 122.202 135.179C123.293 135.179 124.268 135.023 125.125 134.712C125.982 134.439 126.664 134.069 127.171 133.601C128.184 132.627 128.691 131.224 128.691 129.392V126.469C126.976 128.223 124.482 129.1 121.208 129.1C117.311 129.1 114.33 127.989 112.265 125.768C110.199 123.547 109.167 120.332 109.167 116.123V111.271C109.167 107.062 110.316 103.808 112.616 101.509C114.954 99.1707 118.247 98.0016 122.494 98.0016C126.664 98.0016 129.899 99.0538 132.198 101.158C134.497 103.263 135.647 106.224 135.647 110.043V128.866C135.647 132.841 134.556 135.725 132.373 137.518C130.23 139.349 126.801 140.265 122.085 140.265C118.422 140.265 115.538 139.641 113.434 138.394C111.329 137.147 110.277 135.433 110.277 133.25C110.277 132.51 110.803 132.14 111.856 132.14H115.714C116.142 132.14 116.474 132.198 116.707 132.315C116.941 132.471 117.214 132.783 117.526 133.25ZM116.123 115.188C116.123 120.526 118.247 123.196 122.494 123.196C126.703 123.196 128.808 120.526 128.808 115.188V111.563C128.808 108.874 128.301 106.926 127.288 105.718C126.275 104.471 124.677 103.847 122.494 103.847C120.273 103.847 118.656 104.471 117.643 105.718C116.629 106.926 116.123 108.874 116.123 111.563V115.188ZM148.433 116.006V116.298C148.433 119.221 148.901 121.306 149.836 122.553C150.81 123.761 152.408 124.365 154.63 124.365C157.474 124.365 159.209 123.352 159.832 121.325C160.066 120.663 160.592 120.332 161.41 120.332H165.035C165.697 120.332 166.165 120.429 166.438 120.624C166.71 120.819 166.847 121.169 166.847 121.676C166.847 122.417 166.593 123.293 166.087 124.307C165.619 125.281 165.054 126.099 164.392 126.762C163.3 127.892 161.898 128.769 160.183 129.392C158.468 129.977 156.559 130.269 154.454 130.269C150.323 130.269 147.128 129.119 144.867 126.82C142.607 124.482 141.477 121.131 141.477 116.766V112.206C141.477 107.647 142.588 104.139 144.809 101.684C147.069 99.2292 150.304 98.0016 154.513 98.0016C158.721 98.0016 161.898 99.1512 164.041 101.45C166.184 103.711 167.256 107.082 167.256 111.563V114.311C167.256 114.973 167.139 115.421 166.905 115.655C166.671 115.889 166.165 116.006 165.385 116.006H148.433ZM154.571 103.613C152.467 103.613 150.927 104.159 149.953 105.25C149.018 106.341 148.511 108.173 148.433 110.745H160.183C160.183 108.29 159.735 106.497 158.838 105.367C157.981 104.198 156.559 103.613 154.571 103.613ZM188.843 98.0016C192.156 98.0016 194.592 98.9369 196.15 100.807C197.748 102.678 198.547 105.27 198.547 108.582V127.755C198.547 128.457 198.411 128.925 198.138 129.158C197.904 129.353 197.417 129.451 196.676 129.451H193.461C192.721 129.451 192.214 129.353 191.942 129.158C191.708 128.925 191.591 128.457 191.591 127.755V109.634C191.591 107.842 191.221 106.478 190.48 105.542C189.779 104.568 188.473 104.081 186.564 104.081C184.693 104.081 183.212 104.666 182.121 105.835C181.069 106.965 180.543 108.563 180.543 110.628V127.755C180.543 128.457 180.406 128.925 180.134 129.158C179.9 129.353 179.413 129.451 178.672 129.451H175.457C174.717 129.451 174.21 129.353 173.937 129.158C173.703 128.925 173.586 128.457 173.586 127.755V100.515C173.586 99.8137 173.703 99.3656 173.937 99.1707C174.21 98.9369 174.717 98.82 175.457 98.82H178.555C179.296 98.82 179.783 98.9369 180.017 99.1707C180.289 99.3656 180.426 99.8137 180.426 100.515V101.743C181.322 100.574 182.491 99.6578 183.933 98.9953C185.375 98.3328 187.012 98.0016 188.843 98.0016ZM211.627 116.006V116.298C211.627 119.221 212.095 121.306 213.03 122.553C214.004 123.761 215.602 124.365 217.823 124.365C220.668 124.365 222.402 123.352 223.026 121.325C223.26 120.663 223.786 120.332 224.604 120.332H228.228C228.891 120.332 229.358 120.429 229.631 120.624C229.904 120.819 230.04 121.169 230.04 121.676C230.04 122.417 229.787 123.293 229.28 124.307C228.813 125.281 228.248 126.099 227.585 126.762C226.494 127.892 225.091 128.769 223.376 129.392C221.662 129.977 219.752 130.269 217.648 130.269C213.517 130.269 210.321 129.119 208.061 126.82C205.801 124.482 204.671 121.131 204.671 116.766V112.206C204.671 107.647 205.781 104.139 208.003 101.684C210.263 99.2292 213.497 98.0016 217.706 98.0016C221.915 98.0016 225.091 99.1512 227.235 101.45C229.378 103.711 230.45 107.082 230.45 111.563V114.311C230.45 114.973 230.333 115.421 230.099 115.655C229.865 115.889 229.358 116.006 228.579 116.006H211.627ZM217.765 103.613C215.66 103.613 214.121 104.159 213.147 105.25C212.211 106.341 211.705 108.173 211.627 110.745H223.376C223.376 108.29 222.928 106.497 222.032 105.367C221.175 104.198 219.752 103.613 217.765 103.613ZM243.619 103.321C244.282 102.035 245.276 100.963 246.601 100.106C247.926 99.2486 249.329 98.82 250.809 98.82H252.095C252.68 98.82 253.07 98.9369 253.265 99.1707C253.459 99.3656 253.557 99.7942 253.557 100.457V103.613C253.557 104.276 253.459 104.724 253.265 104.958C253.07 105.153 252.68 105.25 252.095 105.25H250.459C248.471 105.25 246.854 105.913 245.607 107.238C244.36 108.524 243.736 110.238 243.736 112.382V127.755C243.736 128.418 243.619 128.866 243.386 129.1C243.152 129.334 242.645 129.451 241.866 129.451H238.651C237.871 129.451 237.365 129.334 237.131 129.1C236.897 128.866 236.78 128.418 236.78 127.755V100.515C236.78 99.8527 236.897 99.4045 237.131 99.1707C237.365 98.9369 237.871 98.82 238.651 98.82H241.749C242.528 98.82 243.035 98.9369 243.269 99.1707C243.503 99.4045 243.619 99.8527 243.619 100.515V103.321ZM268.194 110.277C269.09 110.277 270.104 110.316 271.234 110.394C272.403 110.433 273.494 110.511 274.507 110.628V109.108C274.507 106.887 274.079 105.367 273.221 104.549C272.403 103.73 271.117 103.321 269.363 103.321C268.155 103.321 267.161 103.516 266.382 103.906C265.603 104.256 265.057 104.88 264.745 105.776C264.589 106.244 264.394 106.556 264.161 106.711C263.927 106.828 263.498 106.887 262.875 106.887H259.075C258.451 106.887 258.023 106.789 257.789 106.595C257.555 106.361 257.438 106.029 257.438 105.601C257.438 104.081 258.042 102.659 259.25 101.334C260.225 100.281 261.511 99.463 263.108 98.8784C264.706 98.2939 266.791 98.0016 269.363 98.0016C271.662 98.0016 273.572 98.2354 275.092 98.7031C276.612 99.1707 277.82 99.8527 278.716 100.749C279.651 101.645 280.294 102.756 280.645 104.081C281.035 105.406 281.23 106.926 281.23 108.641V120.039C281.23 121.325 281.054 122.572 280.704 123.78C280.353 124.989 279.749 126.06 278.891 126.996C278.034 127.931 276.884 128.671 275.443 129.217C274.001 129.762 272.189 130.035 270.006 130.035H268.369C264.239 130.035 261.179 129.275 259.192 127.755C257.243 126.197 256.269 123.703 256.269 120.273C256.269 118.364 256.581 116.766 257.204 115.48C257.828 114.194 258.685 113.181 259.776 112.44C260.868 111.661 262.134 111.115 263.576 110.803C265.018 110.453 266.557 110.277 268.194 110.277ZM268.545 115.597C266.674 115.597 265.291 115.947 264.394 116.649C263.498 117.35 263.05 118.539 263.05 120.215C263.05 121.89 263.498 123.06 264.394 123.722C265.291 124.385 266.557 124.716 268.194 124.716H269.188C271.097 124.716 272.461 124.248 273.28 123.313C274.098 122.378 274.507 120.799 274.507 118.578V115.947C273.221 115.792 272.091 115.694 271.117 115.655C270.143 115.616 269.285 115.597 268.545 115.597ZM299.787 124.365C301.541 124.365 302.846 124.034 303.704 123.371C304.6 122.67 305.204 121.501 305.516 119.864C305.594 119.396 305.749 119.085 305.983 118.929C306.256 118.734 306.724 118.636 307.386 118.636H310.426C311.166 118.636 311.653 118.753 311.887 118.987C312.16 119.182 312.296 119.591 312.296 120.215C312.296 122.943 311.459 125.144 309.783 126.82C307.484 129.119 304.152 130.269 299.787 130.269C295.656 130.269 292.5 129.178 290.317 126.996C288.174 124.774 287.102 121.54 287.102 117.292V111.563C287.102 107.16 288.174 103.808 290.317 101.509C292.5 99.1707 295.656 98.0016 299.787 98.0016C304.152 98.0016 307.484 99.1512 309.783 101.45C311.459 103.126 312.296 105.328 312.296 108.056C312.296 108.679 312.16 109.108 311.887 109.342C311.653 109.537 311.166 109.634 310.426 109.634H307.386C306.724 109.634 306.256 109.556 305.983 109.4C305.749 109.206 305.594 108.874 305.516 108.407C305.204 106.77 304.639 105.601 303.82 104.899C303.041 104.198 301.774 103.847 300.021 103.847C297.877 103.847 296.338 104.451 295.403 105.659C294.507 106.867 294.058 108.933 294.058 111.856V116.415C294.058 119.26 294.487 121.306 295.344 122.553C296.202 123.761 297.683 124.365 299.787 124.365ZM325.426 127.755C325.426 128.457 325.289 128.925 325.017 129.158C324.783 129.353 324.296 129.451 323.555 129.451H320.34C319.6 129.451 319.093 129.353 318.82 129.158C318.586 128.925 318.469 128.457 318.469 127.755V100.515C318.469 99.8137 318.586 99.3656 318.82 99.1707C319.093 98.9369 319.6 98.82 320.34 98.82H323.555C324.296 98.82 324.783 98.9369 325.017 99.1707C325.289 99.3656 325.426 99.8137 325.426 100.515V127.755ZM321.977 95.3126C320.73 95.3126 319.756 95.0204 319.054 94.4358C318.353 93.8123 318.002 92.9354 318.002 91.8053V90.5777C318.002 89.4476 318.353 88.5902 319.054 88.0057C319.756 87.3822 320.73 87.0704 321.977 87.0704C323.224 87.0704 324.198 87.3822 324.9 88.0057C325.64 88.5902 326.01 89.4476 326.01 90.5777V91.8053C326.01 92.9354 325.64 93.8123 324.9 94.4358C324.198 95.0204 323.224 95.3126 321.977 95.3126ZM345.127 130.269C340.918 130.269 337.644 129.139 335.306 126.879C333.007 124.618 331.857 121.423 331.857 117.292V111.563C331.857 107.277 333.007 103.945 335.306 101.567C337.644 99.1902 340.918 98.0016 345.127 98.0016C349.335 98.0016 352.589 99.1317 354.889 101.392C357.227 103.652 358.396 106.848 358.396 110.979V116.707C358.396 120.994 357.227 124.326 354.889 126.703C352.589 129.08 349.335 130.269 345.127 130.269ZM345.127 124.365C349.335 124.365 351.44 121.715 351.44 116.415V111.856C351.44 106.556 349.335 103.906 345.127 103.906C340.918 103.906 338.813 106.556 338.813 111.856V116.415C338.813 121.715 340.918 124.365 345.127 124.365ZM350.914 86.7781C351.654 86.7781 352.024 87.0119 352.024 87.4796C352.024 87.7524 351.868 88.1031 351.557 88.5318L348.342 93.0329C348.03 93.4615 347.757 93.8123 347.523 94.0851C347.328 94.3189 347.134 94.4943 346.939 94.6112C346.783 94.7281 346.588 94.806 346.354 94.845C346.159 94.884 345.906 94.9034 345.594 94.9034H342.087C341.346 94.9034 340.976 94.6696 340.976 94.202C340.976 94.0461 341.132 93.6954 341.444 93.1498L344.074 88.5902C344.581 87.7719 344.971 87.2653 345.244 87.0704C345.516 86.8756 346.023 86.7781 346.763 86.7781H350.914ZM380.08 98.0016C383.392 98.0016 385.828 98.9369 387.387 100.807C388.985 102.678 389.783 105.27 389.783 108.582V127.755C389.783 128.457 389.647 128.925 389.374 129.158C389.14 129.353 388.653 129.451 387.913 129.451H384.698C383.957 129.451 383.451 129.353 383.178 129.158C382.944 128.925 382.827 128.457 382.827 127.755V109.634C382.827 107.842 382.457 106.478 381.717 105.542C381.015 104.568 379.71 104.081 377.8 104.081C375.929 104.081 374.449 104.666 373.357 105.835C372.305 106.965 371.779 108.563 371.779 110.628V127.755C371.779 128.457 371.643 128.925 371.37 129.158C371.136 129.353 370.649 129.451 369.909 129.451H366.693C365.953 129.451 365.446 129.353 365.174 129.158C364.94 128.925 364.823 128.457 364.823 127.755V100.515C364.823 99.8137 364.94 99.3656 365.174 99.1707C365.446 98.9369 365.953 98.82 366.693 98.82H369.792C370.532 98.82 371.019 98.9369 371.253 99.1707C371.526 99.3656 371.662 99.8137 371.662 100.515V101.743C372.559 100.574 373.728 99.6578 375.17 98.9953C376.611 98.3328 378.248 98.0016 380.08 98.0016Z" fill="#4C2623"/>
<path d="M115.597 93.9661C116.025 94.8624 116.727 95.5249 117.701 95.9536C118.675 96.4212 120.039 96.655 121.793 96.655C124.56 96.655 126.567 96.1095 127.814 95.0183C129.178 93.7712 129.86 91.8227 129.86 89.1727V86.4253C128.886 87.5555 127.678 88.4128 126.236 88.9974C124.794 89.5819 123.157 89.8742 121.325 89.8742C117.467 89.8742 114.506 88.783 112.44 86.6007C110.414 84.4184 109.4 81.2618 109.4 77.1309V71.5192C109.4 67.2714 110.472 63.9979 112.616 61.6986C114.798 59.3604 117.896 58.1913 121.91 58.1913C125.924 58.1913 129.022 59.3019 131.204 61.5233C133.387 63.7446 134.478 66.8817 134.478 70.9346V88.9389C134.478 91.1602 134.186 93.0113 133.601 94.4922C133.017 95.9731 132.159 97.1422 131.029 97.9995C129.938 98.8958 128.613 99.5194 127.054 99.8701C125.495 100.26 123.722 100.455 121.735 100.455C120.098 100.455 118.597 100.299 117.234 99.987C115.909 99.6753 114.759 99.2271 113.785 98.6425C112.849 98.058 112.109 97.3565 111.563 96.5381C111.018 95.7587 110.745 94.8819 110.745 93.9076C110.745 93.479 110.823 93.2062 110.979 93.0893C111.135 93.0113 111.485 92.9723 112.031 92.9723H114.252C114.681 92.9723 114.954 93.0113 115.071 93.0893C115.227 93.2062 115.402 93.4984 115.597 93.9661ZM114.018 76.1956C114.018 82.6647 116.668 85.8992 121.968 85.8992C127.229 85.8992 129.86 82.6647 129.86 76.1956V71.8699C129.86 65.4008 127.21 62.1663 121.91 62.1663C116.649 62.1663 114.018 65.4008 114.018 71.8699V76.1956ZM146.585 75.728V76.8386C146.585 83.2687 149.196 86.4838 154.418 86.4838C157.73 86.4838 159.932 85.2172 161.023 82.6842C161.218 82.2165 161.374 81.9437 161.491 81.8658C161.647 81.7489 161.939 81.6904 162.368 81.6904H164.472C165.018 81.6904 165.368 81.7489 165.524 81.8658C165.68 81.9437 165.758 82.197 165.758 82.6257C165.758 83.1713 165.544 83.8728 165.115 84.7301C164.686 85.5875 164.199 86.3279 163.654 86.9514C162.679 88.0426 161.354 88.8999 159.679 89.5235C158.042 90.147 156.23 90.4588 154.242 90.4588C150.306 90.4588 147.267 89.3091 145.123 87.0099C143.019 84.7106 141.967 81.4371 141.967 77.1893V72.8052C141.967 68.0898 143.019 64.485 145.123 61.9909C147.228 59.4578 150.287 58.1913 154.301 58.1913C162.329 58.1913 166.343 62.6534 166.343 71.5776V74.5588C166.343 75.0265 166.245 75.3383 166.05 75.4941C165.894 75.65 165.583 75.728 165.115 75.728H146.585ZM154.301 61.8155C149.196 61.8155 146.624 65.1865 146.585 71.9283H161.666C161.666 68.46 161.062 65.9074 159.854 64.2707C158.685 62.6339 156.834 61.8155 154.301 61.8155ZM187.778 58.1913C191.051 58.1913 193.546 59.0681 195.26 60.8218C196.975 62.5755 197.832 65.128 197.832 68.4795V88.4713C197.832 88.9389 197.735 89.2507 197.54 89.4066C197.384 89.5624 197.072 89.6404 196.605 89.6404H194.442C193.974 89.6404 193.643 89.5624 193.448 89.4066C193.292 89.2507 193.214 88.9389 193.214 88.4713V69.4732C193.214 66.9791 192.688 65.167 191.636 64.0368C190.584 62.8677 188.889 62.2832 186.55 62.2832C184.212 62.2832 182.342 63.0431 180.939 64.5629C179.575 66.0438 178.893 68.0313 178.893 70.5254V88.4713C178.893 88.9389 178.795 89.2507 178.6 89.4066C178.445 89.5624 178.133 89.6404 177.665 89.6404H175.502C175.035 89.6404 174.703 89.5624 174.509 89.4066C174.353 89.2507 174.275 88.9389 174.275 88.4713V60.1788C174.275 59.7111 174.353 59.3994 174.509 59.2435C174.703 59.0876 175.035 59.0097 175.502 59.0097H177.548C178.016 59.0097 178.328 59.0876 178.484 59.2435C178.678 59.3994 178.776 59.7111 178.776 60.1788V62.2247C179.75 60.9387 180.997 59.945 182.517 59.2435C184.076 58.542 185.829 58.1913 187.778 58.1913ZM210.233 75.728V76.8386C210.233 83.2687 212.844 86.4838 218.066 86.4838C221.378 86.4838 223.58 85.2172 224.671 82.6842C224.866 82.2165 225.022 81.9437 225.139 81.8658C225.295 81.7489 225.587 81.6904 226.016 81.6904H228.12C228.666 81.6904 229.016 81.7489 229.172 81.8658C229.328 81.9437 229.406 82.197 229.406 82.6257C229.406 83.1713 229.192 83.8728 228.763 84.7301C228.334 85.5875 227.847 86.3279 227.302 86.9514C226.327 88.0426 225.002 88.8999 223.327 89.5235C221.69 90.147 219.878 90.4588 217.89 90.4588C213.954 90.4588 210.915 89.3091 208.771 87.0099C206.667 84.7106 205.615 81.4371 205.615 77.1893V72.8052C205.615 68.0898 206.667 64.485 208.771 61.9909C210.876 59.4578 213.935 58.1913 217.949 58.1913C225.977 58.1913 229.991 62.6534 229.991 71.5776V74.5588C229.991 75.0265 229.893 75.3383 229.698 75.4941C229.542 75.65 229.231 75.728 228.763 75.728H210.233ZM217.949 61.8155C212.844 61.8155 210.272 65.1865 210.233 71.9283H225.314C225.314 68.46 224.71 65.9074 223.502 64.2707C222.333 62.6339 220.482 61.8155 217.949 61.8155ZM242.424 64.6214C243.164 62.9457 244.275 61.6012 245.756 60.588C247.276 59.5358 248.971 59.0097 250.841 59.0097H251.601C252.03 59.0097 252.303 59.0876 252.42 59.2435C252.537 59.3994 252.595 59.7111 252.595 60.1788V62.2832C252.595 62.7508 252.537 63.0626 252.42 63.2185C252.303 63.3744 252.03 63.4523 251.601 63.4523H250.082C248.912 63.4523 247.86 63.7056 246.925 64.2122C246.029 64.7188 245.249 65.4398 244.587 66.3751C243.924 67.2714 243.418 68.3431 243.067 69.5901C242.716 70.7982 242.541 72.1232 242.541 73.5651V88.4713C242.541 88.9389 242.443 89.2507 242.248 89.4066C242.093 89.5624 241.781 89.6404 241.313 89.6404H239.15C238.683 89.6404 238.351 89.5624 238.157 89.4066C238.001 89.2507 237.923 88.9389 237.923 88.4713V60.1788C237.923 59.7111 238.001 59.3994 238.157 59.2435C238.351 59.0876 238.683 59.0097 239.15 59.0097H241.196C241.664 59.0097 241.976 59.0876 242.132 59.2435C242.326 59.3994 242.424 59.7111 242.424 60.1788V64.6214ZM269.26 70.9346C270.039 70.9346 271.033 70.9736 272.241 71.0515C273.449 71.1295 274.657 71.2464 275.865 71.4022V67.9534C275.865 65.81 275.358 64.2707 274.345 63.3354C273.371 62.3611 271.754 61.874 269.493 61.874C267.662 61.874 266.259 62.1468 265.285 62.6924C264.349 63.199 263.609 64.0953 263.063 65.3813C262.868 65.81 262.712 66.0828 262.596 66.1997C262.479 66.3166 262.186 66.3751 261.719 66.3751H259.614C259.108 66.3751 258.757 66.2971 258.562 66.1412C258.406 65.9854 258.328 65.6931 258.328 65.2644C258.328 64.7188 258.484 64.1343 258.796 63.5107C259.108 62.8483 259.497 62.2442 259.965 61.6986C260.978 60.5295 262.245 59.6527 263.765 59.0681C265.285 58.4836 267.194 58.1913 269.493 58.1913C273.39 58.1913 276.196 58.9512 277.911 60.4711C279.626 61.9519 280.483 64.4071 280.483 67.8365V79.8198C280.483 83.3662 279.606 85.9967 277.852 87.7113C276.099 89.3871 273.293 90.2249 269.435 90.2249H268.558C264.583 90.2249 261.641 89.504 259.731 88.0621C257.861 86.5812 256.925 84.204 256.925 80.9305C256.925 77.4621 257.919 74.9291 259.907 73.3313C261.894 71.7335 265.012 70.9346 269.26 70.9346ZM269.61 74.7927C266.61 74.7927 264.525 75.2603 263.355 76.1956C262.225 77.1309 261.66 78.6897 261.66 80.872C261.66 82.7816 262.186 84.165 263.239 85.0224C264.33 85.8797 266.22 86.3084 268.909 86.3084H269.435C271.734 86.3084 273.371 85.7628 274.345 84.6717C275.358 83.5415 275.865 81.7489 275.865 79.2937V75.3188C274.696 75.1629 273.527 75.046 272.358 74.968C271.228 74.8511 270.312 74.7927 269.61 74.7927ZM300.057 86.4838C304.032 86.4838 306.312 84.8081 306.897 81.4566C306.975 81.0279 307.092 80.7551 307.247 80.6382C307.403 80.5213 307.735 80.4629 308.241 80.4629H310.17C310.677 80.4629 311.008 80.5408 311.164 80.6967C311.359 80.8526 311.456 81.1448 311.456 81.5735C311.456 82.275 311.3 83.0739 310.989 83.9702C310.716 84.8275 310.307 85.6459 309.761 86.4253C307.968 89.1143 304.695 90.4588 299.94 90.4588C296.004 90.4588 293.023 89.3871 290.997 87.2437C288.97 85.1003 287.957 81.9242 287.957 77.7154V71.9283C287.957 67.3688 288.97 63.9394 290.997 61.6402C293.023 59.3409 296.004 58.1913 299.94 58.1913C304.188 58.1913 307.267 59.263 309.176 61.4063C310.657 63.0821 311.398 64.9721 311.398 67.0765C311.398 67.5052 311.3 67.7975 311.105 67.9534C310.95 68.1093 310.618 68.1872 310.112 68.1872H308.241C307.735 68.1872 307.403 68.1287 307.247 68.0118C307.092 67.8949 306.975 67.6221 306.897 67.1934C306.702 65.5567 306.02 64.3096 304.851 63.4523C303.721 62.556 302.162 62.1078 300.174 62.1078C297.524 62.1078 295.595 62.8872 294.387 64.446C293.179 65.9659 292.575 68.4405 292.575 71.8699V76.7802C292.575 80.1316 293.179 82.5867 294.387 84.1456C295.595 85.7044 297.485 86.4838 300.057 86.4838ZM323.913 88.4713C323.913 88.9389 323.815 89.2507 323.62 89.4066C323.465 89.5624 323.153 89.6404 322.685 89.6404H320.522C320.055 89.6404 319.723 89.5624 319.529 89.4066C319.373 89.2507 319.295 88.9389 319.295 88.4713V60.1788C319.295 59.7111 319.373 59.3994 319.529 59.2435C319.723 59.0876 320.055 59.0097 320.522 59.0097H322.685C323.153 59.0097 323.465 59.0876 323.62 59.2435C323.815 59.3994 323.913 59.7111 323.913 60.1788V88.4713ZM321.633 53.5733C320.737 53.5733 320.016 53.3395 319.47 52.8718C318.963 52.4042 318.71 51.7612 318.71 50.9428V50.0075C318.71 49.2281 318.963 48.6046 319.47 48.1369C320.016 47.6693 320.737 47.4355 321.633 47.4355C322.568 47.4355 323.309 47.6693 323.854 48.1369C324.4 48.6046 324.673 49.2281 324.673 50.0075V50.9428C324.673 51.7612 324.4 52.4042 323.854 52.8718C323.309 53.3395 322.568 53.5733 321.633 53.5733ZM344.594 90.4588C340.58 90.4588 337.463 89.3481 335.241 87.1268C333.059 84.9055 331.968 81.7684 331.968 77.7154V71.5192C331.968 67.2714 333.059 63.9979 335.241 61.6986C337.463 59.3604 340.58 58.1913 344.594 58.1913C348.608 58.1913 351.706 59.3019 353.889 61.5233C356.11 63.7446 357.221 66.8817 357.221 70.9346V77.1309C357.221 81.3787 356.11 84.6717 353.889 87.0099C351.706 89.3091 348.608 90.4588 344.594 90.4588ZM344.594 86.4838C349.933 86.4838 352.603 83.2492 352.603 76.7802V71.8699C352.603 65.4008 349.933 62.1663 344.594 62.1663C339.255 62.1663 336.586 65.4008 336.586 71.8699V76.7802C336.586 83.2492 339.255 86.4838 344.594 86.4838ZM350.03 46.9678C350.537 46.9678 350.79 47.1237 350.79 47.4355C350.79 47.5913 350.712 47.8057 350.557 48.0785L346.406 53.8656C345.978 54.4891 345.666 54.8593 345.471 54.9762C345.276 55.0931 344.945 55.1516 344.477 55.1516H342.49C341.983 55.1516 341.73 54.9957 341.73 54.684C341.73 54.5281 341.808 54.3137 341.964 54.0409L345.529 48.2538C345.88 47.6693 346.153 47.3186 346.348 47.2016C346.543 47.0458 346.913 46.9678 347.458 46.9678H350.03ZM378.807 58.1913C382.08 58.1913 384.574 59.0681 386.289 60.8218C388.004 62.5755 388.861 65.128 388.861 68.4795V88.4713C388.861 88.9389 388.764 89.2507 388.569 89.4066C388.413 89.5624 388.101 89.6404 387.633 89.6404H385.471C385.003 89.6404 384.672 89.5624 384.477 89.4066C384.321 89.2507 384.243 88.9389 384.243 88.4713V69.4732C384.243 66.9791 383.717 65.167 382.665 64.0368C381.612 62.8677 379.917 62.2832 377.579 62.2832C375.241 62.2832 373.37 63.0431 371.967 64.5629C370.603 66.0438 369.921 68.0313 369.921 70.5254V88.4713C369.921 88.9389 369.824 89.2507 369.629 89.4066C369.473 89.5624 369.161 89.6404 368.694 89.6404H366.531C366.063 89.6404 365.732 89.5624 365.537 89.4066C365.381 89.2507 365.303 88.9389 365.303 88.4713V60.1788C365.303 59.7111 365.381 59.3994 365.537 59.2435C365.732 59.0876 366.063 59.0097 366.531 59.0097H368.577C369.045 59.0097 369.356 59.0876 369.512 59.2435C369.707 59.3994 369.804 59.7111 369.804 60.1788V62.2247C370.779 60.9387 372.026 59.945 373.546 59.2435C375.104 58.542 376.858 58.1913 378.807 58.1913Z" fill="#4C2623"/>
<path fill-rule="evenodd" clip-rule="evenodd" d="M522.19 58.3056C521.533 57.9162 520.596 57.3218 520.104 57.0022C517.685 58.0324 515.292 60.0892 513.251 62.1669C508.561 66.9245 508.984 69.6642 504.034 71.5157C502.791 71.9736 501.266 72.4725 499.317 72.9079C498.17 69.4571 495.286 66.0314 492.236 66.0314C490.124 66.0314 487.681 67.104 484.868 68.3167C481.563 69.7325 478.538 71.3562 477.573 71.9736L478.866 73.6638C479.85 73.1391 482.688 71.7663 485.529 70.5787C487.993 69.5503 490.219 68.7026 491.718 68.7026C494.135 68.7026 495.707 71.3785 496.575 73.5255C493.408 74.2573 488.202 74.4379 486.631 74.4379C485.902 74.4379 485.642 74.5536 485.387 74.7624C485.151 74.9681 484.963 75.3312 484.845 75.8368L484.659 76.6125H486.348C495.118 76.6125 503.402 75.2645 508.724 72.1105C509.476 72.3126 510.131 72.4516 510.978 72.4516C514.025 72.4516 517.172 70.8316 519.139 69.3446C519.843 68.8183 520.009 68.3392 520.009 67.8145C520.009 67.5619 519.985 67.332 519.959 67.104L519.867 66.2123C517.053 68.3834 514.708 70.0066 511.799 70.0066C511.284 70.0066 510.906 69.9627 510.602 69.8697C513.442 65.4366 515.975 61.5055 522.19 58.3056Z" fill="#4C2623"/>
<path fill-rule="evenodd" clip-rule="evenodd" d="M503.567 63.4938C501.573 63.4938 501.758 60.1783 501.618 57.553C494.582 58.2134 490.175 60.2487 485.337 62.7848L485.903 64.8871C490.288 62.3269 494.509 60.8668 498.99 60.4328C499.04 62.9443 500.142 66.3067 503.075 66.3067C506.216 66.3067 510.037 61.5056 514.518 55.8823L515.693 54.3976C515.083 53.9395 514.404 53.5285 513.979 53.1428C509.382 58.901 505.396 63.4938 503.567 63.4938Z" fill="#4C2623"/>
<path fill-rule="evenodd" clip-rule="evenodd" d="M488.271 28.2288C487.613 28.2288 486.862 28.136 485.971 27.9319C485.291 27.7722 484.564 27.6337 483.533 27.6337C481.682 27.6337 479.686 28.3183 478.324 29.5996C475.837 31.9074 475.697 34.3993 475.532 36.6141C475.325 39.5642 474.76 40.298 473.121 42.444C471.781 44.2026 469.951 46.5136 468.544 48.9586C468.991 49.1622 470.468 49.9398 470.985 50.2122C472.6 47.8391 474.855 44.9116 476.33 42.6937C477.669 40.6839 478.207 39.8134 478.301 37.1195C478.324 36.6631 478.324 36.2278 478.371 35.7931C478.49 34.3993 478.866 32.9813 480.228 31.6807C481.235 30.6947 482.689 30.1926 484.146 30.1926C485.551 30.1926 486.372 30.5805 487.592 30.5805C488.461 30.5805 489.094 30.3753 489.654 30.1716L490.101 30.0117L489.022 32.5248L491.554 33.5308C489.937 34.5118 486.394 38.7395 486.394 43.7479C486.394 45.5504 486.676 47.2194 487.076 48.7043C487.122 48.8642 487.215 49.0237 487.473 49.0237C487.71 49.0237 487.874 48.8872 487.896 48.6376L487.919 48.1094C487.993 46.579 488.107 44.1572 488.739 41.988C489.795 38.3321 492.633 34.9025 495.473 33.2549L491.439 31.5438L493.173 27.4041L491.275 27.7936C490.124 28.0198 489.281 28.2288 488.271 28.2288Z" fill="#4C2623"/>
<path fill-rule="evenodd" clip-rule="evenodd" d="M503.472 11.1333C501.946 11.1333 501.526 12.5708 501.526 13.3728C501.526 14.0134 501.759 14.7682 502.584 14.7682C503.261 14.7682 504.104 14.2886 504.761 13.7591C505.397 13.2586 505.817 12.8465 505.817 12.4339C505.817 12.0475 505.442 11.6796 504.879 11.4301C504.482 11.2458 503.99 11.1333 503.472 11.1333Z" fill="#4C2623"/>
<path fill-rule="evenodd" clip-rule="evenodd" d="M504.104 40.1594H494.137L493.011 42.2634H504.996L504.104 40.1594Z" fill="#4C2623"/>
<path fill-rule="evenodd" clip-rule="evenodd" d="M480.274 20.7773C480.907 20.41 481.444 19.8872 481.444 19.3379C481.444 19.0852 481.331 18.8346 481.071 18.6045C480.625 18.1972 480.016 17.9883 479.499 17.9883C478.325 17.9883 477.716 19.0625 477.716 20.0469C477.716 20.8012 478.092 21.2352 478.818 21.2352C479.263 21.2352 479.782 21.0495 480.274 20.7773Z" fill="#4C2623"/>
<path fill-rule="evenodd" clip-rule="evenodd" d="M549.987 62.7182L551.134 63.4939C551.299 63.6082 551.417 63.675 551.558 63.675C551.793 63.675 551.958 63.4485 551.958 63.2672C551.958 63.1517 551.907 63.0376 551.772 62.9218C548.342 59.8822 544.663 56.1809 541.212 52.6132C538.515 49.8014 535.749 46.8337 533.31 43.8396C533.143 43.6328 533.005 43.54 532.815 43.54C532.537 43.54 532.396 43.7241 532.396 43.9308C532.396 44.2502 532.629 44.637 533.216 45.5986C534.996 48.545 537.204 51.5195 539.924 54.305C542.854 57.3425 546.304 60.1784 549.987 62.7182Z" fill="#4C2623"/>
<path fill-rule="evenodd" clip-rule="evenodd" d="M532.441 138.003H535.233C535.961 138.003 536.452 137.75 536.804 137.337C537.087 136.997 537.272 136.561 537.272 135.967V106.052C537.272 105.457 537.087 105.022 536.804 104.682C536.452 104.267 535.961 104.017 535.233 104.017H532.441C531.714 104.017 531.222 104.267 530.869 104.682C530.588 105.022 530.4 105.457 530.4 106.052V135.967C530.4 136.561 530.588 136.997 530.869 137.337C531.222 137.75 531.714 138.003 532.441 138.003Z" fill="#4C2623"/>
<path fill-rule="evenodd" clip-rule="evenodd" d="M486.253 32.5937C485.857 32.3198 485.365 32.2041 484.918 32.2041C483.93 32.2041 483.533 32.7762 483.343 33.371C483.252 33.6465 483.229 33.9173 483.229 34.1486C483.229 34.9701 483.602 35.5405 484.212 35.5405C485.059 35.5405 486.745 34.3996 486.745 33.4152C486.745 33.12 486.608 32.822 486.253 32.5937Z" fill="#4C2623"/>
<path fill-rule="evenodd" clip-rule="evenodd" d="M454.305 61.4824L454.474 62.4637C454.542 62.8774 454.706 63.2182 455.056 63.3781C455.481 63.5864 456.09 63.6078 457.147 63.6078C459.82 63.6078 461.769 63.2884 462.893 63.0143C465.776 67.1936 469.741 68.7955 473.566 68.7955C476.828 68.7955 480.132 67.6302 483.298 65.9384L482.709 63.8568C479.619 65.5522 476.403 66.6706 473.566 66.6706C470.398 66.6706 467.583 65.3433 465.238 61.8914C464.254 60.4327 463.481 58.6028 462.538 56.9791C461.414 55.0577 460.193 54.0293 458.062 54.0293C456.113 54.0293 454.213 54.8098 452.197 55.6541L452.287 56.0895C452.451 56.7969 452.734 57.2985 453.417 57.2985C453.721 57.2985 454.027 57.1616 454.191 57.1179C455.317 56.7752 456.136 56.4775 457.286 56.4775C459.045 56.4775 459.888 57.481 461.084 59.952L461.531 60.8667C460.31 61.2735 457.45 61.4824 455.317 61.4824H454.305Z" fill="#4C2623"/>
<path fill-rule="evenodd" clip-rule="evenodd" d="M546.488 122.643C546.795 119.832 549.001 117.73 552.353 117.73C555.638 117.73 557.915 119.832 558.219 122.643H546.488ZM564.412 127.007C564.812 126.644 564.999 126.115 564.999 125.136C564.999 122.14 564.039 119.031 562.021 116.658C559.954 114.257 556.766 112.634 552.332 112.634C544.192 112.634 539.617 118.827 539.617 125.363C539.617 132.334 544.522 138.46 552.377 138.46C556.298 138.46 560.142 137.018 562.348 134.483C563.31 133.383 564.084 131.852 564.084 130.917C564.084 130.596 564.012 130.322 563.825 130.119C563.638 129.888 563.355 129.75 562.865 129.75H559.089C558.337 129.75 557.821 130.023 557.445 130.575C556.343 132.15 554.75 132.975 552.403 132.975C548.885 132.975 546.608 130.368 546.444 127.509H562.818C563.543 127.509 564.062 127.35 564.412 127.007Z" fill="#4C2623"/>
<path fill-rule="evenodd" clip-rule="evenodd" d="M545.809 7.26904C544.334 10.0596 538.514 18.994 535.373 22.6959L537.176 24.5948C538.866 22.7674 540.719 19.6577 542.738 16.5953H543.114C543.114 16.755 543.088 16.9375 543.088 17.0974C543.088 19.6809 544.449 21.6005 547.805 21.6005C549.867 21.6005 553.106 20.5933 556.155 19.5893C558.688 18.7434 561.009 17.8748 562.159 17.5554V14.8122C560.846 15.2017 558.173 16.2044 555.406 17.1411C552.495 18.1256 549.635 19.0189 547.969 19.0189C546.139 19.0189 545.624 18.0344 545.624 16.639C545.624 13.7594 547.477 9.62449 548.648 7.26904H545.809Z" fill="#4C2623"/>
<path fill-rule="evenodd" clip-rule="evenodd" d="M522.869 16.5512C520.502 14.3331 518.695 11.8166 517.548 10.6055C514.987 7.88532 511.681 4.52612 506.24 4.52612C500.984 4.52612 497.515 7.86438 496.389 10.744C496.057 11.5688 495.802 12.5709 495.566 12.9377C495.051 13.7594 492.729 17.6237 491.768 19.154H496.106L493.996 23.0427C496.458 22.513 498.216 22.1236 500.563 22.1236C502.651 22.1236 504.154 22.6073 504.81 23.8858C506.031 26.2636 506.031 33.459 508.094 38.8782C510.014 43.975 514.709 48.9588 519.987 52.7727L520.221 52.8445C520.479 52.8445 520.642 52.6585 520.642 52.4763C520.642 52.3394 520.597 52.2496 520.479 52.1339C516.067 47.8393 512.478 43.0853 510.558 37.8742C508.657 32.8006 508.962 25.6701 507.296 22.492C506.195 20.3897 503.85 19.8402 501.69 19.8402C499.956 19.8402 498.335 20.184 497.584 20.3434L499.485 17.2111H496.271C496.95 16.0442 497.657 14.9721 498.007 14.3331C498.311 13.782 498.43 13.0976 498.803 12.1636C500.024 9.16821 502.721 7.26908 506.24 7.26908C510.651 7.26908 513.23 10.0337 515.788 12.8024C516.959 14.0788 518.886 16.7548 521.112 18.7432C522.636 20.114 525.542 21.644 530.023 26.1476C532.606 28.7523 535.607 32.1372 538.776 36.6633C550.106 52.8233 557.541 67.0616 561.69 78.1659L561.622 78.2113C549.726 70.3492 539.432 62.9218 531.129 53.7592C525.242 47.2444 520.127 39.7031 515.669 30.0775C515.366 29.4398 515.105 28.8455 514.823 28.2292C514.709 27.9765 514.59 27.9096 514.405 27.9096C514.167 27.9096 514.003 28.0679 514.003 28.2959C514.003 28.5481 514.122 29.0981 514.376 30.193C516.75 40.1595 523.315 49.0957 530.329 56.5231C537.32 63.9063 545.225 70.2595 551.722 74.8735L556.79 89.0013C556.909 89.3432 557.044 89.7066 557.044 90.0522C557.044 90.3017 556.977 90.5102 556.814 90.6471C556.672 90.7808 556.484 90.8526 556.061 90.8526H554.536C553.88 90.8526 553.622 90.758 553.389 90.5771C553.152 90.3944 552.988 90.1192 552.874 89.7996C552.428 88.4746 549.75 81.0453 549.236 79.5381C549.144 79.2627 548.977 79.1729 548.79 79.1729C548.557 79.1729 548.393 79.3559 548.393 79.5595C548.393 79.7415 548.462 79.9491 548.58 80.5879C549.259 83.9694 550.056 87.767 550.384 89.2047C550.527 89.8714 550.692 90.4876 550.692 90.9439C550.692 91.354 550.598 91.5825 550.247 91.9251L548.671 93.4795C548.298 93.8466 548.089 93.9359 547.783 93.9359C547.406 93.9359 547.1 93.6869 546.959 93.0478C545.178 84.9327 542.482 74.8735 541.778 72.0877C541.613 71.4703 541.495 71.1249 541.122 71.1249C540.793 71.1249 540.674 71.3564 540.674 71.6302C540.674 71.8355 540.72 72.0877 540.747 72.2693C541.167 75.1487 542.878 85.6437 544.733 95.2174C545.061 96.8634 545.693 97.7776 547.15 97.7776C547.806 97.7776 548.44 97.5254 549.026 96.9738C549.987 96.0386 550.27 95.7896 551.418 94.6892C552.24 93.9135 552.801 93.5925 554.208 93.5925H557.682C558.501 93.5925 558.948 93.3884 559.344 93.0218C559.721 92.6794 559.955 92.2003 559.955 91.5141C559.955 90.8086 559.77 90.2349 559.509 89.5243C558.62 87.1954 555.756 79.3112 554.915 77.0936L554.982 77.0474C557.916 79.2187 562.185 81.9831 564.063 81.9831C564.646 81.9831 565 81.7336 565 80.8424C565 76.6352 557.822 59.336 541.426 35.5192C532.701 22.8342 525.028 18.5608 522.869 16.5512Z" fill="#4C2623"/>
<path fill-rule="evenodd" clip-rule="evenodd" d="M554.23 27.3145C557.043 26.1476 562.09 24.1822 564.999 23.1536V20.3667C559.158 22.469 548.907 26.6039 541.917 30.3088C542.104 30.5352 543.324 32.2042 543.464 32.4127C546.421 31.223 549.071 30.4473 551.461 30.4473C554.817 30.4473 557.564 30.4473 562.158 29.3961V27.2938C559.579 27.7499 556.834 28.296 555.054 28.296C553.997 28.296 553.691 28.1586 553.691 27.8171C553.691 27.6132 553.833 27.4745 554.23 27.3145Z" fill="#4C2623"/>
<path fill-rule="evenodd" clip-rule="evenodd" d="M487.002 15.1089C485.41 15.1089 484.355 15.0857 482.969 14.4699C481.093 13.6226 480.131 13.2588 478.465 13.2588C476.426 13.2588 474.573 13.9678 473.047 15.3351C471.289 16.9148 470.747 19.0188 470.115 21.325C469.623 23.11 469.036 25.0737 467.724 26.8794C466.62 28.4097 465.826 29.1649 463.312 32.0446C460.006 35.8601 458.27 38.9487 455.383 45.8049C455.853 45.758 456.535 45.7138 457.284 45.7138C457.661 45.7138 457.965 45.7138 458.457 45.7366L458.807 45.0034C460.428 41.6196 462.609 37.0498 465.66 33.5311L466.714 32.3198C469.859 28.7291 471.804 26.6038 473.025 21.7145C473.448 19.9772 473.798 18.4239 474.996 17.3044C476.075 16.2984 477.438 15.8632 478.818 15.8632C479.99 15.8632 480.86 16.1389 482.127 16.6622C483.274 17.141 483.699 17.2342 484.918 17.2342C485.337 17.2342 485.642 17.2112 485.925 17.1882L484.284 19.3382L486.512 20.8682C483.72 21.6671 482.242 24.2978 481.748 25.5103C481.657 25.7611 481.608 25.9213 481.608 26.0807C481.608 26.2637 481.703 26.4443 481.984 26.4443C482.29 26.4443 482.525 26.2174 482.923 25.7611C484.284 24.159 485.365 23.0642 490.383 21.5321L486.838 18.9244L489.513 15.1089H487.002Z" fill="#4C2623"/>
<path fill-rule="evenodd" clip-rule="evenodd" d="M443.001 23.473C437.255 23.473 434.815 26.1688 434.815 27.9763C433.102 28.6623 432 30.514 432 32.2267C432 35.6331 434.554 38.0569 437.933 38.0569C439.059 38.0569 440.21 37.6218 441.008 37.0285C441.593 37.2319 442.342 37.3463 443.115 37.3463C444.736 37.3463 446.541 36.7968 447.81 34.9943C447.998 35.0173 448.162 35.0173 448.349 35.0173C450.412 35.0173 452.197 33.6905 453.133 31.9513C453.367 31.5214 453.461 31.1756 453.461 30.9261C453.461 30.6735 453.344 30.4682 453.088 30.4682C452.76 30.4682 452.71 30.7667 452.123 31.2897C450.811 32.4566 448.794 32.892 446.73 32.892C445.721 34.3293 444.478 35.0857 443.047 35.0857C441.991 35.0857 441.171 34.81 440.325 34.2626C439.644 34.9943 438.8 35.2928 437.98 35.2928C436.124 35.2928 434.815 34.0327 434.815 32.204C434.815 30.9261 435.658 29.7822 436.832 29.3469C437.041 27.0849 439.527 25.5546 442.625 25.5546C443.025 25.5546 443.421 25.5753 443.844 25.6229C444.315 24.8926 445.439 24.1152 447.036 23.9084C447.364 23.8642 447.62 23.8398 447.81 23.7487C447.998 23.6571 448.088 23.473 448.088 23.2693C448.088 23.0866 448.02 22.9267 447.834 22.8114C447.67 22.7187 447.387 22.674 447.059 22.6073C445.579 22.3323 443.822 21.4404 442.929 19.2695C439.386 19.2695 436.786 16.5022 436.786 13.3956V13.1871C435.611 12.7306 434.815 11.6339 434.815 10.3333C434.815 8.61846 436.198 7.24607 437.956 7.24607C439.014 7.24607 439.927 7.7484 440.516 8.50295C441.008 8.36419 441.568 8.32047 442.108 8.32047C444.736 8.32047 447.551 9.94369 448.088 13.0976C451.467 13.3956 452.263 16.1825 452.479 17.3478C452.593 17.9431 452.688 18.4448 453.088 18.4448C453.508 18.4448 453.602 17.9885 453.744 17.3727C454 16.2042 454.444 15.2683 455.338 14.5368C455.338 11.546 457.638 8.9611 460.898 8.9611C461.39 7.9081 462.469 7.17933 463.759 7.17933C465.52 7.17933 466.926 8.50295 466.926 10.2649C466.926 11.2933 466.435 12.185 465.66 12.7306C465.826 13.3243 465.94 13.8535 465.94 14.354C465.94 16.2757 464.767 17.6237 462.609 18.3293C462.326 19.498 461.813 20.5492 460.967 21.3249C459.56 22.6517 458.13 22.6517 458.13 23.2008C458.13 23.4976 458.339 23.6819 458.926 23.6819C461.53 23.6819 464.086 22.2605 464.391 19.9085C466.878 19.0854 468.38 16.6388 468.38 14.696C468.38 14.1946 468.335 13.7592 468.121 13.3466C468.803 12.7097 469.6 11.6129 469.6 9.98902C469.6 8.57313 468.965 7.13239 467.842 6.07939C466.855 5.14398 465.47 4.52612 463.853 4.52612C461.509 4.52612 459.983 5.75976 459.113 6.97246C456.557 6.97246 453.252 9.74004 453.252 13.6938H452.897C452.663 12.3233 451.208 11.4091 449.992 11.337C449.004 8.45877 446.778 5.98965 443.115 5.98965C442.697 5.98965 442.178 6.01243 441.732 6.07939C440.653 5.12097 439.459 4.52612 437.791 4.52612C434.601 4.52612 432 7.01664 432 10.1701C432 12.1358 432.915 13.4838 434.651 14.6751L434.628 15.0435C434.628 17.5552 437.443 21.4848 441.616 21.4848C441.616 22.1234 442.436 22.9937 443.352 23.1534V23.473H443.001Z" fill="#4C2623"/>
<path fill-rule="evenodd" clip-rule="evenodd" d="M501.64 133.224C500.539 133.224 499.391 133.02 498.451 132.562C497.796 132.242 497.232 131.788 496.83 131.17C496.481 130.642 496.362 130.256 495.825 129.959C495.497 129.773 495.097 129.75 494.559 129.75H491.648C491.016 129.75 490.711 129.933 490.502 130.185C490.288 130.437 490.22 130.802 490.22 131.17C490.22 132.082 490.547 133.224 491.32 134.254C493.102 136.583 496.83 138.46 501.594 138.46C506.284 138.46 512.783 136.561 512.783 130.437C512.783 128.857 512.313 127.509 511.448 126.412C510.343 125.02 508.772 124.062 506.099 123.397L500.775 122.071C498.57 121.523 497.538 121.133 497.538 119.811C497.538 118.529 498.712 117.499 501.43 117.499C503.025 117.499 504.482 117.842 505.42 118.804C506.194 119.603 506.052 120.015 506.661 120.335C507.037 120.517 507.459 120.517 508.115 120.517H510.766C511.189 120.517 511.495 120.451 511.726 120.198C511.917 119.993 512.031 119.673 512.031 119.146C512.031 117.957 511.236 116.426 509.827 115.26C507.951 113.683 504.995 112.634 501.43 112.634C495.003 112.634 490.785 115.605 490.785 120.357C490.785 122.049 491.416 123.419 492.446 124.492C493.644 125.752 495.356 126.621 497.842 127.239L503.215 128.56C504.69 128.929 506.007 129.364 506.007 130.619C506.007 132.562 503.894 133.224 501.64 133.224Z" fill="#4C2623"/>
<path fill-rule="evenodd" clip-rule="evenodd" d="M452.524 23.7922C453.765 25.5545 455.853 28.9604 457.825 33.4865C458.175 32.9128 459.232 31.5211 459.655 31.0859C457.847 27.5199 454.891 24.1149 453.602 22.7671L452.524 23.7922Z" fill="#4C2623"/>
<path fill-rule="evenodd" clip-rule="evenodd" d="M485.997 54.7625C488.015 53.8255 491.275 53.3691 492.892 53.3691C494.373 53.3691 495.893 53.5284 497.3 53.7097C498.897 53.9184 500.751 54.1446 502.695 54.1446C507.107 54.1446 511.425 51.8598 512.104 51.4475C511.563 50.9895 510.884 50.3507 510.483 49.8728C509.076 50.4665 505.843 51.6072 502.628 51.6072C501.03 51.6072 499.695 51.4735 498.215 51.2875C496.388 51.0613 494.65 50.8524 493.173 50.8524C490.711 50.8524 487.66 51.0839 484.704 53.1144L485.997 54.7625Z" fill="#4C2623"/>
<path fill-rule="evenodd" clip-rule="evenodd" d="M481.867 53.0043L480.507 51.2878C475.252 53.2535 469.412 56.4302 469.412 59.6782C469.412 61.5279 470.82 62.9921 473.984 62.9921C478.629 62.9921 483.58 60.7069 487.546 58.5815L486.981 57.827C486.655 57.3656 486.372 57.2335 485.926 57.2335C485.642 57.2335 485.337 57.3424 485.082 57.4586C481.682 59.0816 477.997 60.7069 474.573 60.7069C472.6 60.7069 472.109 60.1136 472.109 59.2873C472.109 56.9581 478.629 54.2591 481.867 53.0043Z" fill="#4C2623"/>
<path fill-rule="evenodd" clip-rule="evenodd" d="M527.022 118.187C527.514 118.187 527.892 118.05 528.17 117.818C528.476 117.548 528.616 117.179 528.616 116.629V115.054C528.616 114.504 528.476 114.141 528.17 113.866C527.892 113.639 527.514 113.503 527.022 113.503H522.778V106.052C522.778 105.457 522.588 105.022 522.308 104.678C521.956 104.267 521.462 104.017 520.736 104.017H518.085C517.36 104.017 516.869 104.267 516.513 104.678C516.234 105.022 516.044 105.457 516.044 106.052V113.503H514.733C514.241 113.503 513.863 113.639 513.582 113.866C513.276 114.141 513.139 114.504 513.139 115.054V116.629C513.139 117.179 513.276 117.548 513.582 117.818C513.863 118.05 514.241 118.187 514.733 118.187H516.044V129.59C516.044 132.515 516.869 134.346 518.391 135.807C519.796 137.156 521.628 138.002 524.818 138.002H526.813C527.305 138.002 527.678 137.865 527.961 137.633C528.267 137.363 528.453 136.996 528.453 136.449V134.459C528.453 133.911 528.267 133.542 527.961 133.272C527.678 133.043 527.305 132.904 526.813 132.904H526.532C525.265 132.904 524.396 132.585 523.807 132.035C523.106 131.396 522.752 130.415 522.752 129.132V118.187H527.022Z" fill="#4C2623"/>
<path fill-rule="evenodd" clip-rule="evenodd" d="M562.678 109.136C563.17 109.136 563.543 108.997 563.825 108.769C564.131 108.497 564.272 108.128 564.272 107.583V105.457C564.272 104.632 564.108 104.22 563.825 103.923C563.571 103.653 563.146 103.493 562.678 103.493C562.299 103.493 561.927 103.537 561.293 103.602L542.573 105.408C542.036 105.457 541.777 105.617 541.589 105.822C541.375 106.052 541.285 106.345 541.285 106.756V107.948C541.285 108.404 541.375 108.608 541.544 108.794C541.753 109.022 542.06 109.136 542.481 109.136H562.678Z" fill="#4C2623"/>
<path fill-rule="evenodd" clip-rule="evenodd" d="M528.266 61.2734C524.747 68.4985 519.397 73.7569 513.909 76.7946C511.306 78.2372 508.961 79.1726 503.894 79.1726H492.938C489.022 79.1726 486.558 79.6749 484.638 80.1536C482.573 80.6819 481.257 81.2052 479.173 81.2052C476.075 81.2052 473.211 79.7189 471.826 78.3023L474.409 76.3155L473.121 74.647C472.368 75.1716 463.198 81.7773 461.271 83.2638L461.157 83.1931C461.202 82.7368 461.202 82.3268 461.202 81.9158C461.202 76.8876 458.807 75.6769 455.174 74.2571L452.71 75.6769C457.706 77.2969 458.949 78.6003 458.949 82.2352C458.949 85.1132 457.897 86.2576 456.371 87.1228C454.799 88.0161 452.852 88.4287 451.139 88.4287C450.412 88.4287 450.082 88.5672 449.828 88.8183C449.545 89.0903 449.404 89.5024 449.404 90.0747V90.8732H449.991C453.133 90.8732 456.043 90.3941 459.232 87.9494L469.623 80.0381C471.101 81.6847 474.832 83.9689 479.239 83.9689C481.727 83.9689 483.32 83.3791 485.619 82.8075C487.404 82.3721 489.139 81.9827 492.938 81.9827H503.939C509.571 81.9827 512.291 80.8421 515.292 79.1956C521.816 75.6279 527.373 69.5939 530.519 62.6725C529.694 62.1667 528.922 61.7093 528.266 61.2734Z" fill="#4C2623"/>
<path fill-rule="evenodd" clip-rule="evenodd" d="M432.092 83.6286H432.938C434.696 83.6286 434.905 82.5984 434.905 81.6178C434.905 80.9574 434.884 80.2013 434.884 79.3777C434.905 77.4829 434.979 75.7893 438.12 74.4169C439.386 73.8711 445.602 71.3999 450.224 69.4819C451.586 68.9098 452.852 68.4319 454.259 68.4319C455.831 68.4319 457.638 69.0939 459.887 70.3977C461.791 71.4947 463.785 72.9796 465.356 74.6923L467.346 73.2058C465.633 71.2404 463.265 69.4819 460.898 68.1125C458.529 66.7419 456.417 65.9386 454.637 65.9386C453.863 65.9386 453.225 66.0753 452.688 66.2122C452.054 66.3735 451.467 66.5544 450.716 66.5544C449.851 66.5544 449.122 66.3507 448.067 65.161C447.67 64.7275 445.132 61.9174 444.597 61.0947C444.336 60.7067 443.868 59.926 443.868 59.0129C443.868 58.6251 443.938 58.1674 444.172 57.7564C446.354 59.4024 449.053 60.4103 452.337 60.7965L451.89 58.6251C447.177 57.4145 442.155 53.3693 442.155 50.7628C442.155 50.2122 442.295 49.8277 442.506 49.3437C444.336 50.9897 448.63 52.7073 450.952 52.7073C452.218 52.7073 453.252 52.2935 454.235 51.904C455.174 51.5404 456.112 51.1773 457.379 51.1773C460.383 51.1773 464.086 52.5915 467.346 53.9393C467.537 54.0079 467.746 54.0569 467.955 54.0569C468.476 54.0569 468.872 53.8256 469.13 53.3463L469.554 52.5915C465.966 50.5594 460.242 48.3848 457.26 48.3848C455.902 48.3848 454.915 48.7275 453.978 49.0954C452.92 49.5064 452.009 49.9397 451.044 49.9397C448.675 49.9397 442.6 47.6547 442.6 45.4385C442.6 42.8308 452.263 41.8282 453.321 41.8282L454.281 39.7029C447.268 39.7029 438.917 42.102 438.917 45.2783C438.917 46.1928 439.458 46.6491 439.458 47.4934C439.458 48.6375 438.917 49.4151 438.917 50.6929C438.917 51.5404 439.437 52.6129 440.043 53.55C440.701 54.5346 441.478 55.1732 441.478 55.9998C441.478 56.6158 441.053 57.3422 441.053 58.7851C441.053 61.8688 442.861 63.7463 446.377 67.4233L447.081 68.1567C444.172 69.2536 438.753 71.5384 437.486 72.0651C433.102 73.8446 432 76.0187 432 79.4483C432 80.7715 432 82.2792 432.092 83.6286Z" fill="#4C2623"/>
<path fill-rule="evenodd" clip-rule="evenodd" d="M462.491 12.4341C462.491 12.2518 462.325 12.0693 462.095 12.0693C461.881 12.0693 461.767 12.2076 461.553 12.3671C460.659 13.1203 459.863 13.875 459.02 14.8121C457.824 16.1159 456.817 17.8503 455.994 19.7491L457.259 20.5035C458.128 19.2454 460.919 14.9474 462.351 12.7783C462.444 12.643 462.491 12.5273 462.491 12.4341Z" fill="#4C2623"/>
<path fill-rule="evenodd" clip-rule="evenodd" d="M432 135.668C432 136.423 432.187 136.858 432.515 137.247C432.915 137.705 433.475 138.002 434.368 138.002H436.55C437.443 138.002 438.003 137.705 438.403 137.247C438.731 136.858 438.917 136.423 438.917 135.668V114.417H439.035C439.035 114.417 451.139 135.304 451.631 136.082C452.313 137.177 453.461 138.002 455.103 138.002H458.836C459.724 138.002 460.287 137.705 460.685 137.247C461.017 136.858 461.202 136.423 461.202 135.668V109.136H510.205C510.697 109.136 511.072 108.998 511.353 108.769C511.658 108.497 511.8 108.128 511.8 107.583V105.568C511.8 105.022 511.658 104.654 511.353 104.383C511.072 104.152 510.697 104.017 510.205 104.017H456.723C455.831 104.017 455.269 104.311 454.87 104.769C454.542 105.16 454.354 105.591 454.354 106.346V127.102H454.235C454.235 127.102 442.578 106.851 442.014 105.915C441.616 105.249 441.171 104.792 440.584 104.45C439.997 104.13 439.386 103.924 438.216 103.924H434.368C433.475 103.924 432.915 104.22 432.515 104.678C432.187 105.068 432 105.503 432 106.256V135.668Z" fill="#4C2623"/>
<path fill-rule="evenodd" clip-rule="evenodd" d="M470.419 122.643C470.725 119.832 472.928 117.73 476.284 117.73C479.569 117.73 481.846 119.832 482.149 122.643H470.419ZM488.292 127.007C488.694 126.644 488.881 126.115 488.881 125.136C488.881 122.14 487.92 119.031 485.903 116.658C483.84 114.257 480.693 112.634 476.262 112.634C468.121 112.634 463.548 118.827 463.548 125.363C463.548 132.334 468.452 138.46 476.307 138.46C480.228 138.46 484.072 137.018 486.275 134.483C487.24 133.383 488.015 131.852 488.015 130.917C488.015 130.596 487.943 130.322 487.755 130.119C487.568 129.888 487.286 129.75 486.794 129.75H483.015C482.267 129.75 481.749 130.023 481.376 130.575C480.274 132.15 478.676 132.975 476.331 132.975C472.815 132.975 470.538 130.368 470.374 127.509H486.7C487.427 127.509 487.943 127.35 488.292 127.007Z" fill="#4C2623"/>
<path fill-rule="evenodd" clip-rule="evenodd" d="M440.373 30.9259C440.373 31.0858 440.489 31.2894 440.748 31.2894C440.912 31.2894 441.053 31.2227 441.359 31.1083L449.941 28.274L449.521 26.9019C446.025 27.4739 443.493 28.3424 440.606 30.5347C440.442 30.6732 440.373 30.7664 440.373 30.9259Z" fill="#4C2623"/>
<path fill-rule="evenodd" clip-rule="evenodd" d="M445.58 14.6084C444.268 13.6226 442.79 12.8253 441.053 12.1361L440.749 12.0693C440.489 12.0693 440.374 12.2518 440.374 12.4115C440.374 12.5498 440.419 12.6642 440.632 12.8467C442.671 14.5368 446.615 17.7619 447.835 18.7433L448.817 17.6466C447.761 16.4353 446.68 15.4283 445.58 14.6084Z" fill="#4C2623"/>
<path fill-rule="evenodd" clip-rule="evenodd" d="M575.03 138.003C572.698 138.003 570.791 136.147 570.791 133.874C570.791 131.603 572.697 129.747 575.03 129.747C577.359 129.747 579.242 131.603 579.242 133.874C579.242 136.146 577.36 138.003 575.03 138.003ZM575.03 130.531C573.145 130.532 571.598 132.039 571.598 133.874C571.598 135.709 573.145 137.239 575.03 137.239C576.913 137.239 578.458 135.708 578.458 133.874C578.458 132.039 576.913 130.531 575.03 130.531ZM575.837 136.079C575.612 135.446 575.924 134.245 575.007 134.245L574.287 134.245V136.08H573.256L573.256 131.625H575.298C576.126 131.625 576.845 131.777 576.845 132.76C576.845 133.415 576.44 133.722 575.814 133.83C577.048 134.005 576.598 135.207 576.955 136.079H575.837ZM574.895 132.323H574.287V133.568H574.939C575.409 133.568 575.792 133.503 575.792 132.935C575.792 132.389 575.365 132.323 574.895 132.323Z" fill="#4C2623"/>
<defs>
<clipPath id="clip0_817_44326">
<rect width="100.617" height="67.6491" fill="white" transform="translate(0 67.7346)"/>
</clipPath>
</defs>
</svg>
