<svg width="45" height="31" viewBox="0 0 45 31" fill="none" xmlns="http://www.w3.org/2000/svg">
<g clip-path="url(#clip0_255_35206)">
<path d="M14.0163 30.7942L1.03413 30.8163C0.489106 30.8171 0.0464699 30.376 0.0448947 29.831L0.0409567 27.5682C0.0401691 27.0231 0.48123 26.5797 1.02625 26.5789L3.91678 26.5742C4.17984 26.5742 4.39249 26.36 4.39249 26.0969L4.3602 7.10926C4.3602 6.8462 4.14597 6.63354 3.88291 6.63354L0.992388 6.63827C0.447363 6.63906 0.0039391 6.198 0.00315149 5.65297L1.05319e-06 3.25549C-0.000786555 2.71047 0.440274 2.26783 0.985299 2.26626L6.39774 2.2568C8.31163 2.25365 9.86637 3.80288 9.86952 5.71677V6.31929L9.87504 9.06489C10.231 8.66872 10.628 8.28358 11.0683 7.91735C11.7393 7.28175 12.5159 6.68553 13.4429 6.20509C15.4308 5.10007 18.9199 3.8777 24.2465 4.23606C24.3678 4.24394 24.3954 4.0683 24.2772 4.0368C18.0693 2.37888 14.8118 3.73121 13.55 4.53142C13.3311 4.67082 13.0546 4.4629 13.131 4.2148C13.8115 2.01265 15.0882 0.69734 17.4959 0.17358C19.5248 -0.268268 21.167 0.159403 25.0011 1.20062C27.4545 1.86694 28.8021 1.76219 29.5385 1.48652C29.8212 1.3802 30.0859 1.66925 29.9709 1.94885C29.0509 4.17778 26.4881 8.83491 20.6818 10.1376C18.4844 10.6307 16.1633 10.559 13.9265 10.2904C9.87661 9.80446 10.0727 15.5981 9.89079 18.3114L9.90418 26.0883C9.90418 26.3513 10.1184 26.564 10.3815 26.564L14.0092 26.5577C14.5542 26.5569 14.9969 26.9979 14.9984 27.543L15.0024 29.8058C15.0032 30.3508 14.5621 30.7942 14.0171 30.795L14.0163 30.7942Z" fill="white"/>
<path d="M42.1501 25.5987C40.4835 25.6019 39.3391 24.3181 39.3359 22.605C39.3328 20.8439 40.5213 19.6042 42.1871 19.6011C43.8537 19.5979 44.9981 20.8337 45.0012 22.5948C45.0044 24.3086 43.9112 25.5956 42.1501 25.5987Z" fill="white"/>
<path d="M25.9416 11.4715C20.1841 11.4817 16.4808 15.923 16.4903 21.2118C16.5005 27.0118 20.7292 30.8427 26.8276 30.8324C29.411 30.8277 31.6879 30.3276 33.5861 29.2942C33.7869 29.1848 33.9161 28.9776 33.9374 28.75L34.1681 26.1879C34.2162 25.6539 33.6648 25.2798 33.1812 25.5106C31.3288 26.3974 29.3866 26.9039 27.5034 26.9078C24.4994 26.9133 22.1681 25.7256 21.4293 23.0383C21.3884 22.8886 21.5065 22.7382 21.6617 22.7382L33.9444 22.7169C34.4658 22.7161 34.9085 22.3263 34.9636 21.808C35.0132 21.3386 35.0416 20.8385 35.0408 20.4124C35.0321 15.4654 31.9124 11.4612 25.9416 11.4715ZM21.3065 19.4972C21.8129 16.4255 23.8583 15.2276 25.9053 15.2244C28.6344 15.2197 30.301 16.9225 30.3908 19.4814L21.3065 19.4972Z" fill="white"/>
<path d="M33.1902 3.03061C33.1902 3.76466 32.6145 4.34041 31.8647 4.34041C31.1149 4.34041 30.5312 3.76466 30.5312 3.03061C30.5312 2.29656 31.1227 1.73657 31.8647 1.73657C32.6066 1.73657 33.1902 2.31231 33.1902 3.03061ZM30.8628 3.03061C30.8628 3.60635 31.2889 4.06395 31.8725 4.06395C32.4562 4.06395 32.8586 3.60635 32.8586 3.03849C32.8586 2.47062 32.4404 1.99727 31.8647 1.99727C31.2889 1.99727 30.8628 2.46275 30.8628 3.03061ZM31.6599 3.70874H31.3598V2.4147C31.478 2.39107 31.6441 2.37532 31.8568 2.37532C32.1017 2.37532 32.212 2.4147 32.3065 2.46984C32.3774 2.52497 32.4325 2.62736 32.4325 2.75416C32.4325 2.89593 32.3223 3.00698 32.164 3.05424V3.06999C32.29 3.11725 32.3609 3.21176 32.401 3.38582C32.4404 3.58273 32.464 3.66227 32.4955 3.70953H32.1718C32.1325 3.66227 32.1088 3.54413 32.0694 3.3937C32.0458 3.25193 31.9671 3.18892 31.8009 3.18892H31.6591V3.70953L31.6599 3.70874ZM31.6678 2.97469H31.8095C31.9749 2.97469 32.1096 2.91956 32.1096 2.78567C32.1096 2.66753 32.023 2.58876 31.8332 2.58876C31.7544 2.58876 31.6993 2.59664 31.6678 2.60452V2.97548V2.97469Z" fill="white"/>
</g>
<defs>
<clipPath id="clip0_255_35206">
<rect width="45" height="30.8325" fill="white"/>
</clipPath>
</defs>
</svg>
