<svg xmlns="http://www.w3.org/2000/svg" viewBox="0 0 467 250"><defs><clipPath id="clip-path"><path d="M0 0h256.43v175.94H0z" style="fill:none"/></clipPath></defs><g id="nestleTrash"><path d="M397.55 71.51c-.79-.47-1.92-1.2-2.51-1.59-2.91 1.26-5.78 3.77-8.24 6.3-5.63 5.81-5.12 9.15-11.07 11.41a42.41 42.41 0 0 1-5.67 1.7c-1.38-4.21-4.84-8.39-8.5-8.39-2.54 0-5.48 1.31-8.86 2.79a74.59 74.59 0 0 0-8.76 4.46l1.55 2.06c1.18-.64 4.59-2.31 8-3.76 3-1.26 5.63-2.29 7.43-2.29 2.91 0 4.8 3.26 5.84 5.88a67 67 0 0 1-11.95 1.12 2 2 0 0 0-1.49.39 2.44 2.44 0 0 0-.65 1.31l-.23.95h2c10.54 0 20.49-1.65 26.89-5.49a9.84 9.84 0 0 0 2.7.41c3.66 0 7.45-2 9.81-3.79a2.16 2.16 0 0 0 1-1.87 6 6 0 0 0-.06-.86l-.11-1.09c-3.38 2.65-6.2 4.63-9.69 4.63a4.68 4.68 0 0 1-1.44-.17c3.41-5.41 6.46-10.2 13.93-14.11" style="fill:#fff;fill-rule:evenodd"/><path d="M375.17 77.84c-2.4 0-2.17-4-2.34-7.25-8.46.81-13.75 3.29-19.56 6.39l.68 2.56a37.54 37.54 0 0 1 15.72-5.43c.06 3.06 1.38 7.16 4.91 7.16 3.77 0 8.36-5.85 13.75-12.71l1.41-1.82c-.73-.55-1.55-1.06-2.06-1.53-5.52 7-10.31 12.63-12.51 12.63M356.79 34.82a12.23 12.23 0 0 1-2.76-.37 12 12 0 0 0-2.93-.36 9.27 9.27 0 0 0-6.26 2.4c-3 2.81-3.16 5.85-3.35 8.56-.25 3.6-.93 4.49-2.9 7.11a76.48 76.48 0 0 0-5.5 8c.54.25 2.31 1.2 2.93 1.53 1.94-2.9 4.65-6.47 6.43-9.18 1.6-2.45 2.25-3.51 2.36-6.8 0-.55 0-1.08.09-1.62a7.3 7.3 0 0 1 2.23-5 6.65 6.65 0 0 1 4.71-1.82c1.68 0 2.67.48 4.14.48a6.86 6.86 0 0 0 2.47-.5L359 37l-1.3 3.07 3.05 1.22c-1.95 1.2-6.2 6.36-6.2 12.47a23.59 23.59 0 0 0 .82 6 .45.45 0 0 0 .47.39.47.47 0 0 0 .51-.47v-.65a34.07 34.07 0 0 1 1-7.47 19.26 19.26 0 0 1 8.1-10.56l-4.85-2.09 2.08-5-2.28.47a17.56 17.56 0 0 1-3.61.54M375.05 14c-1.83 0-2.33 1.75-2.33 2.73 0 .78.28 1.7 1.27 1.7a4.74 4.74 0 0 0 2.61-1.23c.77-.61 1.27-1.11 1.27-1.62s-.45-.92-1.13-1.22a3.89 3.89 0 0 0-1.69-.36M375.81 49.37h-12l-1.36 2.57h14.4ZM347.18 25.72c.76-.44 1.41-1.08 1.41-1.75a1.21 1.21 0 0 0-.45-.9 2.93 2.93 0 0 0-1.89-.75 2.31 2.31 0 0 0-2.14 2.51c0 .92.45 1.45 1.32 1.45a3.69 3.69 0 0 0 1.75-.56M430.94 76.9l1.38.94a.89.89 0 0 0 .51.22.51.51 0 0 0 .48-.49.56.56 0 0 0-.23-.43c-4.12-3.7-8.54-8.22-12.68-12.57-3.24-3.43-6.57-7-9.5-10.71a.73.73 0 0 0-.59-.36.46.46 0 0 0-.5.47c0 .39.28.87 1 2a58.51 58.51 0 0 0 8.06 10.62 80.25 80.25 0 0 0 12.07 10.31M409.86 168.75h3.35a2.31 2.31 0 0 0 1.89-.81 2.54 2.54 0 0 0 .56-1.67v-36.5a2.5 2.5 0 0 0-.56-1.67 2.28 2.28 0 0 0-1.89-.81h-3.35a2.29 2.29 0 0 0-1.89.81 2.5 2.5 0 0 0-.56 1.67v36.5a2.54 2.54 0 0 0 .56 1.67 2.32 2.32 0 0 0 1.89.81" style="fill:#fff;fill-rule:evenodd"/><path d="M354.37 40.14a2.87 2.87 0 0 0-1.61-.47 1.82 1.82 0 0 0-1.89 1.42 3.08 3.08 0 0 0-.14.95c0 1 .45 1.7 1.19 1.7 1 0 3-1.4 3-2.6a1.18 1.18 0 0 0-.59-1M316 75.39l.2 1.2a1.36 1.36 0 0 0 .71 1.11 6 6 0 0 0 2.51.28 29.7 29.7 0 0 0 6.9-.72 15.11 15.11 0 0 0 12.82 7 25.12 25.12 0 0 0 11.7-3.48l-.71-2.54c-3.71 2.06-7.58 3.43-11 3.43-3.8 0-7.18-1.62-10-5.83-1.18-1.78-2.11-4-3.25-6-1.35-2.34-2.81-3.6-5.37-3.6-2.35 0-4.63 1-7.05 2l.11.53c.2.86.54 1.47 1.36 1.47a3.18 3.18 0 0 0 .93-.22 11.83 11.83 0 0 1 3.71-.78c2.12 0 3.13 1.23 4.57 4.24l.53 1.12a31.13 31.13 0 0 1-7.46.75ZM426.74 150c.37-3.43 3-6 7.05-6a6.69 6.69 0 0 1 7 6Zm21.53 5.33a2.86 2.86 0 0 0 .71-2.29 16.22 16.22 0 0 0-3.58-10.34c-2.48-2.93-6.31-4.91-11.64-4.91-9.78 0-15.28 7.55-15.28 15.53 0 8.5 5.9 16 15.33 16 4.71 0 9.33-1.76 12-4.85a8.21 8.21 0 0 0 2.09-4.36 1.41 1.41 0 0 0-.31-1 1.37 1.37 0 0 0-1.16-.45h-4.53a2.17 2.17 0 0 0-2 1 6.76 6.76 0 0 1-6 2.93 7 7 0 0 1-7.17-6.67h19.68a2.61 2.61 0 0 0 1.91-.61ZM425.92 9.24a159.89 159.89 0 0 1-12.54 18.82l2.17 2.32c2-2.23 4.26-6 6.68-9.76h.45v.61c0 3.16 1.64 5.5 5.67 5.5 2.48 0 6.37-1.23 10-2.46 3-1 5.83-2.09 7.21-2.48v-3.34c-1.57.47-4.78 1.69-8.11 2.84-3.5 1.2-6.93 2.29-8.93 2.29-2.2 0-2.82-1.2-2.82-2.91 0-3.51 2.22-8.55 3.63-11.43ZM398.36 20.57c-2.84-2.71-5-5.78-6.4-7.26-3.07-3.32-7-7.41-13.58-7.41a12.62 12.62 0 0 0-11.84 7.58c-.4 1-.7 2.23-1 2.68-.61 1-3.4 5.72-4.56 7.58h5.21l-2.53 4.75a34 34 0 0 1 7.89-1.12c2.51 0 4.31.59 5.1 2.15 1.47 2.9 1.47 11.68 3.95 18.29 2.3 6.22 7.94 12.3 14.28 17l.29.09a.47.47 0 0 0 .5-.45.53.53 0 0 0-.19-.42c-5.3-5.24-9.62-11-11.92-17.4-2.29-6.19-1.92-14.89-3.92-18.76-1.32-2.57-4.14-3.24-6.74-3.24a24 24 0 0 0-4.93.61l2.28-3.82h-3.85c.82-1.42 1.67-2.73 2.09-3.51s.51-1.51.95-2.65a9.29 9.29 0 0 1 8.94-6c5.3 0 8.4 3.38 11.47 6.75 1.41 1.56 3.72 4.83 6.4 7.25 1.83 1.67 5.32 3.54 10.7 9a95.25 95.25 0 0 1 10.52 12.83C431.08 64.82 440 82.2 445 95.74l-.08.06c-14.29-9.59-26.66-18.66-36.64-29.8a112.73 112.73 0 0 1-18.57-28.9c-.37-.78-.68-1.5-1-2.25-.14-.31-.28-.39-.5-.39a.45.45 0 0 0-.48.47 15.75 15.75 0 0 0 .44 2.31c2.86 12.16 10.74 23.07 19.17 32.13A179.54 179.54 0 0 0 433 91.73l6.11 17.27a4 4 0 0 1 .31 1.29.88.88 0 0 1-.28.72 1.15 1.15 0 0 1-.9.25h-1.84a2 2 0 0 1-1.37-.33 2.05 2.05 0 0 1-.62-1c-.54-1.62-3.76-10.68-4.37-12.52a.54.54 0 0 0-.54-.45.48.48 0 0 0-.48.47 12.5 12.5 0 0 0 .23 1.26c.82 4.12 1.77 8.76 2.17 10.51a12.64 12.64 0 0 1 .37 2.12 1.46 1.46 0 0 1-.54 1.2l-1.89 1.9c-.45.45-.7.56-1.07.56s-.82-.31-1-1.09c-2.14-9.9-5.38-22.17-6.22-25.57-.2-.76-.34-1.18-.79-1.18s-.54.29-.54.62a6.18 6.18 0 0 0 .09.78c.5 3.51 2.56 16.32 4.79 28 .39 2 1.15 3.12 2.9 3.12a3.2 3.2 0 0 0 2.25-1c1.16-1.14 1.5-1.44 2.88-2.79a4 4 0 0 1 3.35-1.33h4.17a2.59 2.59 0 0 0 2-.7 2.38 2.38 0 0 0 .74-1.84 6.93 6.93 0 0 0-.54-2.43c-1.07-2.84-4.51-12.46-5.52-15.16l.08-.06c3.53 2.65 8.66 6 10.91 6 .7 0 1.13-.3 1.13-1.39 0-5.13-8.63-26.24-28.33-55.3C410.17 28.23 401 23 398.36 20.57M436 33.7c3.38-1.42 9.44-3.82 12.94-5.08v-3.4a247.25 247.25 0 0 0-27.74 12.13c.23.28 1.69 2.32 1.86 2.57 3.56-1.45 6.74-2.4 9.61-2.4a49.15 49.15 0 0 0 12.85-1.28v-2.57A58.94 58.94 0 0 1 437 34.9c-1.27 0-1.64-.17-1.64-.59 0-.25.17-.41.65-.61M355.27 18.81a10.47 10.47 0 0 1-4.85-.78 11.31 11.31 0 0 0-5.42-1.48 9.51 9.51 0 0 0-6.51 2.53c-2.11 1.93-2.76 4.5-3.52 7.31a20.33 20.33 0 0 1-2.87 6.78c-1.33 1.87-2.28 2.79-5.31 6.3-4 4.66-6.05 8.42-9.52 16.79a22.49 22.49 0 0 1 2.28-.11h1.41l.42-.9c1.95-4.13 4.57-9.7 8.24-14l1.26-1.47c3.78-4.38 6.12-7 7.59-12.94.5-2.12.92-4 2.36-5.38a6.56 6.56 0 0 1 4.59-1.76 9.48 9.48 0 0 1 4 1 6.68 6.68 0 0 0 3.35.7c.51 0 .87 0 1.21-.06L352 24l2.68 1.86c-3.35 1-5.13 4.19-5.73 5.67a2.28 2.28 0 0 0-.16.69.41.41 0 0 0 .45.45c.37 0 .65-.28 1.13-.84 1.63-1.95 2.93-3.29 9-5.16l-4.26-3.18 3.22-4.65ZM302.4 29c-6.9 0-9.83 3.29-9.83 5.5a5.74 5.74 0 0 0-3.39 5.18 6.91 6.91 0 0 0 7.13 7.12 6.36 6.36 0 0 0 3.7-1.26 7.77 7.77 0 0 0 2.53.39 6.58 6.58 0 0 0 5.64-2.87 4.72 4.72 0 0 0 .65 0 6.72 6.72 0 0 0 5.75-3.74 2.83 2.83 0 0 0 .39-1.25c0-.31-.14-.56-.45-.56s-.45.36-1.16 1c-1.57 1.42-4 2-6.48 2a5.36 5.36 0 0 1-4.42 2.67 5.57 5.57 0 0 1-3.27-1 3.77 3.77 0 0 1-2.82 1.25 3.61 3.61 0 0 1-3.8-3.76 3.77 3.77 0 0 1 2.43-3.49c.25-2.76 3.24-4.63 7-4.63a12.46 12.46 0 0 1 1.47.09 5.39 5.39 0 0 1 3.83-2.1 3.28 3.28 0 0 0 .93-.19.62.62 0 0 0 .33-.59.61.61 0 0 0-.3-.55 3.47 3.47 0 0 0-.93-.25 6.51 6.51 0 0 1-5-4.08 7.27 7.27 0 0 1-7.39-7.16v-.26a3.69 3.69 0 0 1-2.37-3.46 3.75 3.75 0 0 1 3.77-3.77 3.88 3.88 0 0 1 3.08 1.54 7.47 7.47 0 0 1 9.09 5.6 5.83 5.83 0 0 1 5.28 5.19c.14.73.25 1.34.73 1.34s.62-.56.79-1.31a5.79 5.79 0 0 1 1.91-3.46 6.67 6.67 0 0 1 6.68-6.8 3.81 3.81 0 0 1 7.25 1.59 3.68 3.68 0 0 1-1.52 3 7.51 7.51 0 0 1 .33 2c0 2.34-1.41 4-4 4.85a7.16 7.16 0 0 1-2 3.65c-1.69 1.62-3.41 1.62-3.41 2.29 0 .36.25.59 1 .59 3.12 0 6.19-1.74 6.56-4.61a7.16 7.16 0 0 0 4.79-6.36 3.41 3.41 0 0 0-.31-1.64 5.56 5.56 0 0 0 1.78-4.1 6.68 6.68 0 0 0-2.11-4.77 6.86 6.86 0 0 0-4.8-1.89 6.79 6.79 0 0 0-5.69 3c-3.07 0-7 3.38-7 8.2h-.43a3.81 3.81 0 0 0-3.49-2.87c-1.19-3.52-3.86-6.53-8.26-6.53a11.86 11.86 0 0 0-1.66.11 6.68 6.68 0 0 0-4.74-1.89 6.9 6.9 0 0 0-7 6.88c0 2.4 1.1 4 3.19 5.5v.45c0 3.06 3.38 7.86 8.4 7.86a2.57 2.57 0 0 0 2.08 2V29ZM372.85 162.92a8.81 8.81 0 0 1-3.83-.81 4.69 4.69 0 0 1-1.94-1.7c-.43-.64-.57-1.11-1.21-1.47a3 3 0 0 0-1.52-.26h-3.5a1.58 1.58 0 0 0-1.38.53 1.85 1.85 0 0 0-.34 1.2 6.58 6.58 0 0 0 1.32 3.77c2.15 2.84 6.63 5.13 12.35 5.13s13.44-2.32 13.44-9.79a7.8 7.8 0 0 0-1.6-4.91c-1.33-1.7-3.22-2.87-6.43-3.68l-6.4-1.62c-2.64-.67-3.89-1.14-3.89-2.75s1.42-2.83 4.68-2.83a6.43 6.43 0 0 1 4.79 1.6c.94 1 .76 1.47 1.5 1.86a3.78 3.78 0 0 0 1.74.23h3.19A1.4 1.4 0 0 0 385 147a1.82 1.82 0 0 0 .37-1.29 6.82 6.82 0 0 0-2.65-4.74 15.61 15.61 0 0 0-10.09-3.2c-7.72 0-12.79 3.62-12.79 9.42a7.13 7.13 0 0 0 2 5.05 12.83 12.83 0 0 0 6.48 3.35l6.46 1.61c1.77.45 3.35 1 3.35 2.51 0 2.37-2.54 3.18-5.25 3.18" style="fill:#fff;fill-rule:evenodd"/><path d="M313.84 29.4a70.68 70.68 0 0 1 6.37 11.83 25.74 25.74 0 0 1 2.2-2.93 47.71 47.71 0 0 0-7.27-10.15ZM354.06 67.19a23.46 23.46 0 0 1 8.29-1.7 39.88 39.88 0 0 1 5.29.42 49.81 49.81 0 0 0 6.48.53c5.3 0 10.49-2.79 11.31-3.29a17.82 17.82 0 0 1-1.95-1.93 25.9 25.9 0 0 1-9.48 2.12 39.31 39.31 0 0 1-5.3-.39 50.62 50.62 0 0 0-6.06-.53 16.83 16.83 0 0 0-10.17 2.76ZM349.1 65l-1.64-2c-6.31 2.4-13.33 6.27-13.33 10.24 0 2.25 1.7 4 5.5 4 5.58 0 11.53-2.79 16.29-5.38l-.68-.92a1.38 1.38 0 0 0-1.24-.74 2.59 2.59 0 0 0-1 .28c-4.08 2-8.51 4-12.63 4-2.37 0-3-.72-3-1.73 0-2.84 7.84-6.13 11.73-7.67M403.35 144.57a2 2 0 0 0 1.38-.45 1.78 1.78 0 0 0 .53-1.45v-1.92a1.8 1.8 0 0 0-.53-1.45 2.09 2.09 0 0 0-1.38-.44h-5.1v-9.09a2.55 2.55 0 0 0-.57-1.68 2.3 2.3 0 0 0-1.88-.81h-3.19a2.33 2.33 0 0 0-1.89.81 2.6 2.6 0 0 0-.56 1.68v9.09h-1.58a2.09 2.09 0 0 0-1.38.44 1.8 1.8 0 0 0-.53 1.45v1.92a1.78 1.78 0 0 0 .53 1.45 2 2 0 0 0 1.38.45h1.58v13.92c0 3.56 1 5.8 2.82 7.58s3.89 2.68 7.72 2.68h2.4a2.1 2.1 0 0 0 1.38-.45 1.84 1.84 0 0 0 .59-1.45v-2.42a1.84 1.84 0 0 0-.59-1.45 2.1 2.1 0 0 0-1.38-.45h-.34a4.57 4.57 0 0 1-3.28-1.06 4.63 4.63 0 0 1-1.26-3.54v-13.36ZM446.19 133.53a2.1 2.1 0 0 0 1.38-.45 1.82 1.82 0 0 0 .53-1.45V129a2.51 2.51 0 0 0-.53-1.87 1.89 1.89 0 0 0-1.38-.52 16.47 16.47 0 0 0-1.67.13L422 129a1.65 1.65 0 0 0-1.18.51 1.61 1.61 0 0 0-.36 1.14v1.45a1.34 1.34 0 0 0 .31 1 1.42 1.42 0 0 0 1.12.42ZM404.84 75.13a42.94 42.94 0 0 1-17.25 18.94c-3.12 1.76-5.94 2.9-12 2.9H362.4a37.91 37.91 0 0 0-10 1.2c-2.48.64-4.07 1.28-6.57 1.28a13.06 13.06 0 0 1-8.83-3.54l3.11-2.42-1.55-2c-.91.64-11.92 8.7-14.24 10.51l-.14-.08a14.09 14.09 0 0 0 .06-1.56c0-6.14-2.88-7.61-7.24-9.34l-3 1.73c6 2 7.49 3.56 7.49 8 0 3.51-1.26 4.91-3.1 6a12.92 12.92 0 0 1-6.28 1.6 2 2 0 0 0-1.58.47 2 2 0 0 0-.5 1.53v1h.7a16.53 16.53 0 0 0 11.1-3.57L334.39 98a16.51 16.51 0 0 0 11.55 4.79c3 0 4.9-.71 7.67-1.41a31.33 31.33 0 0 1 8.79-1h13.22c6.76 0 10-1.39 13.64-3.4a44 44 0 0 0 18.29-20.16c-1-.62-1.92-1.17-2.71-1.71" style="fill:#fff;fill-rule:evenodd"/><path d="M289.3 102.41h1c2.11 0 2.36-1.26 2.36-2.45v-2.74c0-2.31.11-4.38 3.89-6 1.52-.67 9-3.68 14.54-6a12.29 12.29 0 0 1 4.85-1.28c1.89 0 4.06.81 6.76 2.4a28.06 28.06 0 0 1 6.57 5.24l2.39-1.82a31.1 31.1 0 0 0-7.75-6.21c-2.84-1.67-5.38-2.65-7.52-2.65a9 9 0 0 0-2.34.33 8.76 8.76 0 0 1-2.37.42c-1 0-1.91-.25-3.18-1.7-.48-.53-3.53-4-4.17-5a4.83 4.83 0 0 1-.88-2.54 3.17 3.17 0 0 1 .37-1.54 19.5 19.5 0 0 0 9.81 3.71l-.54-2.65c-5.66-1.47-11.69-6.41-11.69-9.59a3.94 3.94 0 0 1 .42-1.73c2.2 2 7.36 4.1 10.14 4.1a10.12 10.12 0 0 0 3.95-1 9.74 9.74 0 0 1 3.78-.88c3.61 0 8.05 1.72 12 3.37a2.25 2.25 0 0 0 .73.14 1.49 1.49 0 0 0 1.41-.87l.51-.92c-4.31-2.48-11.18-5.13-14.77-5.13a10 10 0 0 0-3.94.87 10 10 0 0 1-3.52 1c-2.85 0-10.15-2.79-10.15-5.5 0-3.18 11.61-4.4 12.88-4.4l1.16-2.57c-8.42 0-18.46 2.92-18.46 6.8 0 1.11.66 1.67.66 2.7 0 1.4-.66 2.35-.66 3.9a7.35 7.35 0 0 0 1.36 3.49c.79 1.2 1.72 2 1.72 3a25.08 25.08 0 0 0-.51 3.4c0 3.76 2.17 6.05 6.4 10.54l.84.89c-3.49 1.34-10 4.13-11.52 4.77-5.27 2.17-6.6 4.82-6.6 9 0 1.61 0 3.45.12 5.1M325.82 15.54a.47.47 0 0 0-.48-.44c-.25 0-.39.17-.65.36a29.44 29.44 0 0 0-3 3 21.73 21.73 0 0 0-3.64 6l1.52.92c1.05-1.54 4.4-6.78 6.12-9.43a.79.79 0 0 0 .17-.42M289.18 165.9a2.77 2.77 0 0 0 .62 1.93 2.73 2.73 0 0 0 2.23.92h2.62a2.73 2.73 0 0 0 2.23-.92 2.77 2.77 0 0 0 .61-1.93V140h.15s14.54 25.49 15.13 26.44a4.74 4.74 0 0 0 4.17 2.34h4.49a2.64 2.64 0 0 0 2.84-2.85v-32.4h58.87a2.06 2.06 0 0 0 1.38-.45 1.79 1.79 0 0 0 .54-1.45v-2.45a1.79 1.79 0 0 0-.54-1.45 2.06 2.06 0 0 0-1.38-.45h-64.25a2.73 2.73 0 0 0-2.23.92 2.77 2.77 0 0 0-.62 1.93v25.32h-.14s-14-24.71-14.68-25.85a4.86 4.86 0 0 0-1.72-1.79 5.31 5.31 0 0 0-2.85-.64H292a2.73 2.73 0 0 0-2.23.92 2.77 2.77 0 0 0-.62 1.93Z" style="fill:#fff;fill-rule:evenodd"/><path d="M335.34 150c.37-3.43 3-6 7.05-6a6.69 6.69 0 0 1 7 6Zm21.48 5.33a2.86 2.86 0 0 0 .7-2.29 16.21 16.21 0 0 0-3.52-10.33c-2.48-2.93-6.26-4.91-11.59-4.91-9.78 0-15.27 7.55-15.27 15.53 0 8.5 5.89 16 15.33 16 4.71 0 9.33-1.76 12-4.85a8.21 8.21 0 0 0 2.09-4.36 1.37 1.37 0 0 0-.31-1 1.33 1.33 0 0 0-1.15-.45h-4.54a2.18 2.18 0 0 0-2 1 6.79 6.79 0 0 1-6.06 2.93 7 7 0 0 1-7.16-6.67h19.56a2.62 2.62 0 0 0 1.92-.61ZM299.24 38.11a.44.44 0 0 0 .46.44 2.27 2.27 0 0 0 .73-.22l10.31-3.46-.5-1.67a21.66 21.66 0 0 0-10.72 4.43c-.19.17-.28.28-.28.48M305.5 18.2a22.68 22.68 0 0 0-5.44-3l-.36-.08a.42.42 0 0 0-.46.42c0 .17.06.3.31.53 2.46 2.06 7.19 6 8.66 7.19l1.18-1.34a25.65 25.65 0 0 0-3.89-3.7M461 168.75a5 5 0 1 1 5.06-5 5.07 5.07 0 0 1-5.06 5Zm0-9.12a4.1 4.1 0 1 0 4.12 4.08 4.13 4.13 0 0 0-4.12-4.08Zm1 6.77c-.27-.77.1-2.23-1-2.23h-.86v2.23h-1.24V161h2.45c1 0 1.86.18 1.86 1.38 0 .8-.49 1.18-1.24 1.31 1.48.21.94 1.68 1.37 2.74Zm-1.14-4.58h-.72v1.52h.78c.56 0 1-.08 1-.77s-.51-.75-1.08-.75Z" style="fill:#fff;fill-rule:evenodd"/></g><g id="re" style="clip-path:url(#clip-path)"><path d="m79.87 175.73-74 .12a5.62 5.62 0 0 1-5.63-5.62v-12.91a5.64 5.64 0 0 1 5.62-5.65h16.47a2.71 2.71 0 0 0 2.67-2.75l-.15-108.35a2.72 2.72 0 0 0-2.72-2.72H5.66A5.62 5.62 0 0 1 0 32.26V18.58a5.64 5.64 0 0 1 5.61-5.65h30.85a19.76 19.76 0 0 1 19.78 19.69v19.11a65.31 65.31 0 0 1 6.8-6.55 59.36 59.36 0 0 1 13.56-9.77c11.33-6.31 31.21-13.28 61.57-11.24a.57.57 0 0 0 .17-1.13C103 13.58 84.4 21.29 77.21 25.86a1.59 1.59 0 0 1-2.38-1.81C78.7 11.49 86 4 99.7 1c11.56-2.52 20.92-.08 42.77 5.86 14 3.8 21.66 3.21 25.85 1.63a2 2 0 0 1 2.47 2.64c-5.25 12.72-19.85 39.3-52.94 46.73-12.52 2.81-25.74 2.4-38.49.87C56.28 56 57.4 89 56.36 104.49l.08 44.38a2.72 2.72 0 0 0 2.72 2.72h20.67a5.63 5.63 0 0 1 5.64 5.62v12.92a5.63 5.63 0 0 1-5.61 5.64ZM240.19 146.08c-9.5 0-16-7.31-16-17.09 0-10.05 6.75-17.12 16.25-17.14s16 7 16 17.09c.01 9.78-6.22 17.12-16.25 17.14Z" style="fill:#fff"/><path d="M147.82 65.46C115 65.52 93.91 90.86 94 121c.06 33.1 24.15 55 58.9 54.9 14.73 0 27.7-2.88 38.52-8.77a4 4 0 0 0 2-3.11l1.31-14.62a3.92 3.92 0 0 0-5.62-3.87c-10.56 5.06-21.62 8-32.35 8-17.12 0-30.41-6.75-34.62-22.08a1.38 1.38 0 0 1 1.33-1.72l70-.12a5.84 5.84 0 0 0 5.81-5.18c.28-2.68.44-5.54.44-8-.09-28.18-17.87-51.03-51.9-50.97Zm-26.41 45.8C124.3 93.73 136 86.9 147.62 86.88c15.55 0 25 9.69 25.56 24.29ZM189.13 17.29a7.58 7.58 0 1 1-7.55-7.38 7.42 7.42 0 0 1 7.55 7.38Zm-13.26 0a5.72 5.72 0 0 0 5.75 5.9 5.59 5.59 0 0 0 5.62-5.85 5.69 5.69 0 1 0-11.37-.05Zm4.54 3.87h-1.71v-7.38a14.41 14.41 0 0 1 2.83-.23 4.65 4.65 0 0 1 2.57.54 2.07 2.07 0 0 1 .71 1.63 1.89 1.89 0 0 1-1.53 1.71v.09a2.19 2.19 0 0 1 1.35 1.8 5.87 5.87 0 0 0 .54 1.85h-1.84a6.34 6.34 0 0 1-.59-1.8c-.13-.81-.58-1.17-1.53-1.17h-.8v3Zm.05-4.18h.8c1 0 1.71-.32 1.71-1.08s-.49-1.13-1.57-1.13a4.27 4.27 0 0 0-.94.09V17Z" style="fill:#fff"/></g></svg>