<svg xmlns="http://www.w3.org/2000/svg" viewBox="0 0 169.57 159.9"><title>Traductor</title><g id="rotate"><path d="M84.79,152.14A70.48,70.48,0,1,0,14.57,81.66,70.35,70.35,0,0,0,84.79,152.14Z" style="fill:#ffc057;stroke:#370606;stroke-width:6.3147501945495605px"/><path d="M47,122.42a2.83,2.83,0,0,0,3-2.73l.12-2.55a38.53,38.53,0,0,0,16.07,15.17,31.06,31.06,0,0,0,13.65,3.29,3.32,3.32,0,0,0,.63-.11,2.88,2.88,0,0,0,2-3,3,3,0,0,0-3.07-2.85c-.16,0-16.24.58-26-18.24L58.64,114a2.78,2.78,0,0,0,3.81-1.37,3.11,3.11,0,0,0-1.41-4l-12.1-6.1a2.76,2.76,0,0,0-4,2.48,1.41,1.41,0,0,0-.05.4l-.59,13.78A3,3,0,0,0,47,122.42Z" style="fill:#ed5a48"/><path d="M126.15,47.49a2.85,2.85,0,0,0-3.09,2.67l-.17,2.54a38.54,38.54,0,0,0-15.73-15.53,31.23,31.23,0,0,0-13.57-3.6,4.34,4.34,0,0,0-.63.09,2.9,2.9,0,0,0-2,3,3,3,0,0,0,3,2.92c.17,0,16.26-.21,25.56,18.82l-5.19-2.73a2.78,2.78,0,0,0-3.84,1.28,3.11,3.11,0,0,0,1.31,4l12,6.37a2.79,2.79,0,0,0,3.14-.35,2.84,2.84,0,0,0,.94-2,1.44,1.44,0,0,0,.06-.4l.9-13.77A3,3,0,0,0,126.15,47.49Z" style="fill:#370606"/></g><g id="Layer_1" data-name="Layer 1"><path d="M89.69,93.94a22.57,22.57,0,0,1,44,9.57A22.1,22.1,0,0,1,125.42,118c-7.31,5.92-14.58,11.85-21.88,17.72l-.37.31a2.53,2.53,0,0,1-4.09-1.25c-3.14-9.4-6.34-18.78-9.39-28.2A21.87,21.87,0,0,1,89.69,93.94Zm19.06,15.42a9.35,9.35,0,0,0,11.63-6.4A9.47,9.47,0,0,0,114,91.21a9.37,9.37,0,0,0-11.63,6.4A9.51,9.51,0,0,0,108.75,109.36Z" style="fill:#f76e39"/><path d="M90.32,94.12a21.93,21.93,0,1,1,36,22.28c-2.25,2.06-4.75,3.91-7.1,5.84-2.52,2-5,4.05-7.5,6.09l-7.44,6c-.83.68-1.81,1.82-3,1.6s-1.57-1.71-1.91-2.73c-2-6-4-12-6.07-18-1-3-2.06-6-3-9.08A20.31,20.31,0,0,1,89.52,98a38.56,38.56,0,0,1,.8-3.87.66.66,0,0,0-1.27-.37,25.07,25.07,0,0,0-.9,8.49,40.26,40.26,0,0,0,2.37,8.94c2.09,6.38,4.25,12.73,6.4,19.08.55,1.59,1,3.21,1.6,4.75a3.28,3.28,0,0,0,2.33,2.26,3.71,3.71,0,0,0,3.18-1c1.31-1,2.64-2.12,3.91-3.18,5.23-4.27,10.48-8.48,15.71-12.75a35,35,0,0,0,6.48-6.21,22.46,22.46,0,0,0,3.59-7.47,23.9,23.9,0,0,0-.49-14.3A23.63,23.63,0,0,0,112.36,77,23.32,23.32,0,0,0,90.3,90.38a25.76,25.76,0,0,0-1.25,3.37A.66.66,0,0,0,90.32,94.12Z" style="fill:#f76e39"/><path d="M108.58,110a10.07,10.07,0,0,0,11.14-15.34A10.06,10.06,0,1,0,108.58,110a.66.66,0,0,0,.37-1.27,8.82,8.82,0,0,1-1-16.52,8.68,8.68,0,0,1,9.86,2.06,9,9,0,0,1,1.4,10A8.83,8.83,0,0,1,109,108.71.66.66,0,0,0,108.58,110Z" style="fill:#f76e39"/><path d="M114.9,92.44a8.17,8.17,0,0,1,4.68,8.7,8.51,8.51,0,0,1-7.61,6.94,9,9,0,0,1-6-1.72c-.69-.48-1.38.65-.7,1.13a10.05,10.05,0,0,0,12.14-.26,9.65,9.65,0,0,0,2.73-11.32,9.47,9.47,0,0,0-4.89-4.8C114.5,90.8,114.14,92.07,114.9,92.44Z" style="fill:#4c2623"/><path d="M110.77,78.13a24.18,24.18,0,0,1,14.67,4.35,21,21,0,0,1,8.42,12.25,20.43,20.43,0,0,1-1.55,14.39c-2.46,4.67-6.43,8.39-10.42,11.69-4.64,3.85-9.7,7.2-14.18,11.28-.62.56.28,1.56.91,1,4.16-3.76,8.81-7,13.22-10.45,4.24-3.41,8.36-7.18,11.15-11.89a21.87,21.87,0,0,0,2.51-15,22.47,22.47,0,0,0-7.79-13.17,25.66,25.66,0,0,0-16.83-5.73C110,76.83,109.94,78.16,110.77,78.13Z" style="fill:#4c2623"/><path d="M123.54,82.55c-.08,0-.2-.1-.29-.08.12-.89-.6-.78-1.14-1s-1.23-.18-1.49-.86c.26-.1.53-.25.79-.36A15,15,0,0,1,127.47,84a21,21,0,0,1,6.95,14.9c-.84-.11-.74.66-1,1.14-.8-.37-.7-1.5-1.51-1.87.06-.21.07-.4.13-.61.12-.42.29-.84.41-1.26.58-.43.61-1.16-.12-1.33-1.67-.39-1.24-1.42-.9-2.43.49-1.37-.36-2.22-1.15-3.15a.58.58,0,0,0-.45-.82.62.62,0,0,0-.49-.83.54.54,0,0,0-.46-.79c-.21-.06-.37-.15-.58-.21.08-.44-.07-.71-.5-.79-.21-.07-.37-.16-.58-.22.08-.44-.07-.71-.5-.79-.57-.4-1.13-.84-1.71-1.24C125,82.62,124.1,82.85,123.54,82.55Z" style="fill:#9c4533"/><path d="M133.39,100.06c.22-.44.12-1.21,1-1.14,0,1.93.29,3.91-.6,5.73a6.34,6.34,0,0,0-1.13,4.19A19.63,19.63,0,0,1,124.76,119c-.27-.31-.29-.87-.81-1l.73-1.12a1.69,1.69,0,0,0,2.14-1.5c.87.17.77-.6,1-1.07.46-.33.08-.9.37-1.28,1.24,0,1.45-.73,1.19-1.73.44.09.7,0,.79-.5.31-1.06,1.42-1.89,1-3.18.35-.59,1.22-.88,1.2-1.77.13-.42.25-.85.36-1.23a.56.56,0,0,0-.35-.84v0c0-.19.07-.4.08-.58C133.24,102.33,132.32,100.9,133.39,100.06Z" style="fill:#853830"/><path d="M92,110.82c.18-.64.37-1.27.55-1.91.73,0,1.4-.56,2.09-.08-.12.7.28.91.85.71a2.48,2.48,0,0,1,1.72,0,1.74,1.74,0,0,0,.72,2.28c-.12.89.63.83,1.12,1l-.18.64c-.93.65-.7,1.13.25,1.5-.19.5-.08,1.22-1,1.09,0-.24,0-.73-.31-.5-1,.58-.85,2.79.2,3.28a2.8,2.8,0,0,0-.15.65.59.59,0,0,0-.82.45c-.21-.06-.43-.08-.64-.14.13-1.07-.85-1-1.4-1.34-.27-.17-.4.44-.53.72-.38,0-.74,0-1.11.05-.32-.33-.55-.67-.27-1.14.83.29,1.71-.52,2.56,0A.48.48,0,0,0,96,118c0-1.3,1.21-2.09,1.21-3.38a1.3,1.3,0,0,0-.47-2c-.44-.22-.41.62-.6.93a.66.66,0,0,1-.49-.84c.15-.65.68-1.55-.76-1-.26.11-.66-.1-1-.19l-.64-.19c.1-.34.16-.69.27-1.07a1.31,1.31,0,0,0-.9.89A2.44,2.44,0,0,0,92,110.82Z" style="fill:#ed5a48"/><path d="M92,110.82l.64.19c0,.19,0,.5.12.54.31.19.41-.15.51-.35l.64.18-.62,1.16c-.2.4-.39.9,0,1.2.56.44.82-.13,1-.44.33-.5.67-.87,1.31-.72a.62.62,0,0,0,.49.83l1.11,1.07c0,1.28-1.24,2.07-1.21,3.38,0,.09-.29.23-.38.21-.86-.49-1.73.27-2.56,0a.86.86,0,0,1,0-.32c.55-1,2-1,2.51-2.63-1.08.7-1.86,1.34-2.23-.24-.14-.6-1-.33-1.48-.25-.79-.92-.71-2.14-1.15-3.15C91.2,111.41,91.82,111.5,92,110.82Z" style="fill:#d0513f"/><path d="M114.76,127.27c-.5.64-1.59.59-1.9,1.51l-.89-.26c1.06-1.58.22-2.47-1.19-3.16.12-.88-.65-.74-1.14-1,.07-.21.13-.42.19-.63s.15-.37.2-.54a1.48,1.48,0,0,0,1.93.47l.67.2c-.76.88-.53,1.36.59,1.6a5.86,5.86,0,0,1,.94.23C115.08,125.89,114.26,126.8,114.76,127.27Z" style="fill:#4e2723"/><path d="M106.31,133.51a.41.41,0,0,1-.17.27c-.17-.05-.37-.15-.54-.2-.16-.7,1.39-1.48-.13-2.07l-.34-.1c.74-.8-.83-2,.47-2.72.2.11.41.17.65.28.61,1.84,1.61,2.37,3.07,1.6.21.06.43.08.64.14s.24.12.33.14c-1,.54-1.47,1.74-2.68,2C106.41,131.74,106.57,132.94,106.31,133.51Z" style="fill:#dd5444"/><path d="M102.67,136.6c-1.83.93-3.2.58-3.76-1.57,0-.17.11-.38.16-.55.42.12.71.07.81-.45a4.75,4.75,0,0,1,.23-.63c.21.07.44.08.69.16s.41.17.61.27c-.14.15-.25.39-.46.47-.53.25-.85.71-.43,1.16s.94.23,1.26-.37a1.79,1.79,0,0,1,.48-.41.46.46,0,0,1,.24.12.59.59,0,0,0,.45.82A3.51,3.51,0,0,0,102.67,136.6Z" style="fill:#b4473b"/><path d="M91.87,106.63c-.12.56-.93.51-1,1.09l-.18.63c-.14.33-.18.78-.67.87a17.42,17.42,0,0,1-1.14-3.15c.48-.09.46-.51.62-.88a.59.59,0,0,0,.82-.45l.63.19C90.61,105.89,92.18,105.71,91.87,106.63Z" style="fill:#c14b3e"/><path d="M105.13,131.41l.34.1c.08.67-1,1.46.13,2.07.17,0,.37.16.54.21-.39.39-.6,1-1.27,1.05-.38-.25-.77-.5-1.17-.71-.2-.71-.41-1.41-1.36-1.46,1.22-.57.48-1.66.64-2.53,1.09.36.86,1.45,1.2,2.33C104.58,132,104.86,131.7,105.13,131.41Z" style="fill:#6d3427"/><path d="M98.41,131.84c-.57-.4-.46-.92-.26-1.46s.66-.54,1-.78c1.12-.08,1.49,1.18,2.43,1.41-.12.42-.24.85-.37,1.27-.82-.33-1.43.51-2.17.38C98.81,132.37,99.57,131.49,98.41,131.84Z" style="fill:#4e2723"/><path d="M109.92,130.69c-.21-.06-.43-.08-.64-.14-.52-.75-1.59-1-1.86-2,.63,0,1.34-.67,1.88.32.15.27.43-.06.54-.3l.64.18c0,.2,0,.46.1.59s.36,0,.33-.19-.29-.26-.43-.4c.35-.91,1-.26,1.49-.25l.89.26-2.09,1.51A.57.57,0,0,0,109.92,130.69Z" style="fill:#853830"/><path d="M124,118.11c.52.11.54.67.81,1a14.35,14.35,0,0,1-3.13,2.58,3.66,3.66,0,0,1-.7-.25,1.86,1.86,0,0,0,.54-3l.38-.21C122.62,118.54,123.27,118.18,124,118.11Z" style="fill:#6d3427"/><path d="M112.27,78.18c-.38-.25-.78-.46-1.17-.71,2.65,0,5.44-.75,7.62,1.55-1.17.07-2.26-1.22-3.52-.35C114.22,78.57,113.34,77.81,112.27,78.18Z" style="fill:none;stroke:#4c2623;stroke-miterlimit:10;stroke-width:0.26493600010871887px"/><path d="M91.91,114.67c.52-.08,1.34-.35,1.48.25.37,1.58,1.15.93,2.23.24-.47,1.61-2,1.67-2.51,2.63A4.89,4.89,0,0,1,91.91,114.67Z" style="fill:#dd5444"/><path d="M94.53,122.35a.94.94,0,0,1-.32-1.1c.22-.31.39-.58.62-.88a12.48,12.48,0,0,1,1.37,0c-.41.94-.21,1.51.89,1.65a9.53,9.53,0,0,1,1.21.4c-.14.65-.56.52-1,.39s-1-.33-1.2.34C95.54,123,95.39,121.91,94.53,122.35Z" style="fill:#ed5a48"/><path d="M120.33,122.63c-.84.21-.92,1.43-1.86,1.52-.72-.21-1.23-.68-.55-1.26,1.17-1-.06-.9-.5-1.12.09-.34.08-.76.53-.9a2.38,2.38,0,0,0,1.17.71c.07.07.2.1.27.17C119.38,122.44,119.88,122.45,120.33,122.63Z" style="fill:#5e2f24"/><path d="M114.77,127.27c-.48-.42.34-1.33-.63-1.62a.64.64,0,0,1,.81-.45c1,.24.77-.6,1-1.08.55.17,1.1.33,1.59.52C117,125.84,115.68,126.34,114.77,127.27Z" style="fill:#6d3427"/><path d="M115.2,78.67c1.26-.87,2.3.45,3.52.34,1,.37,2.06.33,2.7,1.26-.26.11-.53.26-.79.36-.34-.09-.63-.18-1-.24C118.38,79.24,116.64,79.37,115.2,78.67Z" style="fill:#853830"/><path d="M96.32,128.51a4.31,4.31,0,0,1-.16-3.23l1.07-.06c.69.76-.56,1.77.31,2.54C97.39,128.45,96.74,128.31,96.32,128.51Z" style="fill:#6d3427"/><path d="M117.63,124.65c-.55-.16-1.09-.32-1.59-.52,0-1.06.85-1.64,1.42-2.35.42.27,1.67.08.5,1.12-.68.59-.17,1.06.55,1.27A5.76,5.76,0,0,0,117.63,124.65Z" style="fill:#4e2723"/><path d="M97.18,125.21c-.37,0-.69,0-1.07.05-.13-.18-.3-.36-.43-.54.14-.51.25-1,.41-1.59.57.4,1.72-.09,1.69,1.14C97.35,124.47,97.37,124.89,97.18,125.21Z" style="fill:#4e2723"/><path d="M96.32,128.51c.42-.2,1.07-.06,1.22-.75.5.19.77-.28,1.21-.38.09,0,.2.1.29.13-.13.42-.24.8-.36,1.23-.88-.12-.75.7-1,1.17C97,129.54,96.48,129.2,96.32,128.51Z" style="fill:#dd5444"/><path d="M132.67,108.85a6.34,6.34,0,0,1,1.13-4.19A6.12,6.12,0,0,1,132.67,108.85Z" style="fill:#b4473b"/><path d="M103.72,134.09c.38.25.77.5,1.16.71a3.31,3.31,0,0,1-2.24,1.74c.1-.34.14-.65.24-1s.13-.47.21-.72A6.61,6.61,0,0,0,103.72,134.09Z" style="fill:#ed5a48"/><path d="M96.09,123.14c-.15.51-.25,1-.41,1.58-1.38-.31-.8-1.52-1.15-2.37C95.39,121.92,95.54,123,96.09,123.14Z" style="fill:#b4473b"/><path d="M99,132.65c.76.08,1.36-.71,2.18-.38-.13.42-.25.85-.36,1.23-.21-.06-.44-.08-.69-.15a.58.58,0,0,0-.82.45l-.59-.18c0-.22.07-.39.09-.62S98.87,132.76,99,132.65Z" style="fill:#6d3427"/><path d="M94.83,120.37c-.22.3-.39.57-.62.88-.52-.57-.47-1.39-.84-2,.38,0,.74,0,1.11,0C95.15,119.45,95,119.94,94.83,120.37Z" style="fill:#dd5444"/><path d="M120.33,122.62c-.41-.16-1-.18-.9-.86.6.17.94-.55,1.52-.34a4.3,4.3,0,0,1,.71.26A1.76,1.76,0,0,1,120.33,122.62Z" style="fill:#853830"/><path d="M97.56,129.89c.28-.48.14-1.26,1-1.18.21.06.45.18.66.24l-.18.64c-.31.28-.85.26-1,.78C97.91,130.27,97.6,130.22,97.56,129.89Z" style="fill:#853830"/><path d="M92,110.82c-.19.64-.8.55-1.3.68-.36-.33-.07-.71-.06-1A12.38,12.38,0,0,0,92,110.82Z" style="fill:#ed5a48"/><path d="M98.67,133.63l.6.17c.21.06.41.17.57.22-.09.48-.39.57-.81.45-.22-.06-.37-.16-.58-.22A3.52,3.52,0,0,0,98.67,133.63Z" style="fill:#4e2723"/><path d="M99,132.65c-.08.11-.12.24-.2.36-.77-.18-.43-.73-.35-1.17C99.57,131.49,98.81,132.37,99,132.65Z" style="fill:#b4473b"/><path d="M106.31,133.51c.25-.57.1-1.77,1.27-.73A2.41,2.41,0,0,1,106.31,133.51Z" style="fill:#b4473b"/><path d="M88.54,103.57c.68.34.76.69.07,1C88.19,104.3,88.58,103.91,88.54,103.57Z" style="fill:#ed5a48"/><path d="M89.48,105.23c-.1.34-.13.75-.62.88-.41-.35,0-.7-.07-1A4,4,0,0,1,89.48,105.23Z" style="fill:#ed5a48"/><path d="M98.48,134.26c.21.07.37.16.58.22l-.16.55C98.33,135,98.33,134.63,98.48,134.26Z" style="fill:#927877"/><path d="M109.93,130.69a.6.6,0,0,1,.89-.38c-.12.24-.16.55-.53.54A1.91,1.91,0,0,0,109.93,130.69Z" style="fill:#b4473b"/><path d="M108.13,117.62c0-.7,1-1.41-.07-2.1.24-.85.49-1.7.75-2.59l1.26.37a2.63,2.63,0,0,1,0,2.4c-.36,1.23.22,1.77,1.61,1.53.17,1.16.65,1.25,1.36.4a.62.62,0,0,1,.4.81.6.6,0,0,1-.82.45l-.67-.2-1.23-.35c-1.22.56-2.94.19-3.51,2,0,.12-.4.25-.57.2-.92-.13-.94.55-1.1,1.11-.14.32-.16.73-.61.83-.54-.34-1.13,0-1.7-.13l-1-.29c-.22-.52.28-1.3-.59-1.6a12.88,12.88,0,0,0,2.65-1.71c.39-.25,1-.49.81-1.05-.25-.72-.81.27-1.27,0,.12-.43.25-.85.33-1.29.8.1.85-1.18,1.69-.93.06.89,1.15,1.26,1.13,2.27C107,118.22,107.85,118.28,108.13,117.62Z" style="fill:#c14b3e"/><path d="M106,115.61c-.85-.25-.89,1-1.69.93-.71-.58-1.45-2.13-2.09.08l-.63-.19c0-1.23-1.14-.79-1.72-1.19.13-.43.2-.82.32-1.25a13.11,13.11,0,0,1,.44-1.34c.47.09.64-.18.88-.53.52-.68,1-.5,1.25.28.43,1.18.89,2.15,2.59,1.82C106.46,114,106.13,114.91,106,115.61Z" style="fill:#dd5444"/><path d="M119.3,95.93c-1.59-1.16-2.35-3.13-4.37-3.91a21.34,21.34,0,0,0-3.62-.92c.16-.88.68-.77,1.37-.61a17,17,0,0,1,6,2.51.63.63,0,0,0,.49.83.59.59,0,0,0,.45.83Z" style="fill:#4c2623"/><path d="M125.55,103.25c.06-.21.08-.44.14-.65a7.66,7.66,0,0,0,.61-.83.8.8,0,0,0,.31,0c.24,0,.48-.09.72-.11.57.26,1-.46,1.5-.25a2.8,2.8,0,0,0-.15.65c-.53.72,0,1.4,0,2.08-.87-.16-1.4.88-2.27.72,0-.51.6-1.12-.32-1.43A2.82,2.82,0,0,1,125.55,103.25Z" style="fill:#b4473b"/><path d="M117.92,107a56.85,56.85,0,0,0,2.2-6.32l.25.07a3.53,3.53,0,0,1,.18,3.19c-.56,1-1.08,2-1.65,3C118.57,106.93,118.25,106.93,117.92,107Z" style="fill:#4c2623"/><path d="M131.42,92.52c-.31,1.06-.78,2,.9,2.43.68.15.69.94.12,1.32a3.79,3.79,0,0,1-2.38-1.43c.14-.65-.33-.79-.79-.92-.37-.48,0-.93,0-1.38C130.07,93,130.73,92.5,131.42,92.52Z" style="fill:#dd5444"/><path d="M131.42,92.52c-.68,0-1.4.55-2.09.08-.41-1.28-.38-2.47.94-3.23C131.07,90.25,132,91.15,131.42,92.52Z" style="fill:#ed5a48"/><path d="M130,94.88a3.93,3.93,0,0,0,2.38,1.44c-.12.42-.29.83-.41,1.26-.81-.24-1.51-1.27-2.43-.16-.08.11-.62-.09-1-.19a11.08,11.08,0,0,0,.33-1.29,3.56,3.56,0,0,1,.23-.62A.59.59,0,0,0,130,94.88Z" style="fill:#c14b3e"/><path d="M128.67,97.25c.3,0,.83.29,1,.18.92-1.11,1.64-.11,2.43.16-.06.22-.07.4-.13.61-.13.42-.29.84-.43,1.3-.58-.21-1-.76-1.75-.74C128.83,98.72,128.72,98,128.67,97.25Z" style="fill:#ed5a48"/><path d="M131.51,99.46c.12-.42.29-.84.42-1.3.81.37.71,1.5,1.52,1.87-1.07.84-.15,2.26-.92,3.19-.74-.31-.37-1.26-.89-1.69.11-.52.6-1.12-.26-1.46A2.09,2.09,0,0,1,131.51,99.46Z" style="fill:#c14b3e"/><path d="M115.19,78.67c1.45.7,3.19.57,4.45,1.72a18.81,18.81,0,0,1-7.37-2.21C113.34,77.81,114.22,78.57,115.19,78.67Z" style="fill:#dd5444"/><path d="M119.85,108.55c.92-.19,2-.11,2.7-1,.48.56,1,1.08.52,1.86-.65-.15-1.39-.59-1.51.62,0,.4-.54.11-.8.08C121.09,109.33,119.49,109.46,119.85,108.55Z" style="fill:#dd5444"/><path d="M123.3,106.1a3.2,3.2,0,0,1,.23-.63.64.64,0,0,0,.84-.53c.07-.4-.15-.6-.47-.74.12-.43.25-.85.37-1.28l.63.19a.59.59,0,0,0,.45.82c-.12.43-.24.85-.37,1.28l-.37,1.27c-.35,0-.67,0-.68.45,0,.93-.56.53-1,.49C123.05,107,123.18,106.53,123.3,106.1Z" style="fill:#c14b3e"/><path d="M110.69,110.11c-.61.84-1.56-.18-2.2.32l-.93-.27c-.21-.57-.77-.5-1.24-.64-.29-.08-.62-.23-.91-.31,0-.31.13-.61.18-1l.06,0a7,7,0,0,0,4.43,1.44Z" style="fill:#4c2623"/><path d="M102,102.94a27.71,27.71,0,0,0,2.37,4.29C102.67,107.11,101.5,105,102,102.94Z" style="fill:#ed5a48"/><path d="M119.84,108.55c-.36.91,1.25.73.9,1.64-.13.43-.25.85-.37,1.28a1.7,1.7,0,0,1-1.43-1.11C119.21,109.75,118.35,108.62,119.84,108.55Z" style="fill:#ed5a48"/><path d="M118.9,106.89c.57-1,1.09-2,1.65-3,.41.17,1.06.13,1,.82,0,.5-.32,1-.73.93C119.89,105.7,119.86,107.08,118.9,106.89Z" style="fill:#ed5a48"/><path d="M94.71,108.84c-.73-.49-1.41.1-2.09.08l.74-2.55,1.27.37c-.06.22-.13.43-.19.64a.59.59,0,0,0,.45.82Z" style="fill:#d0513f"/><path d="M100.56,112.63a12.52,12.52,0,0,1-.44,1.35c-.19-.1-.41-.17-.6-.27l.18-.64a5.27,5.27,0,0,0,.37-1.41c-.06-.76-.37-.48-.63,0l-.64-.18c.06-.22.13-.43.19-.64.43-.84,1.05-.48,1.52-.2C101.43,111.23,100.58,112,100.56,112.63Z" style="fill:#ed5a48"/><path d="M120.09,100.31a6.17,6.17,0,0,1-.55-3.94,3.48,3.48,0,0,0,.64.14c.11.13.15.28.26.4a.66.66,0,0,0,.43.87c0,.22-.07.39-.09.62s-.33.68,0,1a1.06,1.06,0,0,1-.14.33C120.32,99.83,120.25,100.08,120.09,100.31Z" style="fill:#4c2623"/><path d="M128.66,102.13a2.8,2.8,0,0,0,.15-.65l.18-.63c.06-.21.12-.43.19-.64l1.9.56c-.07.21-.13.42-.19.64-.6-.14-1.57-.74-1,.76.11.26-.09.62-.19,1C129.39,102.81,129,102.47,128.66,102.13Z" style="fill:#d0513f"/><path d="M122.93,107.38c.43.08,1,.43,1-.49,0-.5.32-.46.68-.45-.25.85-.49,1.7-.74,2.55-.12.43-.25.85-.37,1.28a.59.59,0,0,1-.45-.82c.51-.82,0-1.35-.51-1.86,0-.09.06-.21.08-.3l.17,0Z" style="fill:#d0513f"/><path d="M126.35,101.78a6.89,6.89,0,0,0-.61.84c-.21-.25-.41-.49-.66-.75s-1.08-.23-.86-1a.74.74,0,0,1,.82-.45c.68,0,1.15.29,1.15,1.08C126.17,101.59,126.27,101.71,126.35,101.78Z" style="fill:#ed5a48"/><path d="M127.65,96c-.14.32-.29.83-.62.55a3.62,3.62,0,0,1-1-1.6c-.12-.36.33-.5.71-.39C127.3,94.86,127.84,95.21,127.65,96Z" style="fill:#ed5a48"/><path d="M129,100.86c-.06.22-.12.43-.19.64-.53-.2-.92.51-1.49.25.11-.52.58-1.07-.26-1.46l.18-.64a2.9,2.9,0,0,1,.23-.62l.59.17c-.08.44,0,.7.45.83C128.42,100.45,128.63,100.7,129,100.86Z" style="fill:#c14b3e"/><path d="M99,110.79l-.18.64a.7.7,0,0,0-.88.48,1.74,1.74,0,0,1-.71-2.28C98.11,109.56,98.37,110.42,99,110.79Z" style="fill:#dd5444"/><path d="M108.14,117.62c-.29.66-1.08.56-1.08.24,0-1-1.07-1.38-1.13-2.27C107.3,115.62,107.67,116.7,108.14,117.62Z" style="fill:#d0513f"/><path d="M108.54,111.51l.63.19L108.8,113c-.25.85-.49,1.7-.75,2.6-.93-.46-.32-1.11-.2-1.68C108,113.07,108.32,112.28,108.54,111.51Z" style="fill:#dd5444"/><path d="M126.29,98.67c-.52-.29-1.25-.13-1.14-1a.54.54,0,0,1,.83-.49c.58.21,1.08.55,1,1.29S126.41,98.39,126.29,98.67Z" style="fill:#ed5a48"/><path d="M105.63,108.26c0,.31-.13.61-.18,1-.93-.27-2.19-.36-1-1.81C104.79,107.69,105.36,107.77,105.63,108.26Z" style="fill:#ed5a48"/><path d="M90.93,105l-.63-.19c1.37-.79,2.51-.46,2.57.76Z" style="fill:#ed5a48"/><path d="M120.18,96.51a3.41,3.41,0,0,0-.65-.14c-.09-.17-.14-.28-.23-.44a13,13,0,0,1,.42-1.3C120.45,95.12,121.22,95.62,120.18,96.51Z" style="fill:#ed5a48"/><path d="M90.93,105l1.94.57c-.19.49-.14,1.25-1,1.09C92.18,105.7,90.61,105.89,90.93,105Z" style="fill:#d0513f"/><path d="M98.13,107.91a1,1,0,0,1,.56.9c0,.49-.43.38-.75.24s-.7-.44-.53-.89A.56.56,0,0,1,98.13,107.91Z" style="fill:#ed5a48"/><path d="M120.08,100.31c.12-.24.19-.49.52-.54.33.15.87.17.77.69-.12.7-.66.36-1.05.29l-.25-.07A.93.93,0,0,0,120.08,100.31Z" style="fill:#ed5a48"/><path d="M90.67,108.35c.07-.21.13-.42.19-.63l.17,0c.37.15.92.13.92.77,0,.18-.15.51-.3.56C91.12,109.18,91.16,108.4,90.67,108.35Z" style="fill:#ed5a48"/><path d="M130,94.88a.58.58,0,0,1-.82.45c0-.46,0-.91,0-1.37C129.76,94.11,130.24,94.2,130,94.88Z" style="fill:#ed5a48"/><path d="M123.55,82.55c.56.3,1.45.06,1.48,1.08C124.46,83.37,123.51,83.65,123.55,82.55Z" style="fill:#ed5a48"/><path d="M127.11,100.25c.81.38.37.94.26,1.46-.23,0-.48.09-.72.11Z" style="fill:#ed5a48"/><path d="M131,101.39l.19-.64.18-.64c.82.34.37.94.27,1.46Z" style="fill:#ed5a48"/><path d="M106.32,109.52c.46.14,1,.06,1.24.64C106.87,110.47,106.37,110.46,106.32,109.52Z" style="fill:#4c2623"/><path d="M124.23,102.91c-.12.43-.25.85-.37,1.28a.64.64,0,0,1-.47-.74A.65.65,0,0,1,124.23,102.91Z" style="fill:#ed5a48"/><path d="M129,96c-.12.43-.25.85-.33,1.29C127.89,96.6,128,96.14,129,96Z" style="fill:#ed5a48"/><path d="M123.86,104.19c.32.14.54.34.47.74a.62.62,0,0,1-.84.53C123.65,105.05,123.73,104.61,123.86,104.19Z" style="fill:#ed5a48"/><path d="M122.93,107.38l-.17,0-.17,0c-.26-.68-.29-1.2.67-1.19C123.18,106.53,123.05,107,122.93,107.38Z" style="fill:#ed5a48"/><path d="M122.12,81.49c.5.14,1.21.08,1.13,1C122.77,82.23,122.05,82.34,122.12,81.49Z" style="fill:#ed5a48"/><path d="M94.59,106.73l-1.27-.37a.63.63,0,0,1,.9-.43A.58.58,0,0,1,94.59,106.73Z" style="fill:#ed5a48"/><path d="M120.75,99.45c-.36-.34-.12-.68,0-1C121.37,98.75,121.36,99.07,120.75,99.45Z" style="fill:#ed5a48"/><path d="M96.25,106.67c.07.06.2.1.22.2s-.13.14-.16.23c-.07-.07-.2-.11-.22-.2S96.19,106.74,96.25,106.67Z" style="fill:#ed5a48"/><path d="M126.71,84.91a.59.59,0,0,1,.51.79C126.79,85.58,126.59,85.33,126.71,84.91Z" style="fill:#ed5a48"/><path d="M127.8,85.92a.61.61,0,0,1,.5.79A.61.61,0,0,1,127.8,85.92Z" style="fill:#ed5a48"/><path d="M118.64,110.32a.59.59,0,0,1-.82.45A.58.58,0,0,1,118.64,110.32Z" style="fill:#ed5a48"/><path d="M128.87,86.93a.55.55,0,0,1,.46.78A.6.6,0,0,1,128.87,86.93Z" style="fill:#ed5a48"/><path d="M129.38,87.72a.64.64,0,0,1,.49.84C129.4,88.42,129.25,88.14,129.38,87.72Z" style="fill:#ed5a48"/><path d="M119.23,93.79a.64.64,0,0,1-.49-.84A.62.62,0,0,1,119.23,93.79Z" style="fill:#ed5a48"/><path d="M94.89,108.2a.59.59,0,0,1-.45-.82C94.87,107.51,95,107.77,94.89,108.2Z" style="fill:#ed5a48"/><path d="M125.35,103.93a.6.6,0,0,1-.45-.82,3.78,3.78,0,0,0,.65.14C125.48,103.51,125.41,103.72,125.35,103.93Z" style="fill:#ed5a48"/><path d="M119.72,94.63a.6.6,0,0,1-.45-.83A.63.63,0,0,1,119.72,94.63Z" style="fill:#ed5a48"/><path d="M90.29,104.78a.57.57,0,0,1-.81.45A.58.58,0,0,1,90.29,104.78Z" style="fill:#ed5a48"/><path d="M128.55,100a.61.61,0,0,1-.45-.83A.6.6,0,0,1,128.55,100Z" style="fill:#ed5a48"/><path d="M124.9,103.11l-.63-.19c.1-.2.2-.54.51-.35C124.87,102.59,124.87,102.92,124.9,103.11Z" style="fill:#ed5a48"/><path d="M120.87,97.78a.65.65,0,0,1-.44-.87A.65.65,0,0,1,120.87,97.78Z" style="fill:#ed5a48"/><path d="M129,100.86a.58.58,0,0,1-.45-.82l.67.2A3.52,3.52,0,0,0,129,100.86Z" style="fill:#ed5a48"/><path d="M127.47,99a2.9,2.9,0,0,1-.23.62.58.58,0,0,1-.44-.82A1.75,1.75,0,0,1,127.47,99Z" style="fill:#ed5a48"/><path d="M123.87,109c.24-.85.49-1.7.74-2.55.12-.42.24-.85.37-1.27,1.22,0,.79-1.15,1.17-1.69.88.31.33.93.32,1.43.48,1.21,1.63,1.5,2.63,2,0,0,.26-.29.4-.44.67-.72,1.32-1.4,2-2.13a.74.74,0,0,1,.93-.51v0c-.21.4-.06.67.35.84-.12.43-.25.85-.36,1.23-.71.39-2.29.16-1.2,1.77.45,1.29-.66,2.11-1,3.18-.53-.07-1.13-.52-1.42.32l-.18.63-.64-.18c.11-.85,1-1.75.36-2.48-.44-.54-1.13.41-1.8.35l-.68-.2.64-2.21a.6.6,0,0,0-.36-.8c-.45-.18-.7,0-.9.43a2.56,2.56,0,0,0,0,2.35c-.14.33-.27.94-.46,1C124,110.19,124.6,109,123.87,109Zm5.78,1.1c.36-.77.81-1.24.18-2.07C129.59,108.73,129.15,109.15,129.65,110.13Z" style="fill:#ed5a48"/><path d="M120.7,115c.17-.42.11-1,.7-1.14,2.12,1.69,2.55,1.63,3.24-.43l1.27.37a4.22,4.22,0,0,0-.22.77c0,.45-1,.36-.64.92s.86.2,1.3,0c.1-.06.32,0,.44,0a1.69,1.69,0,0,1-2.13,1.5c-.24-1.55-1.35-.08-1.9-.56-.26-1.14-1.3-1-2.11-1.26Z" style="fill:#c14b3e"/><path d="M122.83,116.39c.54.53,1.65-1,1.9.56-.25.39-.49.73-.74,1.12a3.46,3.46,0,0,1-2.09.12c.12-.42.28-.84.41-1.26C122.58,116.92,122.71,116.63,122.83,116.39Z" style="fill:#dd5444"/><path d="M128,111.67l.63.18c-.12.43-.21.91-.34,1.33-.33.36.1.95-.37,1.28-.36-.34-.72-.68-1.11-1.07.2-.36,0-.7-.11-1C127.19,112.27,127.27,111.37,128,111.67Z" style="fill:#dd5444"/><path d="M132.39,103.83a.8.8,0,0,0-.92.51c-.2-.1-.37-.15-.57-.26a3.83,3.83,0,0,0,.06-2.75l.64.19c.51.43.16,1.34.88,1.69C132.46,103.43,132.4,103.65,132.39,103.83Z" style="fill:#d0513f"/><path d="M126.77,113.39c.36.34.72.67,1.11,1.07-.26.43-.14,1.25-1,1.07a1.75,1.75,0,0,0-.94-1.66C126.08,113.38,126.34,113.27,126.77,113.39Z" style="fill:#b4473b"/><path d="M128.26,113.14c.13-.43.22-.91.34-1.33.06-.22.13-.43.19-.64l.63.19C129.7,112.45,129.5,113.13,128.26,113.14Z" style="fill:#b4473b"/><path d="M131.17,107.71c-1.14-1.62.45-1.39,1.2-1.76C132.43,106.84,131.56,107.14,131.17,107.71Z" style="fill:#c14b3e"/><path d="M129.46,111.41l-.64-.18c.29-.84.89-.39,1.42-.32A.58.58,0,0,1,129.46,111.41Z" style="fill:#dd5444"/><path d="M132.73,104.71c-.41-.16-.56-.44-.35-.84C132.79,104,132.94,104.31,132.73,104.71Z" style="fill:#d0513f"/><path d="M101.72,120.63c.83.29.33,1.07.59,1.61-.15,0-.28.15-.43.19-1.5-.35-2,.12-1.95,1.83l-.82.45a12.19,12.19,0,0,1-1.29-.43c0-1.23-1.16-.75-1.69-1.14.24-.66.74-.47,1.2-.34s.89.26,1-.39l.08,0c.89-.06,1.67-.39,1.69-1.4,0-.68-.85-.2-1.17-.53.17-.91-.65-.78-1.09-1a2.84,2.84,0,0,0,.15-.64c.61-.84,1.6-.32,2.32-.75l.68.2c1,.65.18.79-.3,1s-.62.73-.19.82S100.83,121.8,101.72,120.63Z" style="fill:#9c4533"/><path d="M101,118.3l-.67-.19c0-1.1-.92-1.1-1.47-.94-1.6.45-.76-.55-.75-1,.91.17.81-.59,1-1.09a4.06,4.06,0,0,0,.69.16c.57.39,1.75,0,1.71,1.19-.61-.09-1.17-.53-2-.26.53.71,1.23.64,1.81.86C101.23,117.44,101.1,117.87,101,118.3Z" style="fill:#c14b3e"/><path d="M98.13,116.12c0,.5-.91,1.53.75,1,.55-.16,1.51-.16,1.47.94-.73.43-1.76-.1-2.33.74-1-.49-1.19-2.7-.19-3.28C98.21,115.36,98.1,115.88,98.13,116.12Z" style="fill:#dd5444"/><path d="M95.68,112.59c-.65-.15-1,.22-1.31.72-.19.31-.5.91-1,.44s-.23-.8,0-1.2l.61-1.16c.31,0,.69.3,1,.19C96.34,111.08,95.82,111.94,95.68,112.59Z" style="fill:#b4473b"/><path d="M97.83,119.49c.49.24,1.26.1,1.09,1-.32,0-.78,0-.52.5s0,1,0,1.43l-.08,0a11.44,11.44,0,0,1-1.21-.4c0-.69,1-1.41-.08-2.1A.57.57,0,0,1,97.83,119.49Z" style="fill:#c14b3e"/><path d="M94.84,120.37c.13-.47.32-1-.35-1.17.12-.28.24-.85.52-.72.56.3,1.53.27,1.41,1.34-.07.21-.12.38-.18.59C95.74,120.4,95.28,120.41,94.84,120.37Z" style="fill:#c14b3e"/><path d="M96.2,120.4l.17-.6c.21.07.44.08.65.15,1.08.68.09,1.41.08,2.1C96,121.92,95.79,121.34,96.2,120.4Z" style="fill:#9c4533"/><path d="M99.81,115.23a3.85,3.85,0,0,0-.69-.16c-.94-.37-1.17-.85-.25-1.5l.63.18c.2.11.41.17.61.28C100,114.41,99.93,114.8,99.81,115.23Z" style="fill:#9c4533"/><path d="M97.22,114.52l-1.11-1.07c.2-.36.19-1.14.59-.93A1.27,1.27,0,0,1,97.22,114.52Z" style="fill:#9c4533"/><path d="M98,111.88a.66.66,0,0,1,.87-.48l.63.18c-.12.43-.24.85-.37,1.28C98.57,112.7,97.82,112.75,98,111.88Z" style="fill:#c14b3e"/><path d="M93.33,111.21c-.11.2-.2.54-.52.35-.11-.08-.08-.34-.12-.54a1.33,1.33,0,0,1,.9-.89A9.37,9.37,0,0,0,93.33,111.21Z" style="fill:#b4473b"/><path d="M99.52,113.71l-.64-.18c.06-.22.13-.43.19-.64l.63.18Z" style="fill:#c14b3e"/><path d="M110.48,128.78l-.63-.19c.09-.62.57-1.17.2-2-.87.62-1.68.89-2.42,0,0-.16-.14-.32-.19-.47.34,0,.45-.29.54-.58.69.29,1.29.28,1.61-.5.42.13.81.19,1.24.32,1.4.69,2.24,1.58,1.19,3.16C111.47,128.52,110.85,127.83,110.48,128.78Z" style="fill:#dd5444"/><path d="M112.61,123.82l-.68-.2a3.15,3.15,0,0,0,.16-.69c.27-.61-1.11-1.71.6-1.9-.16.55.18.79.66.89a1.22,1.22,0,0,1,1,1C114.09,123.93,113.6,124.34,112.61,123.82Z" style="fill:#853830"/><path d="M112.61,123.82c1,.52,1.48.11,1.68-.89.84.57,1.39,1.2.68,2.23a.63.63,0,0,0-.82.45,7.17,7.17,0,0,0-.94-.23C112.08,125.19,111.85,124.71,112.61,123.82Z" style="fill:#dd5444"/><path d="M109.55,125.05c-.32.78-.92.79-1.61.49-.26-.67-1-1.15-.8-2l.34-1.19,0-.06c.2.11.41.17.57.26-.13.47-.23,1,.47,1.06.24,0,.44-.1.68-.12l.68.2c-.07.21-.13.42-.19.63-.26,0-.7-.11-.72,0C108.79,124.83,109.24,124.86,109.55,125.05Z" style="fill:#5e2f24"/><path d="M112.13,122.94a4.18,4.18,0,0,0-.16.7,1.52,1.52,0,0,1-1.92-.48l0-.09c.24-.53.26-1.68,1.18-.44C111.38,122.82,111.83,122.86,112.13,122.94Z" style="fill:#9c4533"/><path d="M109.54,125.05c-.31-.19-.76-.23-.61-.74,0,0,.49.06.73,0,.48.24,1.24.14,1.13,1C110.36,125.24,110,125.13,109.54,125.05Z" style="fill:#853830"/><path d="M109.84,123.7l-.67-.19c.12-.43.42-.52.82-.46v.1A1.86,1.86,0,0,1,109.84,123.7Z" style="fill:#853830"/><path d="M99.11,129.6l.18-.64c1.08.23,2.1.2,2.67-1,.55-.34.63-.92.83-1.46.86.21,1.15-.31,1.3-1v0c.13,0,.2.1.33.14l1.27.37c-.06,1,.89,1.51,1,2.38-.12.25-.24.49-.53.54s-.41-.17-.65-.28c0-.77-.39-1.18-1.11-1.07-1,.11-.66.69-.47,1.3.1.3,0,.58-.55.34s-.62-.23-1,.64c-.62.09-.38,1-1,1.1C100.56,130.76,100.23,129.51,99.11,129.6Z" style="fill:#6d3427"/><path d="M102.5,129.9c.39-.85.41-.94,1-.64s.69,0,.55-.34c-.23-.62-.56-1.23.47-1.29.75-.06,1.15.29,1.11,1.06-1.31.72.23,1.91-.46,2.72-.28.34-.55.63-.91,1.07-.34-.88-.06-2-1.2-2.33A2.84,2.84,0,0,0,102.5,129.9Z" style="fill:#4e2723"/><path d="M106.22,128.92c.29,0,.41-.3.53-.54l.63.19c.31,1,1.34,1.22,1.86,2C107.83,131.28,106.88,130.77,106.22,128.92Z" style="fill:#b4473b"/><path d="M105.62,133.54c-1.2-.63-.06-1.4-.14-2.07C107,132.06,105.44,132.89,105.62,133.54Z" style="fill:#b4473b"/><path d="M100.77,133.5l.36-1.23c.42.12.84.25,1.25.41,1,0,1.12.75,1.37,1.46l-.64.78c-.21-.06-.44-.08-.65-.14a.55.55,0,0,0-.24-.12c0-.55,0-1.19-.85-.85Z" style="fill:#4e2723"/><path d="M101.38,133.77c.91-.28.88.31.86.85-.18.14-.43.2-.49.42-.31.6-.77.92-1.25.37s-.07-.9.43-1.17C101.13,134.16,101.24,134,101.38,133.77Z" style="fill:#dd5444"/><path d="M99.89,134c-.22-.06-.41-.17-.58-.22.12-.42.38-.53.81-.45A3.78,3.78,0,0,0,99.89,134Z" style="fill:#853830"/><path d="M102.47,134.74c.21.06.43.08.65.14-.08.26-.14.47-.21.72A.61.61,0,0,1,102.47,134.74Z" style="fill:#dd5444"/><path d="M102.4,132.64a13.24,13.24,0,0,1-1.26-.41l.37-1.28c.6-.15.38-1,1-1.1.16.09.37.15.53.25C102.88,131,103.57,132.06,102.4,132.64Z" style="fill:#dd5444"/><path d="M107.59,126.6c.74.91,1.55.64,2.42,0,.36.79-.12,1.34-.21,2-.11.25-.4.62-.54.3-.54-1-1.25-.27-1.88-.32C107.48,127.9,107.53,127.27,107.59,126.6Z" style="fill:#b4473b"/><path d="M110.48,128.78c.14.14.39.25.43.41a.2.2,0,0,1-.32.18A1.87,1.87,0,0,1,110.48,128.78Z" style="fill:#b4473b"/><path d="M115,125.16c.67-1,.12-1.68-.68-2.23a1.09,1.09,0,0,0-1-1c-.46-.14-.82-.34-.66-.89,1,0,1.19-1.08,1.85-1.49.58.22.94-.55,1.51-.29-.15.51-.31,1.06-.5,1.56s.13.5.48.56c1,.17.95-1.06,1.59-1.38.17-.09-.62-.37-1-.57a.66.66,0,0,0-.49-.83c.34-.37.67-.73,1-1,.49-.09,1-.18,1.47-.31-.1,1.13.91.82,1.46,1.12.45,0,.91,0,1.31.07a1.85,1.85,0,0,1-.54,3c-.58-.21-1,.5-1.52.34-.07-.07-.2-.1-.27-.17.24-1.31-.49-1-1.21-.73-.46.15-.44.57-.54.91-.57.7-1.43,1.28-1.42,2.35C115.78,124.56,115.94,125.44,115,125.16Z" style="fill:#c14b3e"/><path d="M121.5,118.45c-.45,0-.91,0-1.35-.08-.09-.81-.11-1.69-1.28-1.76.12-.56.91-.47,1-1.1a2.9,2.9,0,0,1,.23-.62c.22,0,.43.08.66.1l0,.13c-.73,1.72.83,1.39,1.57,1.84-.12.42-.29.84-.41,1.26A1.57,1.57,0,0,0,121.5,118.45Z" style="fill:#853830"/><path d="M118,120.87c.72-.3,1.45-.59,1.21.72A2.35,2.35,0,0,1,118,120.87Z" style="fill:#4e2723"/><path d="M97.8,124.33a12.36,12.36,0,0,1,1.3.43c.45,1-.14,1.75-.4,2.64-.4.12-.68.59-1.21.39-.88-.77.38-1.78-.32-2.54C97.36,124.89,97.35,124.47,97.8,124.33Z" style="fill:#b4473b"/><path d="M98.71,127.36c.24-.85.81-1.7.4-2.65l.82-.45c.65.1,1.32.16,2,.27.52.75,1.48.62,2.16,1-.16.69-.49,1.19-1.3,1-.73-.49-1.42.14-2.1.12-.93-.41-.82,1.24-1.68.89A.92.92,0,0,1,98.71,127.36Z" style="fill:#853830"/><path d="M99,127.49c.91.36.79-1.29,1.68-.89-.47,1.29.65,1.07,1.26,1.34-.58,1.21-1.58,1.19-2.66,1-.21-.06-.46-.18-.67-.24A9.07,9.07,0,0,0,99,127.49Z" style="fill:#b4473b"/><path d="M105.56,121.75c.16-.55.22-1.22,1.1-1.1.18,0,.54-.12.56-.21.52-1.78,2.29-1.4,3.52-2-.45.93-.25,1.5.87,1.59-.87,1.55-2.24.92-3.52.59.09.81,1,.46,1,1-.38.67-1.42-.33-1.66.66l0,.06C106.86,122.18,106.18,122,105.56,121.75Z" style="fill:#b4473b"/><path d="M101,118.3c.12-.42.24-.85.33-1.28a.64.64,0,0,0,.86-.44c.23.3,1.44-.09.79.88-.26.43-.88.84-.34,1.19.73.49,1-.36,1.3-.86.41.34,1-.64,1.27,0s-.4.76-.81,1.06a13.47,13.47,0,0,1-2.65,1.71c-.84,1.18-.74-.45-1.23-.5s-.23-.62.19-.82S102,119,101,118.3Z" style="fill:#dd5444"/><path d="M107.46,122.31c.27-.93,1.28,0,1.66-.67-.11-.58-1-.24-1-1,1.28.32,2.65,1,3.51-.59.13-.42.25-.85.36-1.23l.68.2c-.44.7.09,1.41.08,2.1-1.7.15-.33,1.28-.6,1.9-.3-.09-.74-.13-.92-.32-.91-1.28-.93-.09-1.18.44a.65.65,0,0,0-.82.45c-.23,0-.44.1-.68.12,0-.45.29-1-.47-1.06A3.32,3.32,0,0,0,107.46,122.31Z" style="fill:#dd5444"/><path d="M112,113.91c.17,1.3,1.41.83,2.09,1.31a1.8,1.8,0,0,0-.75,1.16c-.93-.41-1.31.26-1.68.89-1.4.24-2-.34-1.61-1.53a2.8,2.8,0,0,0,0-2.4l.68.2Z" style="fill:#dd5444"/><path d="M117.22,117.56c-.33.37-.67.73-1,1a2.9,2.9,0,0,1-.62-.23c-.16-1-.63-1.15-1.25-.41-.28.33-.41.61-.89.52a.57.57,0,0,0-.4-.81c.12-.42.2-.86.32-1.29.89.59,1.85-.51,2.74.21C116,117.47,116.75,117.29,117.22,117.56Z" style="fill:#d0513f"/><path d="M113.45,118.53c.48.1.61-.19.89-.52.63-.74,1.09-.6,1.26.41-.93-.13-.87.63-1.08,1.17-.67.44-.87,1.44-1.85,1.48,0-.69-.56-1.36-.08-2.1C113,119.05,113.33,119,113.45,118.53Z" style="fill:#b4473b"/><path d="M104.11,125.49c-.72-.36-1.64-.21-2.15-1,.49-.73-.47-1.38-.08-2.1.15,0,.27-.15.42-.2l1,.29A7.16,7.16,0,0,0,104.11,125.49Z" style="fill:#5e2f24"/><path d="M103.91,117.81c-.32.46-.56,1.31-1.3.87-.55-.35,0-.78.34-1.19.65-1-.52-.57-.8-.88.63-2.17,1.37-.62,2.09-.08C104.16,117,104,117.39,103.91,117.81Z" style="fill:#9c4533"/><path d="M104.11,125.48a7.42,7.42,0,0,1-.88-3c.57.07,1.16-.22,1.7.13,0,.12,0,.26-.05.35-.13.28-.34.68,0,.91,1.08.87.15,1.24-.39,1.68Z" style="fill:#4e2723"/><path d="M110.74,113.54l-.67-.2L108.8,113l.37-1.27c.61-.84,1.07-.7,1.25.27.07.39,0,.78.46.92C110.82,113.1,110.8,113.33,110.74,113.54Z" style="fill:#f05a49"/><path d="M104.88,123c0-.13,0-.27.06-.36.44-.1.46-.5.61-.83.63.19,1.29.43,1.93.61-.12.38-.24.81-.35,1.19C106.37,123.38,105.65,123.17,104.88,123Z" style="fill:#853830"/><path d="M113.39,116.39c-.12.43-.2.87-.33,1.29-.75.84-1.22.75-1.35-.4C112.08,116.65,112.44,116,113.39,116.39Z" style="fill:#6d3427"/><path d="M112,118.79c-.12.42-.24.85-.36,1.23-1.11-.1-1.32-.66-.86-1.59Z" style="fill:#5e2f24"/><path d="M110.74,113.54c.06-.21.08-.44.14-.65.87-.94,2.05,0,3-.46,0,0,.27.17.32.32s-.24.34-.4.44c-.58.24-1.2.47-1.79.76C111.58,113.79,111.16,113.66,110.74,113.54Z" style="fill:#c14b3e"/><path d="M116.09,116.58c-.85-.71-1.85.38-2.74-.2a1.78,1.78,0,0,1,.75-1.16c.31,0,.61.13,1,.19s.83.29,1.25.41C116.22,116.12,116.15,116.37,116.09,116.58Z" style="fill:#853830"/><path d="M123.05,109.49a.59.59,0,0,0,.45.82c.07.71-1,1.46.08,2.1-.31.74-1,.64-1.55.61.41-1.59-1.06-1.1-1.66-1.55.12-.43.25-.85.37-1.28.26,0,.78.32.8-.08C121.66,108.9,122.39,109.39,123.05,109.49Z" style="fill:#b4473b"/><path d="M122,113c.63,0,1.25.13,1.55-.61l.64.19a.58.58,0,0,0,.44.82c-.68,2.06-1.16,2.1-3.24.43C121.62,113.59,121.8,113.32,122,113Z" style="fill:#9c4533"/><path d="M120,114.93a3.52,3.52,0,0,1-.22.62,1.61,1.61,0,0,1-.81-1.8c.12-.43.13-1.07.87-.94s.58.67.45,1.14Z" style="fill:#b4473b"/><path d="M116.09,116.58l.19-.68,2.58.76c-.06.21-.12.42-.19.63-.48.09-1,.18-1.46.31C116.75,117.28,116,117.47,116.09,116.58Z" style="fill:#9c4533"/><path d="M102.2,116.62a.61.61,0,0,1-.86.44c-.57-.26-1.27-.19-1.81-.85.82-.32,1.38.12,2,.26A3.73,3.73,0,0,1,102.2,116.62Z" style="fill:#9c4533"/><path d="M129.45,106.52c-.13.15-.37.49-.4.44-1-.57-2.14-.82-2.62-2,.91.18,1.4-.88,2.27-.72l.68.2C129.4,105.12,128.41,105.85,129.45,106.52Z" style="fill:#d0513f"/><path d="M129.42,104.43l-.67-.19c0-.69-.57-1.37,0-2.09l1.08,1c.37.15.59.36.42.77C129.94,104.08,129.65,104.27,129.42,104.43Z" style="fill:#dd5444"/><path d="M126.16,103.52c-.4.58,0,1.73-1.18,1.69.12-.43.25-.85.37-1.28.06-.21.12-.42.2-.68C125.75,103.36,126,103.42,126.16,103.52Z" style="fill:#f05a49"/><path d="M99.7,113.07l-.63-.18c.12-.43.24-.85.37-1.28s.57-.71.63,0A4,4,0,0,1,99.7,113.07Z" style="fill:#dd5444"/><path d="M130.17,103.91c.12-.42-.1-.62-.42-.77,0-.31.29-.69.19-1-.58-1.51.39-.9,1-.77a3.79,3.79,0,0,1-.07,2.75A4.54,4.54,0,0,0,130.17,103.91Z" style="fill:#b4473b"/><path d="M123.56,112.45c-1.09-.64,0-1.39-.07-2.1.12-.42.24-.85.37-1.27.73,0,.16,1.15.9,1,.19,0,.32-.64.46-1l.63.19.68.19c-.09.3-.18.64-.27.94-.19,0-.5,0-.54.12-.18.31.16.41.4.53.62.23.49.65.36,1.12-.62-.09-.83,1-1.55.61C124.68,111.76,124.26,111.64,123.56,112.45Z" style="fill:#dd5444"/><path d="M126.43,112.19c.18-.46.26-.9-.36-1.13.06-.21.12-.42.19-.63s.18-.64.27-.94c.65.1,1.36-.89,1.79-.35.6.78-.24,1.64-.35,2.48-.71-.25-.77.61-1.25.69A.65.65,0,0,1,126.43,112.19Z" style="fill:#c14b3e"/><path d="M125.85,109.29l-.63-.18a2.54,2.54,0,0,1,0-2.35.63.63,0,0,1,.91-.43.6.6,0,0,1,.36.8Z" style="fill:#c14b3e"/><path d="M130.16,103.91a5.35,5.35,0,0,1,.67.24c.19.11.36.16.56.26l-2,2.14c-1-.68-.07-1.36-.05-2C129.65,104.27,129.93,104.08,130.16,103.91Z" style="fill:#853830"/><path d="M129.64,110.13c-.46-.92-.06-1.36.19-2.07C130.42,108.88,130,109.36,129.64,110.13Z" style="fill:#dd5444"/><path d="M122.29,117c-.74-.45-2.3-.12-1.57-1.84.8.23,1.84.12,2.11,1.26C122.71,116.63,122.58,116.92,122.29,117Z" style="fill:#4e2723"/><path d="M126.43,112.19c.09,0,.2.1.29.13.08.34.3.69.1,1-.42-.12-.73,0-.81.45l-1.27-.37a.59.59,0,0,1-.45-.82c.21.06.44.08.69.15C125.6,113.14,125.8,112.14,126.43,112.19Z" style="fill:#5e2f24"/><path d="M126,113.85a1.75,1.75,0,0,1,.94,1.66c-.18,0-.34-.1-.45,0-.43.24-.93.55-1.29,0s.55-.48.64-.92A2,2,0,0,1,126,113.85Z" style="fill:#853830"/><path d="M101.88,122.43c-.39.72.56,1.41.08,2.1-.66-.1-1.33-.16-2-.27C99.88,122.54,100.38,122.09,101.88,122.43Z" style="fill:#4e2723"/><path d="M98.44,122.44c0-.49.36-.91,0-1.43s.15-.51.51-.5c.32.33,1.19-.15,1.18.53C100.11,122.05,99.33,122.38,98.44,122.44Z" style="fill:#853830"/><path d="M104.88,123c.76.22,1.49.39,2.26.57-.15.83.54,1.31.8,2-.08.25-.2.54-.54.58a2.73,2.73,0,0,0-1.7-.13l-1.27-.38c.56-.48,1.48-.81.4-1.68C104.54,123.67,104.75,123.27,104.88,123Z" style="fill:#b4473b"/><path d="M105.7,126a2.73,2.73,0,0,1,1.7.13c0,.15.14.32.19.47-.06.67-.15,1.29-.21,2l-.63-.19C106.55,127.49,105.64,127,105.7,126Z" style="fill:#9c4533"/><path d="M108.06,122.58c.75.13.51.62.48,1.06C107.85,123.49,107.93,123.05,108.06,122.58Z" style="fill:#853830"/><path d="M102,128c-.6-.27-1.72,0-1.26-1.34.73,0,1.37-.61,2.1-.12C102.6,127.07,102.52,127.65,102,128Z" style="fill:#dd5444"/><path d="M116.68,119.43c.34.24,1.13.52,1,.57-.7.35-.54,1.54-1.59,1.37-.39-.06-.66-.1-.48-.55s.35-1,.49-1.56Z" style="fill:#4e2723"/><path d="M118.69,117.25l.18-.63c1.17.06,1.19.94,1.28,1.75C119.59,118.07,118.59,118.38,118.69,117.25Z" style="fill:#dd5444"/><path d="M116.68,119.43l-.63-.18c-.56-.3-1,.5-1.51.29.2-.54.1-1.3,1.07-1.16a3.56,3.56,0,0,1,.62.23A.65.65,0,0,1,116.68,119.43Z" style="fill:#853830"/><path d="M124.88,112.79c-.21-.06-.43-.08-.68-.15l-.64-.19C124.26,111.64,124.68,111.76,124.88,112.79Z" style="fill:#b4473b"/><path d="M126.24,110.47l-.18.64c-.24-.12-.54-.21-.4-.53C125.74,110.46,126.06,110.46,126.24,110.47Z" style="fill:#ed5a48"/><path d="M73.09,13C69.73,8.5,66,7.45,57.79,7.83c0,0-7.86.35-12.18,3.85a8.59,8.59,0,0,0-2.82,5.44c-.65,3.84-1.14,9.43-.56,12.17,0,0,3.87,6.91,17.9,5,14.66-2,16.43-7.7,16.43-7.7S76.45,17.59,73.09,13ZM58.67,17.8c-6,.54-10.93-.95-11.14-3.32S52,9.75,57.91,9.21s10.94.95,11.15,3.32S64.63,17.26,58.67,17.8Z" style="fill:#4c2623"/><path d="M77.79,43.42c-1.29-3.36-2.48-5.69-2.26-7.06S76.94,30,76.94,30s-2.2,4.71-16.23,6.66S42.5,32.09,42.5,32.09A21,21,0,0,0,44,37.86c2,4.33,1.92,3.3-.47,9.74-1.88,5-1.45,17.09.19,28.39,1.54,10.59,2.87,10.11,2.87,10.11,7.65,4.5,18.72,7,26.54,5.58S83.3,80,83.3,80A94,94,0,0,0,77.79,43.42ZM72.68,84.24C71.52,89.53,67,86.83,64.6,86S56,82.27,52.15,83,48,82,47.43,81c-1.11-1.88-3.29-13.9-3.44-22.91s3.55-11.73,3.55-11.73c2.85-1.29,6.88-.26,11.23.38S66.14,52,66.14,52C75.32,62.17,73.85,79,72.68,84.24Z" style="fill:#f76e39"/><path d="M72.65,84.25C71.49,89.54,67,86.83,64.57,86S56,82.28,52.12,83,48,82,47.4,81c-1.11-1.88-3.29-13.9-3.45-22.91S47.5,46.38,47.5,46.38c2.85-1.3,6.89-.26,11.23.38S66.1,52,66.1,52C75.28,62.18,73.81,78.91,72.65,84.25Z" style="fill:#f6e4b7"/><path d="M58.67,17.79c5.94-.54,10.59-2.89,10.38-5.26s-5.2-3.86-11.14-3.32S47.32,12.1,47.53,14.47,52.73,18.33,58.67,17.79Z" style="fill:#f6e4b7"/><path d="M79.14,51A92,92,0,0,1,82.53,66q.52,3.81.68,7.65a20.13,20.13,0,0,1,0,3.56,13.78,13.78,0,0,1-.92,3.2,37.39,37.39,0,0,1-3.13,5.87,13.17,13.17,0,0,1-3.65,3.85c-3.16,2.09-7.39,2.2-11,1.71-5.13-.75-10-3-14.66-5.21-.76-.38-1.3.84-.53,1.22C53.68,90,58.19,92.05,63,93c3.93.77,8.48.81,12.13-1s5.78-5.49,7.56-9.07a16,16,0,0,0,1.94-6.72,55,55,0,0,0-.49-8,93.31,93.31,0,0,0-3.71-17.7C80.1,49.67,78.9,50.14,79.14,51Z" style="fill:#4c2623"/><path d="M78.63,51.2l1.73,1.15c0,.54-.08,1-.12,1.59,0,1.39,1,2.93-.46,4-.94,0-2.4-1-2,1.53.32.69-1.07.5-.44,1.35.11.71-.59.59-.72,1.06-.42.12-.87.3-1.29.43s-.57-.18-.61-.62c.27-1.29,0-2-1.24-1.87-.29-1.38.48-1.4,1.25-1.43.78,1.15,1.53.41,2.33.15A1.35,1.35,0,0,1,76,57c1.21,0,1.25-.92.75-1.78s-1.09-1.66-2.14-1.38l-.06-.63c.34-.12.91.06.95-.4.18-1.95,1.06-.68,1.67-.56,1,.45.6,1.48.68,2.29,0,.27-.47.54-.1.82.59.44.77-.48,1.23-.61.25-.07.58-.19.29-.61C78.55,53.23,78.84,52.17,78.63,51.2Z" style="fill:#dd5444"/><path d="M81.3,83.66c-.34,0-.58-.17-.62-.62a1.15,1.15,0,0,0,.45-1.21C81,80.67,80,79.54,79.56,80c-.58.68-1.34,1.29-1.06,2.53l-3.2.29c-.2-2.33.14-3.3,1.34-3.37s.75-.7.39-1.38a2.66,2.66,0,0,1,0-.63c.41-.13,1,.09,1-.77l1.07-.1c0,.45.21,1-.28,1.29-.2.11-.63.1-.46.54s.45.72.83.73.44-.35.59-.68c.39-.85-.21-1.83.28-2.64.22-.43.48-.86,1-.77.22.07.61.13.42.41-.52.82,0,1.94-.77,2.91l2-.18C82.13,80,82,82,81.3,83.66Z" style="fill:#9c4533"/><path d="M78.78,55.43c.38.41.8.78,1.18,1.2,0,.63-1.31.21-.68,1s1.44,2.17,2.77,1.77a.68.68,0,0,1,.07.27c-.21.56-1.05.77-.82,1.43s1,.18,1.44.23a1.77,1.77,0,0,0,.51-.05c0,.4.12.85.15,1.25a5.86,5.86,0,0,0-.84.12c-.85.17-1.74-.16-2.78.7,1.34.11,1.31,1.15,1.39,2,0,.45-.16.65-.5.68s-1,.31-1.12-.53c-1.15-1.34-1.15-1.34-.79-2.59,0-.4-.07-.85-.11-1.25,0-1.18,1.08-.42,1.44-1.22-1.64-.52-1.89-2.44-2.87-3.8C78,56.36,79,56.76,78.78,55.43Z" style="fill:#d0513f"/><path d="M78.79,55.42c.2,1.38-.82.93-1.43,1.31.93,1.35,1.23,3.27,2.86,3.79-.35.8-1.41,0-1.43,1.22-.65,0-.87-1.1-1.63-.94a11.64,11.64,0,0,0,.31,3A1.84,1.84,0,0,1,78.85,63c-.36,1.25-.36,1.25.79,2.59-.65,0-1.14.15-1,1.13.08.44,0,.86-.43.94-.45-1.18-.85-.33-1.34,0a1.1,1.1,0,0,1-1.61-.31.59.59,0,0,1-.07-.81c.37-.62.75-.74,1.35-.25s1.09-.24,1.3-.84-.13-1-.69-1c-.26,0-.37-.28-.4-.6-.06-.67-.11-1.29-.17-2,.14-.82-.5-1.26-.69-1.92,1.45-1.08.5-2.61.46-4,.62-.33,1.78.65,1.8-1.06C78.48,54.86,78.63,55.17,78.79,55.42Z" style="fill:#b4473b"/><path d="M76.18,46.37c1,.31,1.48,1.76,2.61,1.83.61,2.07,1.91,3.67,2.24,6a10.69,10.69,0,0,1,0,3.74l-1-.18c0-.23,0-.45.07-.64a12.22,12.22,0,0,0-3.59-8c-.28-.78-.94-1-1.38-1.58C75.22,46.77,75.39,46.17,76.18,46.37Z" style="fill:#ed5a48"/><path d="M81.26,65.44c-.08-.94-.08-1.93-1.38-2,1-.85,1.93-.53,2.77-.7,0,.5.74.61.45,1.18-.59,1.09.21,1.47.69,2,.07,1.26-.71,2.18-.86,3.37-.43,0-.92.31-1.35-.19l-.08-.94C82.23,67.11,82.27,66.21,81.26,65.44Z" style="fill:#853830"/><path d="M82.7,78.26l-2,.18c.77-1,.24-2.09.77-2.91.19-.28-.2-.34-.42-.41a2.65,2.65,0,0,1,0-.63c.41-.13,1,.05,1-.81.74-.34,1.09-1.27,1.73-1.78l.21,0c.44.59.14,1.16,0,1.71C83.54,75.16,83.12,76.69,82.7,78.26Z" style="fill:#d0513f"/><path d="M79.79,88.35c-.44-.5-.62-1.16-1.18-1.65-1-.85.58-.68.47-1.44-.56,0-1.24-.43-1.39.71-.06.28-.08.55-.38.58s-.5-.32-.57-.58a1.68,1.68,0,0,0-1.24-1.51c1-.54,2-.27,3-.58,1.41-.49,1.51,1.17,2.22,1.83A7.62,7.62,0,0,1,79.79,88.35Z" style="fill:#5e2f24"/><path d="M71.58,93c-.32-.19-.46-.86-.34-.91,1-.59,1.18-2.27,2.07-2.8,1.15-.65,1.44-.22,1.64,2A19.35,19.35,0,0,1,71.58,93Z" style="fill:#5e2f24"/><path d="M70.62,55.21a2.06,2.06,0,0,0-.33-.33l0-.36C70,53.68,69.18,53,69.56,52c1.16.48,2.43-.22,3.54.71.05.54.09,1,.14,1.57-.62-.13-1.5-1.4-1.67.56C71.52,55.26,71,55.13,70.62,55.21Z" style="fill:#9c4533"/><path d="M81.77,71.62l-.22,0c-.26-.11-.53-.18-.79-.29-.4-1.14-1.14-.3-1.68-.48,0-2,.53-2.34,2.54-1.85.43.5.88.19,1.35.19C82.89,70.26,82.08,70.78,81.77,71.62Z" style="fill:#b4473b"/><path d="M73.24,54.25c0-.53-.09-1-.14-1.56l1.68.52c.21,1-.08,2,.55,2.93.3.42-.08.55-.28.61-.46.13-.64,1-1.24.61-.36-.24.12-.56.1-.82C73.84,55.73,74.26,54.7,73.24,54.25Z" style="fill:#c14b3e"/><path d="M82.05,59.41c-1.34.4-2.09-.84-2.77-1.77s.73-.39.68-1C80.68,57.51,82,57.84,82.05,59.41Z" style="fill:#b4473b"/><path d="M68.65,49.47c-.39.9-1.5,1-1.69,2.23-.12.55-1.32-.42-1.46-1.58A6.4,6.4,0,0,1,68.65,49.47Z" style="fill:#f1705a"/><path d="M73.63,50.92c0,.9-.59.64-1,.72-.32-.19-.65-.52-1-.5-1.57.19-1.43-.72-.89-1.9l.55-.05c.09.53,0,1.31.74,1.15S73.1,50.83,73.63,50.92Z" style="fill:#f1705a"/><path d="M49,81.47c1.48-.68,1.67-.56,1.94,1.09-.74-.16-.93.58-1.23,1.14A5.13,5.13,0,0,1,49,81.47Z" style="fill:#927877"/><path d="M49.67,83.71c.29-.57.49-1.31,1.23-1.15.07.81.14,1.57.25,2.37s-.12,1-.68,1A2.68,2.68,0,0,0,49.67,83.71Z" style="fill:#6d3427"/><path d="M73.62,50.92c-.52-.09-.92-.73-1.55-.58s-.65-.62-.74-1.15a3,3,0,0,1,2.16.17C73.53,49.89,73.58,50.38,73.62,50.92Z" style="fill:#dd5444"/><path d="M83.74,65.85c-.48-.54-1.32-.87-.69-2,.29-.57-.45-.68-.45-1.18a6.21,6.21,0,0,0,.85-.12A4.7,4.7,0,0,1,83.74,65.85Z" style="fill:#c14b3e"/><path d="M83.29,61.29a2.15,2.15,0,0,1-.51,0c-.52,0-1.2.43-1.43-.23s.6-.91.81-1.42C83,59.69,82.94,60.69,83.29,61.29Z" style="fill:#9c4533"/><path d="M78.18,54.89c0,1.71-1.18.74-1.8,1.06,0-.54.08-1,.12-1.58C77.19,53.9,77.59,55,78.18,54.89Z" style="fill:#853830"/><path d="M73.63,50.92c0-.49-.09-1-.14-1.52l1.07-.1C74.72,50.19,74.75,51.05,73.63,50.92Z" style="fill:#c14b3e"/><path d="M64.38,42.32c-1.1-.21-1.33-.91-1.08-1.93.46-.13.63.31.86.51s.57.58,1,.32.2-.65.21-1c-.07-.72-.21-1.43.62-1.68.46-.13.24-.75.24-1.15s.11-.73.54-.73.5.36.54.77A6.1,6.1,0,0,1,66.66,40c-.21.61-.25,1.06.44,1.18.39.06.88-.26,1.07.4a4.41,4.41,0,0,1,.14,2.56c-.28.7-.63,1.59-1.36,1.61-1.36.12-1.14,1.23-.76,2s0,1.13-.4,1.3c-.66.29-.68-.39-.78-1-.19-1.2-1.26-2.14-2.21-1.69-.74.34-.91-.19-1.12-.62s.15-.73.51-1C63,44.17,63.26,42.79,64.38,42.32Z" style="fill:#f1705a"/><path d="M68.58,52.55c.12-1,.89-.67,1.35-.75.64-.11.9-.54,1-1.18s0-.85-.5-.86c0-.22,0-.44,0-.62L72,49c.08.44.31.6.65.57s.4-.31.41-.67-.11-.76.17-1c.39,1,.87.64,1.35.2.34,1,.74.65,1.17.12s.76-1.11,1.49-1c.28.78-.31,1.33-.34,2-.34,0-.49.27-.49.68l-.51,0c-.48-.09-.81,1.07-1.07.6-.71-1.29-1-1-1.4.17-.07.14-.5.13-.75.16a1.91,1.91,0,0,1-2.06,1.53A16,16,0,0,0,68.58,52.55Z" style="fill:#ed5a48"/><path d="M62.56,37.39c.61-.37,1.14-1.18,1.91-.67.46.28,1,.72.74,1.51s-.82,1.43-1.71,1c-.23-.11-.54-.76-.7-.11s-.37,1.61-1.11,1.54A2.57,2.57,0,0,1,60,39c.61.08,1-.27,1.34-.84A1.18,1.18,0,0,1,62.56,37.39Z" style="fill:#f1705a"/><path d="M75.14,47.36c0-.9-.34-1.91.33-2.65.73,0,1.13-.28,1-1.3-.08-.44-.08-.94-.12-1.43.55,0,1.06-.1,1.62-.1C78,43,78.11,44,78.2,45.1c-.21.06-.42.08-.39.44a.11.11,0,0,0,.1.08c.29,0,.27-.3.29-.52.18.07.36.19.54.26a1.6,1.6,0,0,0,.34,1c.43.42.1.58-.19.7l-1.07.09-.55,0c-.09-.48.06-1.22-.63-1.29-.09-.53-.4-.69-.77-.52s-.23.84-.24,1.24S75.48,47.33,75.14,47.36Z" style="fill:#ed5a48"/><path d="M75.24,42.07c-.38-.37-.75-.7-1.22-1.11-.51.95.45,1.72.23,2.55-.73.07-.49-1.67-1.44-1.22-.58-1.21.13-2.4,0-3.61,0-.27.27-.38.53-.36.52,0,.8.37,1,.9.7,1.56.83,1.59,1.69.11.3,0,.72-.06.87.15.29.38-.16.65-.31.89A1.85,1.85,0,0,0,76.3,42Z" style="fill:#ed5a48"/><path d="M59,41.77c.21-.56.23-1.28.71-1.69.6.89,1.27,1.74.87,3a.78.78,0,0,0,.28.7c1,1.12.55,1.84-.39,2.42a2.28,2.28,0,0,1-1.28-1.87C59.16,43.51,59.08,42.62,59,41.77Z" style="fill:#f1705a"/><path d="M69.68,46.54c0-.31,0-.94.14-.87,1.3.7,2.77-.65,3.91.64.62.67.23,1.15-.49,1.22-.46-.32-.88.17-1.32.12-.54.18-.85,1-1.56.77-.16-.84-.73-.52-1.16-.57C69.37,47.43,69.55,47,69.68,46.54Z" style="fill:#ed5a48"/><path d="M69.68,46.54c-.13.46-.31.88-.44,1.35a1.82,1.82,0,0,0-.51.09c-.71-.34-1.47-.68-1-1.9.28-.66-.46-.86-.43-1.4s-.06-1.22.33-1.66c.23-.29.47,0,.7.17a1.4,1.4,0,0,1,.54,1.66C68.38,45.89,68.88,46.25,69.68,46.54Z" style="fill:#f1705a"/><path d="M70.68,55.84c1-.28,1.64.61,2.14,1.38S73.28,59,72.07,59L71,59.1c-.05-.58-.14-1.07-.67-1.29C70.41,57.17,71,56.62,70.68,55.84Z" style="fill:#ed5a48"/><path d="M71.93,63.26a1.86,1.86,0,0,1,.33-1.61c.19-.25.6-.51.31-.89-.15-.21-.57-.08-.87-.14,0-.41-.23-.62-.61-.58,0-.45-.08-.85-.12-1.3L72,58.65c.16.84.69.52,1.12.57l.06.67.06.63c.07.85.15,1.74.23,2.59v0C73,63.2,72.45,63.25,71.93,63.26Z" style="fill:#d0513f"/><path d="M59.85,46.93c0-.9-.16-1.38,1-1.22a26.15,26.15,0,0,0,2.68.25c.51,0,.68.44.51.9s-.41,1.26-.93.67C62.11,46.27,61,47,59.85,46.93Z" style="fill:#f1705a"/><path d="M68.73,47.93a1.82,1.82,0,0,0,.51-.09c.43,0,1-.26,1.16.57l.06.67c-.34,0-.49.27-.5.68l-1.87.17c-.34,0-.72.06-.82-.51s.24-.74.62-.78S68.71,48.66,68.73,47.93Z" style="fill:#c14b3e"/><path d="M75.17,49c-.46.58-.29,1.6-.93,2.07-.48,0-1,.31-1.39-.19,0-.45,0-.9-.08-1.35.32-.25.69-.51,1-.77A2.15,2.15,0,0,1,75.17,49Z" style="fill:#dd5444"/><path d="M71.54,42c-.53-.63-.92-1.13-1.31-1.69-.19-.25-.72-.34-.46-.81s.37-.76.74-.83.54.22.7.61C71.49,39.93,72.19,40.54,71.54,42Z" style="fill:#f1705a"/><path d="M74.32,32.27c1.1.31,1.28-1.56,2.44-1.48a3.73,3.73,0,0,1-1.19,2.09c-.35.39-.66.69-.52,1.31C74.12,33.91,74.67,32.87,74.32,32.27Z" style="fill:#d0513f"/><path d="M76.64,45.87c.7.07.54.76.63,1.29-.69-.11-1.07.46-1.49,1s-.82.89-1.17-.12a.61.61,0,0,1,.49-.72c.34,0,.49-.27.5-.72C76.06,46.55,76.64,46.77,76.64,45.87Z" style="fill:#d0513f"/><path d="M73,35.73l.51,0c.56,0,1.1-.19,1.15.84,0,.63,0,1-.63,1.1-.85.16-1-.45-1-1.22A3.48,3.48,0,0,0,73,35.73Z" style="fill:#f1705a"/><path d="M74.86,57.08,75.92,57A1.36,1.36,0,0,0,77,58.56c-.8.25-1.55,1-2.33-.15a.74.74,0,0,0,.19-.7A2.69,2.69,0,0,0,74.86,57.08Z" style="fill:#c14b3e"/><path d="M72.82,42.29c.94-.45.71,1.29,1.43,1.22l0,.31c0,.32.06.68.09,1l-1.06.1-.06-.63c0-.45-.27-.61-.61-.62C72.64,43.16,72.46,42.68,72.82,42.29Z" style="fill:#c14b3e"/><path d="M75.23,42.07,76.3,42a13.81,13.81,0,0,0,.13,1.43c.17,1-.23,1.33-1,1.3C75.39,43.82,75.31,43,75.23,42.07Z" style="fill:#d0513f"/><path d="M58.13,44.91c-.6.06-1,.1-1-.62,0-.54.29-1,.63-1s.81.38.9.95S58.34,44.94,58.13,44.91Z" style="fill:#f1705a"/><path d="M74.92,57.75a.81.81,0,0,1-.2.7c-.77,0-1.54,0-1.24,1.42a7.5,7.5,0,0,0-1.06.14l-.06-.67A2.24,2.24,0,0,1,74.92,57.75Z" style="fill:#ed5a48"/><path d="M69.65,51.1c0-.4-.07-.85-.11-1.25l.56-.05c.4,1.13,1.1.35,1.67.48a2.67,2.67,0,0,0,.1.62c-.51.09-1.16,0-1,1V52c-.17,0-.34,0-.56,0C70.25,51.54,70.17,51.1,69.65,51.1Z" style="fill:#9c4533"/><path d="M72.26,54.34c.28.78-.27,1.33-.38,2-.34,0-.72.11-1.06.14v0c0-.44-.07-.85-.11-1.29C71.4,55.32,71.76,54.56,72.26,54.34Z" style="fill:#d0513f"/><path d="M71.64,48.93c0-.4-.07-.85-.11-1.25s.08-.59.42-.67.57.13.65.58c-.13.46-.31.88-.44,1.34C72,48.9,71.82,49,71.64,48.93Z" style="fill:#dd5444"/><path d="M71.77,50.28c-.58-.18-1.28.61-1.67-.48.53-.23.85-1,1.55-.82C71.69,49.38,71.73,49.83,71.77,50.28Z" style="fill:#d0513f"/><path d="M72.16,48.89c.13-.46.31-.89.44-1.35a1.59,1.59,0,0,1,1.18,1.2c-.33.26-.69.51-1,.77A.61.61,0,0,0,72.16,48.89Z" style="fill:#f1705a"/><path d="M72,47.64c.43,0,.86-.43,1.32-.12,0,.09,0,.23,0,.32-.32.25-.2.65-.17,1l-1.07.1A7.59,7.59,0,0,1,72,47.64Z" style="fill:#b4473b"/><path d="M73,35.72c0,.23,0,.45.06.63-.36-.19-.85.66-1.1-.22-.07-.31-.1-.71.14-.87C72.54,35,72.9,35.06,73,35.72Z" style="fill:#d0513f"/><path d="M68,40.15c.29,0,.52.13.56.53s-.16.69-.5.72-.49-.22-.48-.63S67.7,40.18,68,40.15Z" style="fill:#f1705a"/><path d="M71.19,58.72l-1.06.1c0-.32-.2-.84.26-.88S71.14,58.14,71.19,58.72Z" style="fill:#ed5a48"/><path d="M73.3,44.86l1.06-.09a.67.67,0,0,1-.57.81C73.45,45.66,73.37,45.22,73.3,44.86Z" style="fill:#ed5a48"/><path d="M70.86,56.49c-.3.93-.64,1-1.1.1l1.06-.09Z" style="fill:#ed5a48"/><path d="M75.34,37.46l.12,1.3C74.53,38.43,74.87,38,75.34,37.46Z" style="fill:#ed5a48"/><path d="M74.37,44.81c0-.31-.06-.67-.09-1,.26,0,.56.08.56.53S74.58,44.75,74.37,44.81Z" style="fill:#ed5a48"/><path d="M72.67,43.61c.34,0,.58.17.62.62C72.9,44.26,72.71,44.06,72.67,43.61Z" style="fill:#ed5a48"/><path d="M70,49.81c0-.41.11-.64.5-.68l0,.63Z" style="fill:#dd5444"/><path d="M64.91,90.73c-1.06.1-2-1-3.13-.44.1-.82.4-1.39.87-1.34.91,0,1.06-.68,1.25-1.42.6,0,1.21-.33,1.77.11,1.06.85,1.21.16,1.12-.91.17,0,.38-.08.55-.09a4.27,4.27,0,0,1,2.13-.11c.56,0,1.07,0,1.62,0,.06.58-.44.76-.58,1.17-.31.84-1.1,1.64-.63,2.58.64,1.34-.32.75-.64,1-.34,0-.73,0-1.07.06-1.13-1.16.94-2,.2-3.09-.8.21-1.28,1.07-2.24.88C65.65,88.86,64.58,89.36,64.91,90.73Z" style="fill:#5e2f24"/><path d="M71.46,86.31c.32-.21,1.28.38.6-1-.47-.9.32-1.74.59-2.58.13-.41.59-.64.53-1.22.34,0,.5-.27.5-.67.17,0,.34-.08.51-.09.15.7,0,1.53.57,2.11a.63.63,0,0,1-.12,1c-.87.35-.68,1.5-1.18,2.18-.27.38-.06.77.31,1.05a3.92,3.92,0,0,0,1.52.68c.48.18,1.07.44,1,1.08a1,1,0,0,1-1.12.91c-.47,0-1.12.42-1.33-.55-.09-.45.07-1.14-.53-1.13s-.59.69-.58,1.23-.15.73-.54.72-.45-.27-.53-.63a11.42,11.42,0,0,0-.36-1.23c.25-.06.56,0,.61-.32s-.24-.34-.42-.37A5.37,5.37,0,0,0,71.46,86.31Z" style="fill:#6d3427"/><path d="M79.16,76c0,.86-.59.64-1,.77-1.08-.17-1.83.57-2.59,1.23-.17,0-.39,0-.56,0-.21-1.46-.85-1.45-1.7-.79,0-.5-.24-1.33.4-1.3a5.66,5.66,0,0,0,4.18-1.73l.55-.05C77.72,75.23,79,75.35,79.16,76Z" style="fill:#b4473b"/><path d="M62.52,86.53a1.27,1.27,0,0,1,1.18-1.78c1,.18,1.43-.72,2.23-1,.78,1.1-1.29,2-.12,3.08-1.08.32-.8,1.65-1,2.66-.79-.69.09-2.84-1.63-2.42l-.55.05C62.56,87,62.54,86.75,62.52,86.53Z" style="fill:#6d3427"/><path d="M60.92,88.29a1.24,1.24,0,0,1,1.34,1.1,1.22,1.22,0,0,1-.81,1.43c-.59.18-1.05.23-1.18,1.18-.09.51-.65.51-.91-.09C58.82,90.69,59.86,88.34,60.92,88.29Z" style="fill:#5e2f24"/><path d="M78.45,82.57c-.28-1.24.48-1.89,1.07-2.53.42-.49,1.42.63,1.57,1.79a1.11,1.11,0,0,1-.45,1.22L79,83.19C79,82.74,78.79,82.54,78.45,82.57Z" style="fill:#d0513f"/><path d="M77,78.1c.36.69.89,1.31-.39,1.38s-1.54,1.09-1.33,3.37c-1.45-.86-1.61-1.7-.86-3.89C75.3,78.88,76.25,79,77,78.1Z" style="fill:#d0513f"/><path d="M67.78,89.66c0,.4,0,.91.14,1.12,1.63,1.92-.27,2.28-.83,3.23-.23.33-.52.45-.83.25a.68.68,0,0,1-.13-1c.56-.45-.15-1.65.73-1.87.51.41.51,0,.48-.45S67.11,89.81,67.78,89.66Z" style="fill:#5e2f24"/><path d="M61.67,85.61c-.27-.11-.57-.18-.84-.29,0-.22,0-.4-.06-.62a13.63,13.63,0,0,0-.66-1.25l0-.31c.82.06,1.66-1.15,2.45.09a5.56,5.56,0,0,1-.13,2C62.15,85.25,61.85,85.19,61.67,85.61Z" style="fill:#d0513f"/><path d="M60.15,83.44c.21.43.42.82.67,1.25-.8.16-1.68-.07-2.4.58a.38.38,0,0,1-.22-.07c0-.81-.42-.91-1-.86s-1.08.41-1.33-.51c.48-.32,1.36.37,1.56-.77.17,0,.38-.08.55-.1C58.55,84.26,59.45,83.24,60.15,83.44Z" style="fill:#dd5444"/><path d="M57.42,83.1c-.2,1.14-1.07.46-1.56.77a1.76,1.76,0,0,0-1.33.48c-.44-.14-.92.31-1.35-.19,0-.54-.1-1.12-.1-1.66v-.09c.88-.3,1.64.62,2.49.5C56.13,83.49,56.76,82.93,57.42,83.1Z" style="fill:#ef5c4a"/><path d="M69.36,52.12a5.4,5.4,0,0,1,.07.8c0,.59.43,1.5-.28,1.7a1.8,1.8,0,0,1-1.75-.88,1.36,1.36,0,0,1,.52-1.9C68.36,52.43,68.88,52,69.36,52.12Z" style="fill:#6d3427"/><path d="M67.77,89.66c-.67.15-.44.81-.44,1.3s0,.86-.48.45a1.31,1.31,0,0,0-.48-1.08c-.33-.38-1-.72-.68-1.38a1.52,1.52,0,0,1,1.25-.88C67.51,88.11,67.79,88.85,67.77,89.66Z" style="fill:#6d3427"/><path d="M63.57,84.76l.55-.05a4.64,4.64,0,0,0,0,2.16c.21.48.48,1.09,0,1.44s-.63-.39-1-.63a.91.91,0,0,0-.48-.18A2,2,0,0,1,63.57,84.76Z" style="fill:#5e2f24"/><path d="M68.71,52.54c-.48-.1-1,.31-1.43-.23a.68.68,0,0,0,0-.32c.82,0,.81-.62.7-1.37.55,0,1,.81,1.66.43.52,0,.6.45.64.94l-1,.77A1.62,1.62,0,0,1,68.71,52.54Z" style="fill:#d0513f"/><path d="M65.15,90.53c0,.54.29,1.32-.52,1.31-.43,0-1-.58-.86-.92.3-.52-.05-1.57.76-1.6S65,90.09,65.15,90.53Z" style="fill:#5e2f24"/><path d="M54.53,84.36a1.86,1.86,0,0,1,1.33-.48c.25.92.86.55,1.33.51s1,0,1,.85C57,84.86,55.58,85.61,54.53,84.36Z" style="fill:#b4473b"/><path d="M72.87,81.85c.84-.66,1.48-.67,1.7.79-.33.17-.82-.06-1,.46-.17,0-.33.07-.5.09a.59.59,0,0,1-.62-.62Z" style="fill:#d0513f"/><path d="M68.55,86.35c.14-.42.49-.36.74-.43.72,0,1.45-.09,2.17-.11.1,1.07,0,1.76-1.11,1-.55-.4-1.2,0-1.81-.06A1.1,1.1,0,0,0,68.55,86.35Z" style="fill:#6d3427"/><path d="M77,78.1c-.69.91-1.69.82-2.62.91l0-.31c.8-.62,1.55-1.41,2.59-1.23C77,77.69,77,77.87,77,78.1Z" style="fill:#853830"/><path d="M51.48,83.28c.36-.26.68-.52,1-.78.17,0,.35,0,.56,0,.05.54.1,1.12.1,1.66C52.5,84.18,51.82,84.24,51.48,83.28Z" style="fill:#f1705a"/><path d="M76.67,88a1,1,0,0,1-.91.35c-.39,0-.84.26-1.06-.35-.12-.31-.21-.84.37-.62a4.45,4.45,0,0,1,.58.31C76,87.71,76.36,87.4,76.67,88Z" style="fill:#5e2f24"/><path d="M60.67,86.87c.71-.65,1.59-.41,2.39-.57,0,.22,0,.4.06.62C62.35,87,61.53,87.42,60.67,86.87Z" style="fill:#c14b3e"/><path d="M57.05,84.67c0,.36-.07.64-.41.67s-.62-.17-.62-.62.17-.56.47-.59S57,84.27,57.05,84.67Z" style="fill:#6d3427"/><path d="M68,85.67c.17,0,.51,0,.42.37s-.41.26-.62.33A.62.62,0,0,1,68,85.67Z" style="fill:#5e2f24"/><path d="M62.7,87.5c0,.23,0,.54-.3.52a.08.08,0,0,1-.09-.08C62.32,87.54,62.53,87.56,62.7,87.5Z" style="fill:#5e2f24"/><path d="M78.46,82.57c.34,0,.53.17.6.57C78.69,83.22,78.5,83,78.46,82.57Z" style="fill:#5e2f24"/><path d="M75.93,60c.19.65.87,1.09.68,1.92-.42.08-1-.09-1,.76-.7-.11-.67-1.78-1.69-1.15C73.53,59,75,60,75.93,60Z" style="fill:#d0513f"/><path d="M72.77,63.9c.13-.46.82-.34.72-1,.83-.26,1.21.16,1.21,1.15-.54.14-.5.63-.45,1.12s0,.86-.48.95c-.36-.2-.76-.38-1.12-.58C72.6,65,73.34,64.53,72.77,63.9Z" style="fill:#c14b3e"/><path d="M72.41,60a9.31,9.31,0,0,0,1.06-.14c1.23-.16,1.51.58,1.24,1.87-.34,0-.49.27-.49.72-.48,0-.6-.4-.59-.85,0-1-.53-1.08-1.16-1Z" style="fill:#b4473b"/><path d="M74.66,64c0-1-.38-1.41-1.22-1.15-.63-.84.8-.66.44-1.35,1-.63,1,1.08,1.69,1.16C75.59,63.42,75.44,64.07,74.66,64Z" style="fill:#9c4533"/><path d="M74.22,62.42a.59.59,0,0,1,.5-.72c0,.45.26.61.61.62,0,.45.07.85.11,1.3-.71.15-.44.85-.43,1.39l-.55,0C74.37,64.12,74.3,63.27,74.22,62.42Z" style="fill:#d0513f"/><path d="M73.52,68.12c0-.45-.07-.85-.11-1.3.41-.12.87-.3,1.29-.43.57.63-.17,1-.16,1.64Z" style="fill:#9c4533"/><path d="M77.49,66.41c.29-.07.3-.47.26-.92s-.09-1,.29-1.11c.66,1.61.78,1.6,1.21.07,0-.09.16-.1.24-.2.06.26.09.58.31.6s.63.4.47,1-.35,1.39-.83.8-.63-.4-.88.21a.92.92,0,0,0,.07.81c.36.64.75.65,1.06.35s.55-1.13.87.06a6.41,6.41,0,0,1,0,1.85c-.36,1.25,0,1.44.59,1.34.36.19.85-.62,1.12.53-.56-.08-.78.39-.6,1.41-.57-.09-.78.38-.57,1.4,0,.23,0,.4.06.63-.35-.11-.49.31-.62.73-.3,0-.66-.17-.67.69l-.72.07c-.15-.67-1-.82-.52-1.94.11-.23.22-.47.29-.66.86.51.84-.21.61-1.36,0-1.76-.71-1.2-1.19-1.25a9.1,9.1,0,0,0-.34-1.9c.26,0,.56,0,.45-.81,0-.4-.23-.57-.39-.51-.46.14-.23.79-.19,1.28-.56.42-.93-.81-1.55-1,.06.72.12,1.3.16,1.84-.55-.41-1,.13-.85,1.06a4,4,0,0,0,.35,1c-.6.09-1.25-.07-1.69.82,0-.4-.19-.66-.4-.64,0-.67.41-1.21.17-2l.34,0c.09.54,0,1.31.49,1.22s.23-.79.19-1.28c.2-.11.41-.22.11-.68a1.9,1.9,0,0,1-.26-1c.13-.51.45-.31.7-.38.06.22,0,.54.25.47a.19.19,0,0,0,0-.09c0-.36-.16-.35-.29-.38a12.29,12.29,0,0,0,.22-1.33c.44,0,.88-.3,1.3.06.23.21.53.68.7.21C77.94,67.14,77.44,66.87,77.49,66.41Z" style="fill:#d0513f"/><path d="M79,76.61c0-.86.58-.69,1-.72-.49.81.11,1.79-.28,2.64-.15.33-.2.69-.59.68a1,1,0,0,1-.83-.74c-.22-.47.22-.42.46-.53C79.26,77.58,79,77.06,79,76.61Z" style="fill:#d0513f"/><path d="M79.05,70.87c-.89.13-1.47-.05-.85-1.32.29-.57,0-1.22,0-1.85.46-.09.51-.5.43-.94-.18-1,.33-1.16,1-1.12.17.88.73.52,1.12.53.23.65-.28,1.69.73,1.91l.08.94C79.57,68.53,79,68.89,79.05,70.87Z" style="fill:#9c4533"/><path d="M78.85,63c-.52,0-.92.26-1.39.8a10.37,10.37,0,0,1-.3-3c.75-.16,1,1,1.62.93C78.78,62.14,78.82,62.55,78.85,63Z" style="fill:#853830"/><path d="M81.49,68c-1-.23-.5-1.31-.73-1.92a.54.54,0,0,0,.5-.68A1.62,1.62,0,0,1,81.49,68Z" style="fill:#c14b3e"/><path d="M70.86,56.4l-1.07.1c-.22-1,.08-1.5.95-1.39C70.78,55.55,70.82,56,70.86,56.4Z" style="fill:#9c4533"/><path d="M70.31,54.56l0,.36c-.21.06-.51.54-.64,0S70.06,54.63,70.31,54.56Z" style="fill:#dd5444"/><path d="M76.79,63.86c-.12,0-.29.07-.32.21-.68,1.55-.85,1.56-1.81,0,.78,0,.94-.63,1-1.35s.58-.68,1-.77C76.68,62.56,76.73,63.19,76.79,63.86Z" style="fill:#dd5444"/><path d="M81.55,73.54c-.21-1,.13-1.46,1-1.45.27.12.53.18.8.29-.65.47-1,1.44-1.73,1.78Z" style="fill:#dd5444"/><path d="M79.77,72.79l.06.63c0,.86-.59.68-1,.81C78.61,73.21,78.91,72.74,79.77,72.79Z" style="fill:#b4473b"/><path d="M76.62,51.82a7,7,0,0,1-3.86-1c.25-.07.69,0,.76-.16.37-1.12.64-1.46,1.4-.17.26.47.58-.69,1.06-.6C75.76,50.78,76.48,51.16,76.62,51.82Z" style="fill:#dd5444"/><path d="M76.62,51.83c-.15-.67-.82-1.06-.68-1.88l.51-.05c.34,0,.53-.27.5-.67.34,0,.53.17.61.62,0,.22,0,.4,0,.62,0,.45.08.9.12,1.3a8.6,8.6,0,0,0-1.06.14Z" style="fill:#b4473b"/><path d="M72,47.64c0,.45.07.85.07,1.3l-1.57.15-.06-.67C71.06,48.63,71.38,47.83,72,47.64Z" style="fill:#dd5444"/><path d="M72,49l1.06-.1c0,.36-.07.64-.41.67S72.12,49.43,72,49Z" style="fill:#dd5444"/><path d="M74.61,66.31c-.38.08-.83-.06-1,.41-.18-.08-.36-.2-.54-.27l-.28-3.22v0c.47,0,.59.4.59.85,0,1,.53,1.08,1.16.94l.55,0C74.87,65.43,74.74,65.89,74.61,66.31Z" style="fill:#dd5444"/><path d="M74.5,69.93c0,.49.32,1.14-.36,1.29s-.61-.66-.7-1.2A10.34,10.34,0,0,1,74.5,69.93Z" style="fill:#b4473b"/><path d="M76.64,45.87c0,.9-.58.68-1,.77,0-.45-.26-1,.23-1.24S76.55,45.34,76.64,45.87Z" style="fill:#b4473b"/><path d="M74.45,65c-.63.15-1.15.06-1.16-.93,0-.45-.16-.84-.59-.85-.07-.85-.15-1.74-.23-2.59.64-.15,1.16-.06,1.16,1,0,.46.17.85.6.85C74.3,63.27,74.37,64.12,74.45,65Z" style="fill:#9c4533"/><path d="M72.85,50.86c-.34,0-.69,0-1,0a2.67,2.67,0,0,0-.1-.62c0-.45-.08-.89-.11-1.3a1.82,1.82,0,0,0,.51-.09.59.59,0,0,1,.61.62A7.61,7.61,0,0,1,72.85,50.86Z" style="fill:#c14b3e"/><path d="M63,84.82l1.58-.15c-.06.86.91,1.63.23,2.6a4.18,4.18,0,0,0-2.13.19c-1.29-1-1-1.66.19-2.18C62.92,85.23,62.94,85,63,84.82Z" style="fill:#d0513f"/><path d="M67.74,83.93c0,.14,0,.41-.09.42-1.24.52-1.48,1.21-.19,2.18-.17,0-.38.08-.55.09-.73,0-1.45.09-2.18.11a6.08,6.08,0,0,0,.13-2C65.81,84.38,66.7,83.76,67.74,83.93Z" style="fill:#9c4533"/><path d="M67.37,86.58c.69-.91-.28-1.68-.23-2.59.77,0,1,1.13,1.73,1.15,0,.45.27.61.62.62,0,.41-.16.65-.5.68C68.44,86.53,67.88,86.54,67.37,86.58Z" style="fill:#9c4533"/><path d="M74.53,74.57l-.12-1.34a1.84,1.84,0,0,1-.17-1.92c.17,0,.34-.08.51-.09.73,0,1.75-.57,1.73,1.19a1.59,1.59,0,0,0-1,1.4,4,4,0,0,1-.5.67A1.7,1.7,0,0,1,74.53,74.57Z" style="fill:#9c4533"/><path d="M60.21,84.61c.73.07,1.46-.49,2.2.12l0,.31C61.73,84.84,60.83,85.86,60.21,84.61Z" style="fill:#c14b3e"/><path d="M55.51,82.87c.82-.39,1.63-1,2.45.09-.17,0-.38.08-.55.1C56.76,82.93,56.12,83.49,55.51,82.87Z" style="fill:#b4473b"/><path d="M77.63,64.1c0,.45.66.7.44,1.08s-.69,0-1-.17c-.63-.35-1.32,0-2,0,0-.54-.28-1.2.43-1.39l1-.1C76.87,63.72,77.27,63.9,77.63,64.1Z" style="fill:#dd5444"/><path d="M77.54,73.22c-.81.07-1.12,1.41-2.08,1.18.13-.46.26-.88.44-1.35a.53.53,0,0,0,.46-.63c0-.45-.19-.66-.58-.71a2.64,2.64,0,0,1-.47-.95c-.13-.94.56-1.45,1.36-1.12.34,0,.53.18.61.63C76.65,71.36,77.67,72.21,77.54,73.22Z" style="fill:#b4473b"/><path d="M75.78,71.75c.39,0,.53.23.58.72a.57.57,0,0,1-.46.62l-2.68.25-.06-.63C73.89,71.74,74.85,71.88,75.78,71.75Z" style="fill:#ed5a48"/><path d="M77.28,70.31a.61.61,0,0,0-.61-.62c-.06-.58-.11-1.16-.17-1.83.92.23,1.37,1.4,2.28,1l.25,0a5.84,5.84,0,0,1,.43,1.9c-.17,0-.34.07-.51.09C78.64,69.24,78.6,69.24,77.28,70.31Z" style="fill:#dd5444"/><path d="M74.32,69.31l-.26,0c0-.5-.31-1.15.36-1.3.3-.07.52.09.6.49C75.17,69.24,74.75,69.27,74.32,69.31Z" style="fill:#9c4533"/><path d="M75.54,73.85a1.59,1.59,0,0,1,.95-1.39C76.84,73.55,76.78,74.32,75.54,73.85Z" style="fill:#b4473b"/><path d="M73.21,73.29l2.68-.24c-.13.46-.26.88-.43,1.35l-2.13.19C73.29,74.14,73.25,73.74,73.21,73.29Z" style="fill:#c14b3e"/><path d="M77.28,70.31c1.36-1.07,1.36-1.07,1.67.53a1.7,1.7,0,0,0,.17,1.92,3.07,3.07,0,0,0-1.58.5C77.66,72.22,76.64,71.36,77.28,70.31Z" style="fill:#d0513f"/></g></svg>