<svg width="41" height="40" viewBox="0 0 41 40" fill="none" xmlns="http://www.w3.org/2000/svg">
<path d="M33.5555 13.2001C33.5758 13.494 33.5758 13.7878 33.5758 14.0844C33.5758 23.1209 26.6966 33.5427 14.1175 33.5427V33.5373C10.4016 33.5427 6.76294 32.4783 3.63477 30.4714C4.17509 30.5364 4.71812 30.5689 5.2625 30.5703C8.34192 30.573 11.3333 29.5398 13.756 27.6371C10.8296 27.5816 8.26338 25.6735 7.36691 22.888C8.39203 23.0857 9.44829 23.0451 10.4545 22.7702C7.26399 22.1256 4.96864 19.3224 4.96864 16.0669C4.96864 16.0372 4.96864 16.0087 4.96864 15.9803C5.91928 16.5098 6.98367 16.8036 8.07244 16.8361C5.0675 14.8279 4.14123 10.8303 5.95584 7.70484C9.42798 11.9773 14.5509 14.5746 20.0502 14.8495C19.4991 12.4743 20.252 9.98529 22.0287 8.31558C24.7831 5.72637 29.1152 5.85908 31.7044 8.61214C33.2359 8.31016 34.7039 7.74817 36.0472 6.95191C35.5367 8.53495 34.4683 9.87966 33.0409 10.7342C34.3965 10.5744 35.7209 10.2114 36.9681 9.65758C36.0499 11.0334 34.8935 12.2319 33.5555 13.2001Z" fill="white"/>
</svg>
